<?xml version="1.0" encoding="UTF-8"?>
<svg id="b" data-name="Layer 2" xmlns="http://www.w3.org/2000/svg" width="102.467" height="102.431" viewBox="0 0 102.467 102.431">
  <g id="c" data-name="Layer 1">
    <g>
      <path d="M50.413,102.431c-.784,0-1.551-.034-2.338-.133-.724-.091-1.462-.313-2.287-.472-.7-.135-1.472-.201-2.307-.375-.648-.134-.638-.179-1.286-.313-.898-.184-1.768-.399-2.619-.599-.892-.21-1.755-.449-2.602-.679-.88-.239-1.758-.428-2.597-.691-.867-.272-1.701-.601-2.531-.903-.849-.309-1.669-.664-2.488-1.008-.827-.347-1.597-.805-2.404-1.191s-1.696-.6-2.488-1.028c-.779-.421-1.479-.997-2.256-1.463-.755-.454-1.484-.967-2.245-1.467-.734-.482-1.499-.942-2.244-1.47-.701-.496-1.355-1.015-1.998-1.518-.677-.53-1.444-.92-2.057-1.459-.646-.568-1.183-1.224-1.758-1.802-.606-.609-1.183-1.216-1.712-1.838-.555-.653-1.03-1.344-1.501-2.013-.491-.697-.852-1.448-1.254-2.165-.415-.739-.844-1.448-1.166-2.21-.336-.796-.66-1.583-.968-2.366-.316-.803-.581-1.613-.869-2.404-.295-.811-.602-1.605-.866-2.404-.271-.819-.628-1.6-.867-2.407-.245-.827-.349-1.681-.56-2.496-.217-.834-.565-1.626-.746-2.447-.186-.84-.396-1.67-.545-2.498-.152-.847-.112-1.716-.226-2.551-.116-.851-.16-1.699-.236-2.54-.077-.855-.289-1.692-.325-2.536-.037-.856-.073-1.709-.067-2.555.006-.855.17-1.701.219-2.548.05-.852-.042-1.714.052-2.558s.345-1.672.484-2.511.386-1.653.569-2.485.321-1.665.547-2.489c.224-.816.333-1.672.6-2.484.264-.803.713-1.546,1.02-2.346.302-.789.413-1.663.756-2.449.337-.773.803-1.499,1.179-2.271.369-.757.806-1.489,1.214-2.246.413-.767.917-1.485,1.409-2.231.479-.727.936-1.479,1.483-2.184.534-.688,1.034-1.42,1.628-2.086.58-.651,1.314-1.169,1.946-1.797.62-.616,1.187-1.296,1.851-1.888.653-.583,1.325-1.153,2.017-1.711.682-.551,1.443-1.004,2.158-1.529.708-.52,1.418-1.035,2.153-1.529.73-.491,1.473-.958,2.226-1.422s1.483-.951,2.251-1.385,1.564-.814,2.347-1.218,1.577-.789,2.373-1.163c.802-.377,1.575-.805,2.382-1.149.817-.348,1.621-.712,2.439-1.025.832-.318,1.622-.736,2.45-1.015.847-.286,1.717-.476,2.555-.72.86-.25,1.749-.337,2.593-.541.873-.211,1.713-.492,2.564-.652.886-.167,1.751-.352,2.605-.462.898-.115,1.774-.281,2.629-.33.734-.042,1.487.188,2.226.188.89,0,1.79-.211,2.685-.15.887.061,1.771.246,2.66.366.881.119,1.766.254,2.646.429.872.173,1.756.331,2.624.558.86.225,1.729.453,2.583.729.846.274,1.633.731,2.47,1.054.83.32,1.729.49,2.547.856.812.364,1.607.784,2.405,1.192.792.405,1.528.926,2.304,1.374.771.445,1.508.948,2.261,1.434.749.483,1.517.939,2.245,1.46.725.519,1.408,1.093,2.11,1.649s1.475,1.018,2.149,1.606,1.227,1.303,1.872,1.923c.643.619,1.407,1.121,2.021,1.772s1.17,1.355,1.751,2.035,1.019,1.472,1.566,2.18,1.232,1.311,1.743,2.045c.505.727.92,1.511,1.382,2.255.467.752.877,1.531,1.3,2.298.427.775.931,1.506,1.313,2.295.385.796.73,1.61,1.07,2.418.343.814.483,1.703.779,2.528.299.831.726,1.614.978,2.454.254.846.444,1.707.65,2.559.208.858.533,1.692.694,2.555s.136,1.765.25,2.636.366,1.736.433,2.612.002,1.767.022,2.646.05,1.763.022,2.642-.185,1.753-.261,2.629.003,1.775-.121,2.645-.284,1.744-.456,2.607-.41,1.717-.629,2.569-.461,1.703-.727,2.542-.521,1.687-.833,2.51-.704,1.617-1.062,2.423-.784,1.576-1.186,2.361-.777,1.581-1.223,2.342-.998,1.449-1.486,2.184c-.485.731-1.005,1.437-1.534,2.144-.525.702-1.052,1.404-1.62,2.081-.563.671-1.131,1.342-1.736,1.987-.6.638-1.293,1.185-1.933,1.795-.634.604-1.127,1.371-1.8,1.946-.721.615-1.565,1.012-2.297,1.519-.762.527-1.43,1.17-2.211,1.633s-1.67.74-2.477,1.192c-.681.381-1.351.813-2.062,1.226-.83.481-1.563,1.036-2.324,1.47-.828.472-1.695.786-2.469,1.208-.826.45-1.633.862-2.431,1.262-.825.413-1.647.787-2.48,1.154-.825.364-1.643.749-2.514,1.076-.829.312-1.672.648-2.575.934-.834.264-1.684.606-2.608.854-.842.226-1.731.436-2.668.652-1.18.273-2.204.524-3.131.667-1.178.182-2.214.217-3.185.217ZM57.985,13.45c-.423.002-.649.526-1.589,2.979-.149.388-.359.674-.429.824-.39.829-.692,1.654-1.074,2.394-.421.815-.88,1.559-1.299,2.276-.463.793-.948,1.518-1.418,2.202-.517.754-1.059,1.435-1.596,2.073-.582.691-1.136,1.367-1.757,1.943-.648.601-1.354,1.115-2.063,1.613-.704.495-1.46.919-2.243,1.337-.745.398-1.569.673-2.401,1.022-.771.324-1.507.83-2.367,1.129-.788.274-1.665.396-2.537.662-.737.225-1.487.374-2.231.545-.751.173-1.49.373-2.242.507-.758.135-1.519.228-2.273.338-.764.112-1.498.401-2.252.503-.753.102-1.529.095-2.292.207-.758.111-1.514.244-2.268.38-.759.137-1.522.243-2.261.42-1.153.278-2.549.543-3.456,1.713-.558.721-1.005,1.632-1.463,2.562-.42.854-.803,1.775-1.162,2.701s-.728,1.848-1.047,2.745c-.331.931-.615,1.818-.927,2.606-.3.756-.53,1.595-.871,2.42-.331.801-.792,1.579-1.127,2.419-.328.823-.507,1.713-.805,2.546-.305.851-.543,1.708-.781,2.541-.255.889-.631,1.717-.768,2.552-.107.65-.237,1.32-.3,1.996-.062.669.045,1.357-.002,2.02-.052.732-.084,1.475-.156,2.211-.072.74-.299,1.457-.43,2.175-.135.738-.153,1.5-.391,2.185-.016.047-.162.012-.163.062s-.073.084-.06.132c.248.932.578,1.81.863,2.662.306.914.768,1.733,1.123,2.562.376.881.625,1.793,1.062,2.588.457.831,1.14,1.496,1.669,2.244.541.764,1.024,1.555,1.648,2.243.62.684,1.245,1.373,1.954,1.994.686.601,1.382,1.229,2.159,1.781.62.441,1.383.865,2.184,1.365.683.426,1.466.797,2.249,1.247.717.413,1.385.986,2.162,1.405.741.4,1.555.706,2.33,1.1.761.386,1.534.767,2.31,1.138.78.372,1.522.83,2.299,1.175.8.355,1.602.683,2.379.998.825.334,1.633.652,2.408.927.86.305,1.703.523,2.47.736.923.257,1.773.485,2.51.578.773.098,1.623.201,2.488.294.835.09,1.694.101,2.506.18.903.088,1.762.131,2.499.199.34.031.714-.08,1.11-.08.779,0,1.647.018,2.582-.096.812-.099,1.697-.094,2.585-.265.826-.16,1.658-.444,2.516-.657.832-.207,1.66-.482,2.493-.73s1.637-.594,2.445-.876c.839-.293,1.745-.366,2.522-.685.842-.345,1.538-.924,2.269-1.287.85-.423,1.651-.769,2.289-1.2.304-.205.669-.612,1.001-.964.211-.225.458-.548.55-.602.238-.141.705-.3,1.147-.422.502-.139,1.08-.126,1.488-.332.817-.414,1.535-1.019,2.336-1.487.789-.46,1.585-.914,2.361-1.429.759-.503,1.572-.945,2.32-1.501.73-.543,1.485-1.077,2.206-1.672.701-.578,1.364-1.223,2.058-1.851.673-.609,1.377-1.209,2.045-1.866.647-.636,1.192-1.393,1.836-2.075.516-.546,1.157-1.033,1.588-1.615.514-.694.721-1.444.796-2.066.095-.794.211-1.616.241-2.476.029-.811.191-1.646.175-2.494-.016-.824-.248-1.651-.297-2.488s-.026-1.673-.096-2.499c-.071-.841-.11-1.677-.192-2.49-.086-.853-.286-1.672-.371-2.47-.067-.628-.027-.631-.111-1.256-.005-.04.146-.115.124-.149-.304-.453-.677-1.636-.885-2.749-.282-1.512-.437-2.47-.798-2.796-.179-.161-.389-.103-.607-.103-.411,0-.789.137-1.102.396-.155.128-.221.389-.343.45-.732.367-1.34.374-1.928.481-.373.068-.746.171-1.189.31-.372.117-.706.305-.979.571-.199.194-.292.53-.499.639-.65.343-1.347.627-2.042.855-.69.227-1.428.359-2.159.471-.712.109-1.453.167-2.199.167-.814,0-1.646-.03-2.45-.159s-1.595-.382-2.37-.633c-.774-.251-1.513-.611-2.24-.978s-1.457-.746-2.118-1.222c-.141-.102-.32-.347-.6-.534-.593-.398-1.799-1.22-1.948-1.442-.272-.471-.268-.628-.045-1.139.107-.178,1.584-2.113,1.75-2.278.355-.281,1.637-.705,2.911-1.173s2.514-1.105,2.964-1.145c.395-.035,1.575.133,2.855.133,1.239,0,2.218-.167,2.532-.13.173.028,1.047.553,1.957.916.894.356,1.791.683,1.953.808.281.235.631.59.905,1.036.395.644.699,1.409,1.311,1.778.395.238.835.374,1.275.374,0,0,0,.014,0,.014.575,0,1.136-.247,1.645-.451.211-.084.288-.318.337-.448.045-.008.095-.1.155-.1.173,0,.373.04.553.065.194.028.368.006.52.006.606,0,.757-.286.764-.413.016-.284-1.08-1.944-1.251-2.07-.293-.217-.678-.164-1.023-.235-.242-.05-.439-.232-.624-.324-.631-.31-1.226-.754-1.87-1.145-.623-.377-1.276-.725-1.888-1.118-.584-.375-1.219-.631-1.775-.969-.6-.366-1.149-.757-1.722-1.042-.879-.437-1.724-.569-2.541-.706-.887-.148-1.737-.285-2.633-.315-.462-.015-.936.047-1.417.015-.486-.033-.964-.26-1.459-.321-.734-.09-1.502,0-2.23,0-.685,0-1.515.021-2.341.454-.62.325-1.318.758-1.816,1.606-.426.726-.753,1.584-1.035,2.493-.255.819-.309,1.731-.47,2.647-.152.863-.501,1.728-.589,2.636-.086.889.091,1.807.05,2.702-.042.909-.254,1.806-.268,2.683-.015.933.181,1.839.177,2.69-.004.911-.154,1.767-.169,2.547-.004.214.076.476.033.737-.104.631-.322,1.287.051,1.726.217.256.584.487,1.051.487.159,0,.351-.056.556-.088.147-.023.135-.098.283-.121.43-.069.742-.018,1.071-.018.41,0,.865-.088,1.47.104.914.29,1.184.927,1.049,1.832-.095.636-.391,1.303-.838,1.951-.415.6-.858,1.224-1.386,1.669-.686.579-1.409.925-1.931.931-.716,0-1.162-.342-1.491-.657-.214-.204-.342-.518-.579-.564-.016-.003-.022-.041-.038-.042-.024-.002-.037.062-.061.062-.142,0-.442.07-1.208.269-.887.231-2.21.712-2.75.712-1.117,0-1.828-.438-2.615-.75-.477-.189-.984-.392-1.554-.51-.858-.178-2.89-.224-3.834-.235,0,0-.001.01-.001.01-.334,0-.587.166-.82.233-.198.057-.379.014-.556.014-.192,0-.364-.029-.577-.158-.441-.267-.373-.66-.341-1.332.014-.294.017-.614-.032-.904-.046-.266-.312-.432-.411-.645-.105-.227-.156-.479-.176-.736-.057-.727.324-1.438.864-1.985.525-.533,1.219-1.005,1.905-1.123.456-.079.843-.097,1.146-.097.155,0,.155.208.31.208,1.099,0,1.408-.467,1.697-2.409.021-.144-.089-.161-.068-.305.145-.966.429-2.036.532-3.122s-.033-2.173-.125-3.148c-.09-.94-.271-1.981-.506-2.99-.251-1.076-.437-2.204-.506-3.175-.033-.465.125-.853.2-1.245.064-.336.101-.701.097-1.075-.003-.324-.313-1.291-.507-2.267-.189-.952-.295-1.938-.559-2.231-.295-.327-1.369-.637-2.571-1.092-.846-.32-1.747-.755-2.616-1.02-1.205-.368-2.259-.683-2.706-.72-.707-.059-1.551-.007-2.503-.007-.994,0-2.073.036-3.134.097-1.107.063-2.2.049-3.136.163-.758.093-1.577.247-2.407.438-.783.18-1.56.483-2.346.687-.853.222-1.753.3-2.588.487-.922.206-1.777.505-2.561.559-.135.01-.268.106-.395.106-1.131,0-1.738-.494-1.812-.835-.057-.262.151-.772,1.22-1.259.648-.295,1.881-.47,3.094-.769,1.152-.284,2.312-.613,3.084-.78.059-.013.035-.122.093-.135.897-.194,1.788-.417,2.682-.564.906-.149,1.836-.098,2.736-.198.913-.102,1.816-.232,2.719-.283.918-.052,1.83.053,2.734.053.884,0,1.761-.157,2.623-.106.883.052,1.756.146,2.61.252.88.108,1.713.414,2.557.578.947.184,1.894.383,2.735.871.824.478,1.631,1.055,2.301,1.77.65.694,1.257,1.49,1.715,2.358.444.84.712,1.798.932,2.756.199.866.423,1.756.538,2.68.11.879-.045,1.802-.011,2.737.033.884.057,1.784.022,2.719-.033.883-.062,1.786-.154,2.718-.088.88-.18,1.782-.322,2.707-.134.876-.319,1.764-.501,2.682-.173.871-.197,1.798-.413,2.708-.008.033-.056.012-.057.047,0,.035.05.016.056.05.088.471-.14,1.126-.248,1.807-.111.698-.217,1.488-.111,2.164.11.698.456,1.364,1.327,1.623.26.077.768.031,1.134.031.455,0,1.023-.105,1.308-.273.911-.537.572-2.126.392-3.344-.052-.358.071-.686.068-.884-.019-.887-.073-1.752-.074-2.595,0-.89.144-1.753.164-2.593.022-.892.037-1.754.082-2.59.048-.895.046-1.759.12-2.59.08-.897.14-1.759.25-2.58.121-.9.267-1.752.425-2.561.175-.898.385-1.734.606-2.519.25-.89.541-1.698.849-2.443.358-.865.641-1.695,1.077-2.362.512-.784,1.151-1.379,1.77-1.888.652-.536,1.395-.989,2.286-1.233.765-.209,1.64-.22,2.601-.22.969,0,2.04.086,3.375.306.696.115,1.583.448,2.599.744.821.239,1.742.396,2.622.701.875.303,1.756.602,2.557.925.962.388,1.872.691,2.517,1.035.421.225.831.647,1.254.986.381.306.684.762,1.078.997.181.108.416.053.605.053.136,0,.559.014.627-.494.032-.241-.373-.625-1.712-3.033-.283-.51-.376-1.022-.471-1.216-.255-.52-.606-.906-.796-1.32-.342-.744-.444-1.473-.846-2.153-.334-.565-.798-1.137-1.378-1.863-.18-.225-.448-.688-.824-1.182-.483-.636-.988-1.092-1.327-1.527-.716-.921-1.182-1.309-1.362-1.428-.803-.527-1.725-1.02-2.636-1.489-1.008-.519-2.042-1.095-2.908-1.693-.654-.451-1.337-.911-1.976-1.433-.622-.509-1.128-1.173-1.736-1.717-.606-.542-1.165-1.136-1.757-1.682-.511-.47-1.182-.782-1.704-1.252-.527-.475-1.022-.983-1.549-1.425-.237-.274-.927-1.627-1.773-2.962-.629-.991-1.262-1.677-1.658-2.282-1.232-1.882-1.386-2.047-1.658-2.047-.036.01-.033-.049-.034-.049ZM63.637,68.578c-.507,0-1.64.029-1.948.509-.1.157-.19.289-.109.465.143.315.477.402.916.402v.046c.497,0,1.013-.189,1.312-.517.19-.208.293-.432.27-.679-.013-.138.03-.132-.07-.229s-.093-.034-.232-.043c-.029-.002-.076.046-.139.046ZM49.523,67.272c0,.314.137.448.462.448.141-.243.198-.258.082-.513-.118-.258-.289-.073-.544.066ZM84.087,34.871c-.125,0-.159.032-.234.108-.11.111-.234.191-.231.354.008.509.665,1.045,1.441,1.781.179.17.32.368.378.441.649.832.882,1.629,1.144,2.45.163.513.312,1.048.584,1.611.299.616.662,1.21.969,1.837.367.747.7,1.525,1.07,2.294.363.755.696,1.532,1.048,2.305.349.765.596,1.578.921,2.358s.833,1.489,1.119,2.281c.288.796.408,1.648.644,2.454.238.814.399,1.638.569,2.46.172.83.355,1.649.443,2.485.089.841.105,1.678.094,2.521s.112,1.7-.014,2.54c-.007.044-.139.026-.123.067.304.814.098.935.657,1.601.204.243.354.11.624-.056.028-.31.12-.659.104-.968-.018-.367-.111-.699-.058-1.01.038-.224.21-.738.382-1.241.33-.972.515-1.444.499-1.684-.012-.173-.153-.338-.25-.471-.068-.093-.25-.172-.257-.248-.009-.097.119-.109.11-.206-.085-.864-.322-1.705-.41-2.556-.089-.862-.223-1.712-.322-2.563-.1-.859-.032-1.734-.15-2.585s-.197-1.715-.342-2.563-.458-1.665-.638-2.508c-.179-.839-.396-1.668-.616-2.505-.218-.826-.328-1.69-.595-2.516-.256-.793-.749-1.536-1.108-2.384-.444-1.048-.776-2.179-1.053-3.223-.015-.057.071-.13.037-.178s-.118-.014-.166-.048c-.211-.15-1.104-.427-2.092-.867-.665-.297-1.337-.773-2.013-1.043-.986-.393-1.874-.524-2.165-.524ZM94.494,38.407c-.11,0-.169.003-.271.1-.184.177-.295.281.324,2.166.187.569.522,1.262.844,2.189.302.868.52,1.636.589,1.904.216.85.423,1.807.648,2.815.203.907.382,1.866.563,2.833.177.947.401,1.899.531,2.843.135.987.194,1.962.248,2.879.098.727-.167.837.236,1.45.178.271.421.195.706.039.006-.304-.002-.784.111-1.059.096-.235.318-.378.329-.55.048-.747.093-1.532.068-2.32-.025-.769-.124-1.546-.171-2.31-.062-.995-.094-1.932-.103-2.831-.007-.717-.177-1.331-.16-1.897.023-.73.154-1.402.112-2.145-.036-.636-.132-1.318-.3-2.128-.047-.228-.037-.482-.075-.732-.181-1.184-.404-2.771-1.809-3.125-.252-.064-1.941-.12-2.418-.12ZM10.535,33.238c-.606,0-2.568.823-2.985,1.112-.634.439-1.232,1.087-1.701,1.996-.375.727-.613,1.6-.896,2.51-.256.823-.52,1.681-.711,2.572-.188.877-.37,1.762-.503,2.631-.142.926-.277,1.824-.368,2.653-.112,1.022-.124,1.941-.176,2.665-.013.193-.078.435-.101.713-.072.852-.171,1.704-.2,2.469-.041,1.08-.102,2.024.095,2.486.092.215.363.468.736.468v.153c.166,0,.391-.072.523-.234.104-.127.078-.306.076-1.189,0-.437.023-.971.055-1.192.099-.68.085-1.615.311-2.652.173-.796.488-1.648.718-2.568.209-.833.426-1.705.67-2.58.239-.856.539-1.706.802-2.55.272-.875.644-1.696.93-2.5.323-.907.58-1.773.904-2.511.442-1.004.869-1.804,1.277-2.31.043-.054.236-.149.379-.256.513-.386,1.097-.902,1.008-1.396-.046-.258-.323-.383-.684-.491-.052-.015-.094.001-.16.001ZM73.064,52.346c.194.006.466.047.71.105.295.071.578.235.857.235.148,0,.244-.107.36-.148.356-.127,1.112-1.471,1.055-1.775-.099-.536-.834-.589-1.503-.589-.734,0-1.784.093-2.773.255-1.24.202-2.343.53-2.641.747-.206.148-.515.471-.531.79-.008.152.016.292.121.385.113.1.238.241,1.062.241.567,0,1.323-.235,1.981-.252.496-.014.948.126,1.197.126.07-.017.048-.122.105-.12ZM17.262,32.254c-.812,0-1.581.49-2.361,1.204-.655.599-1.336,1.283-1.871,2.029-.631.878-1.067,1.791-1.4,2.385-.351.624-.783,1.538-1.164,2.629-.301.86-.614,1.802-.868,2.762-.255.965-.491,1.933-.639,2.829-.189,1.142-.203,2.151-.109,2.869.03.229.033.749.487.749v.032c.152,0,.378,0,.536-.15.139-.131.115-.637.827-2.738.373-1.097.937-2.286,1.129-2.687.437-.91.965-1.792,1.474-2.692.507-.894.989-1.805,1.508-2.676.415-.696.859-1.392,1.271-2.106s.647-1.523,1.023-2.242c.053-.103.3-.235.442-.411.412-.507.787-.974.648-1.4-.044-.134-.129-.342-.42-.421-.163-.043-.34.034-.512.034ZM85.951,32.395c.079.199.181.377.364.562.335.339,1.005.766,1.775,1.048s1.57.393,2.038.422c.277.017.353.331.509.101s-.102-.213-.222-.463c-.347-.726-1-1.07-1.595-1.366-.208-.104-.449-.152-.642-.272-.021-.013.007-.051-.015-.061s-.012-.034-.035-.042c-.215-.078-1.076-.973-1.755-1.573-1.526-1.346-2.022-1.499-2.32-1.499-.07,0-.094-.176-.159-.149-.08.033-.114.03-.178.089-.079.083-.1.266-.097.388.01.395.518,1.002,1.593,2.024-.188-.115-.444-.196-.765-.37-.698-.38-1.703-1.054-1.929-1.434-.01-.016-.018-.008-.029-.023-.011-.015.023-.045.01-.058-.59-.612-1.115-1.292-1.712-1.904s-1.247-1.169-1.846-1.777c-.6-.609-1.203-1.215-1.803-1.82s-1.177-1.24-1.776-1.842c-.605-.607-1.229-1.191-1.827-1.791-.618-.62-1.315-1.167-1.938-1.793-.62-.622-1.149-1.338-1.772-1.966s-1.349-1.145-1.969-1.775-1.267-1.229-1.883-1.862-1.104-1.389-1.716-2.026-1.183-1.312-1.788-1.952-1.324-1.181-1.923-1.826c-.074-.08-.237-.277-.388-.492-.622-.888-.975-1.535-1.39-1.535-.136,0-.188.188-.278.291-.186.213-.33.557-.222,1.325.104.741.26,1.601.574,2.439.286.763.699,1.524,1.067,2.27.389.787.924,1.472,1.305,2.134.539.938.871,1.788,1.147,2.213.418.643,1.107,1.172,1.685,1.851.514.604.992,1.294,1.6,1.908.571.576,1.139,1.194,1.767,1.765.61.555,1.202,1.154,1.844,1.691.642.538,1.338,1.013,1.989,1.52.672.524,1.393.96,2.049,1.436.704.512,1.292,1.137,1.947,1.577.751.505,1.52.869,2.162,1.254q.183.11.367.22c.515.31,1.122.798,1.819,1.209.629.371,1.297.743,1.908,1.082.784.436,1.5.815,1.958.996.213.084,1.241.354,1.805.354v.043c.305,0,.617-.163.706-.354.016-.034-.02-.154-.014-.187ZM53.928,13.597c-.385,0-.706.379-1.262,1.383-.26.469-.636,1.022-.976,1.771-.067.15-.035.302-.056.339-.467.764-.952,1.425-1.412,2.046-.504.68-1.052,1.277-1.654,1.843-.567.534-1.217,1.015-1.966,1.5-.748.485-1.472.997-2.234,1.427-.775.437-1.578.81-2.364,1.196-.797.392-1.613.729-2.419,1.074-.816.349-1.671.58-2.493.887-.831.31-1.594.802-2.428,1.075-.842.276-1.732.388-2.574.633-.852.247-1.714.435-2.563.657-.858.224-1.7.486-2.552.691-.863.207-1.724.381-2.578.576-.39.037-1.033.754-1.701,1.411-.631.621-1.274,1.242-1.422,1.662-.123.351-.007.536.106.646.111.109.249.166.397.166.537,0,1.969-.161,3.462-.431,1.428-.258,2.883-.596,3.382-.596.025,0,.027.002.052.001.053-.002.07.038.121.028.51-.12,1.019-.267,1.537-.386.824-.189,1.628-.483,2.456-.682s1.682-.28,2.502-.503,1.592-.61,2.398-.874,1.586-.591,2.371-.912,1.63-.514,2.383-.908,1.516-.782,2.224-1.26c.702-.474,1.321-1.167,2.024-1.81.643-.588,1.262-1.247,1.879-1.941.591-.664,1.271-1.284,1.815-2.015.541-.726.917-1.569,1.39-2.331.485-.782,1.047-1.508,1.437-2.297.417-.843.859-1.656,1.139-2.469.322-.935.211-1.326.048-1.516-.111-.127-.309-.081-.466-.081ZM64.659,6.314c-.214,0-.28.079-.354.151-.118.114-.243.201-.233.37.033.567.91,1.22,2.413,2.365.248.188.419.375.504.454.86.812,1.582,1.718,2.294,2.575.567.683,1.138,1.402,1.776,2.056.655.671,1.356,1.275,2.013,1.91.673.65,1.316,1.314,1.993,1.933.687.629,1.355,1.268,2.047,1.873.699.611,1.335,1.289,2.04,1.882s1.555,1.02,2.271,1.605,1.334,1.284,2.057,1.866c.716.576,1.408,1.19,2.135,1.772.685.548,1.432,1.168,2.192,1.868.533.492,1.059,1.012,1.595,1.475.584.505,1.272.813,1.823,1.172.039.026-.022.119.017.145.321.218.627.397.904.398v.048c.17,0,.365-.012.427-.073.373-.366-.096-1.088-.559-1.676-.021-.027-.023-.025-.044-.052-.413-.536-.886-1.161-1.439-1.793-.48-.549-1.024-1.104-1.559-1.684-.517-.559-1.127-1.051-1.652-1.605-.544-.573-.988-1.223-1.495-1.753-.503-.525-1.087-.912-1.507-1.356-.576-.608-1.174-1.158-1.74-1.719-.592-.587-1.058-1.276-1.644-1.821-.607-.564-1.179-1.149-1.785-1.68-.618-.541-1.339-.95-1.962-1.469s-1.268-1.017-1.906-1.528c-.631-.506-1.185-1.116-1.834-1.625-.632-.495-1.375-.866-2.03-1.375-.683-.532-1.297-1.181-2.012-1.742-.161-.128-.104-.198-.264-.327-.719-.582-1.479-1.098-2.13-1.567-.986-.71-1.865-1.073-2.353-1.073ZM50.882,10.809c-.521,0-1.418.59-1.602.707-.531.337-1.14.688-1.706,1.158-.52.432-.985.967-1.503,1.425-.876.774-1.816,1.544-2.662,2.158-.697.506-1.41.968-2.11,1.426-.72.471-1.452.899-2.176,1.323-.739.433-1.45.901-2.195,1.291-.756.396-1.536.734-2.299,1.092-.77.361-1.558.675-2.338,1.004s-1.603.548-2.396.851-1.511.792-2.314,1.073c-.795.279-1.648.404-2.459.669-.799.261-1.618.473-2.434.726-.802.25-1.597.546-2.418.794-.803.243-1.623.461-2.445.707-.84.252-1.299.366-2.517.952-.926.445-.902.468-1.758,1.037s-1.081.322-1.698,1.143c-.224.299.34.1.703.187.174.042.358.16.532.16v-.074c.716,0,1.327-.352,1.895-.683.349-.204.68-.355,1.027-.463.819-.257,1.652-.527,2.519-.762.83-.225,1.655-.546,2.525-.762.837-.208,1.722-.289,2.592-.499.826-.2,1.628-.552,2.472-.761.83-.206,1.654-.46,2.491-.682.83-.221,1.708-.283,2.535-.528s1.669-.455,2.483-.731c.82-.278,1.579-.721,2.375-1.038.806-.322,1.585-.682,2.355-1.051.784-.376,1.611-.659,2.345-1.092.748-.441,1.376-1.051,2.061-1.56.695-.517,1.439-.965,2.056-1.561.946-.913,1.894-1.836,2.746-2.785.521-.581,1.002-1.214,1.553-1.796.54-.57,1.001-1.234,1.592-1.77.035-.032.15.101.187.07.294-.245.389-.59.397-.909.003-.148.066-.276-.046-.379-.095-.088-.214-.067-.367-.067ZM84.047,18.559c.671.944,1.533,1.58,2.37,2.226.606.468,1.175,1.027,1.723,1.614.555.594,1.218,1.233,1.807,1.956.564.693,1.092,1.439,1.62,2.112.361.46.694.922,1.028,1.341.025.032.071.142.157.277,1.08,1.674,1.583,2.173,2.002,2.173,0,0,0,.043,0,.043.133,0,.261-.026.348-.127.34-.392-.93-2.983-.944-3.009-.283-.506-.99-1.204-1.602-2.089-.485-.702-.9-1.538-1.415-2.216-.652-.858-1.238-1.644-1.653-2.042-.591-.568-1.51-1.094-2.448-1.583-.888-.463-1.831-.893-2.653-1.194-.493-.18-.481-.197-1.005-.176s.359.266.663.694ZM49.727,6.348c-.742,0-3.262,1.02-3.66,1.208-.786.37-1.6.653-2.364,1.019-.783.375-1.513.832-2.275,1.205-.779.381-1.567.72-2.325,1.099-.774.387-1.549.752-2.305,1.138-.77.393-1.539.768-2.292,1.162-.765.4-1.491.858-2.24,1.26-.76.407-1.532.778-2.279,1.188-.754.415-1.518.804-2.261,1.223-.748.422-1.541.758-2.28,1.186s-1.371,1.046-2.107,1.483-1.547.746-2.279,1.191-1.482.853-2.21,1.307c-.104.065-.27.199-.509.314-1.23.589-2.301,1.168-2.326,1.838-.008.234.237.298.312.376.077.08.133.249.373.249v-.014c.432,0,1.064-.265,1.661-.584.132-.071.26-.035.311-.053.837-.271,1.663-.616,2.522-.898.839-.275,1.686-.559,2.54-.848.839-.284,1.696-.539,2.542-.84.837-.298,1.666-.633,2.504-.951.832-.316,1.625-.742,2.452-1.082s1.698-.571,2.513-.937,1.558-.886,2.357-1.282,1.569-.849,2.346-1.281c.783-.435,1.64-.737,2.393-1.21.818-.515,1.625-1.067,2.36-1.686.742-.625,1.35-1.4,2.048-2.047.677-.627,1.364-1.292,2.073-1.89.059-.05.31-.055.534-.207,1.794-1.221,2.246-1.811,2.273-2.233.009-.145.077-.301-.03-.396-.126-.111-.32-.007-.374-.007ZM49.251,2.431c-.701.213-1.415.42-2.131.59-.721.172-1.465.237-2.174.391-.732.159-1.455.411-2.2.589-.736.176-1.48.323-2.206.546-.856.262-1.714.52-2.561.817s-1.693.591-2.527.921-1.635.736-2.455,1.098-1.651.701-2.456,1.094-1.62.776-2.408,1.2-1.626.779-2.396,1.234c-.775.457-1.427,1.11-2.178,1.595-.756.488-1.585.862-2.314,1.377-.737.52-1.489,1.017-2.196,1.562-.714.551-1.382,1.156-2.062,1.731-.689.583-1.379,1.16-2.031,1.766-.563.524-.972,1.219-1.465,1.782-.552.631-1.119,1.186-1.482,1.749-.374.582-.455.89-.321,1.136.079.145.209.265.389.266.514,0,1.471-.667,1.569-.75.665-.564,1.281-1.161,1.947-1.684.684-.536,1.366-1.053,2.052-1.55.701-.508,1.424-.964,2.131-1.437.717-.481,1.419-.969,2.143-1.42.73-.455,1.408-.988,2.148-1.419s1.549-.74,2.301-1.155c.748-.412,1.429-.953,2.191-1.354.752-.397,1.493-.828,2.262-1.221.757-.386,1.601-.616,2.376-1.005.758-.38,1.548-.716,2.326-1.103.923-.46,1.788-1.065,2.737-1.542.471-.236.918-.538,1.365-.816.607-.376,1.297-.645,1.981-.935.646-.273,1.26-.662,1.935-.876s1.4-.278,2.071-.468c.733-.208,1.508-.334,2.249-.573.733-.236,1.447-.564,2.152-.877.195-.086.373-.008.292-.205-.285-.688-.279-.72-.798-1.254-.082-.085-.154.171-.26.203ZM71.081,7.236c.569.919,1.703,1.266,2.641,1.587.043.015.025.153.054.119.203-.244.355-.207.249-.507-.816-.821-1.618-1.606-2.729-1.611-.294-.001-.32-.174-.576-.029-.259.146.206.191.361.441Z"/>
      <path d="M29.956,82.628c-.525,0-1.485-.226-2.423-.518-.976-.304-1.883-.74-2.282-.961-.672-.375-2.405-1.588-2.505-2.112-.146-.758.167-1.664.302-2.612.131-.918.099-1.876-.023-2.742.112-.75.742-1.495,1.376-2.29.528-.663,1.111-1.368,1.774-1.984.692-.643,1.471-1.157,2.081-1.672.344-.291.572-.667.845-.907.283-.248.555-.538.856-.813.551-.503,1.208-.932,1.806-1.425s1.2-.973,1.848-1.347c.685-.395,1.365-.767,2.102-.902.462-.085.948-.144,1.434-.144,1.378,0,2.616.369,3.463.987,1.04.761,1.733,1.484,2.13,2.361.381.843.558,1.849.514,3.157-.028.822-.185,1.685-.414,2.542-.214.8-.492,1.629-.871,2.423-.359.754-.793,1.512-1.291,2.23-.479.69-1.041,1.356-1.64,1.985-.581.611-1.343,1.042-2.03,1.571-.668.515-1.267,1.162-2.028,1.577-.739.403-1.528.779-2.349,1.068-.791.278-1.653.409-2.514.561-.045.008-.102-.033-.163-.033Z"/>
      <path d="M35.96,55.604c-.869,0-1.704-.036-2.523-.151-.862-.121-1.715-.178-2.501-.421-.833-.258-1.652-.533-2.376-.923-.321-.173-1.013-.821-1.615-1.261-.891-.651-1.036-.856-1.159-.892-.181-.054-.394.119-.566.119-.642,0-1.082.268-1.468.586-.218.178-.389.444-.596.515-.221.076-.561.001-.898.001-1.018,0-2.324-.323-2.619-1.014-.05-.118.131-.156.141-.178.107-.239.679-.387,1.138-.542.69-.233,1.313-.558,1.442-1.067.136-.536-.279-1.033-.749-1.522-.388-.404-.756-.813-.703-1.192.035-.25.129-.608.583-.872.276-.16.553-.176.73-.176.274,0,.34.293.603.657.225.309.6.537,1.019.726.108.048.207.189.342.189v.04c.707,0,1.701-.874,2.617-1.497.397-.269.849-.392,1.088-.509.554-.272,1.333-.762,2.261-1.108.772-.288,1.631-.508,2.413-.748.963-.296,1.84-.592,2.434-.663.273-.032.597-.049.946-.049.733,0,1.6.092,2.505.222.804.115,1.646.289,2.466.487.843.204,1.665.464,2.404.736.906.334,1.726.676,2.27,1.079.644.477,1.128,1.075,1.49,1.652.422.672.495,1.397.477,2.103-.031,1.172-.637,2.13-1.869,2.946-.696.461-1.41.927-2.219,1.279-.771.336-1.596.561-2.44.79-.819.223-1.642.47-2.502.584-.848.113-1.706.076-2.568.076ZM31.092,52.781c.551,1.049,2.739,1.203,3.61,1.203.274,0,.518-.14.714-.159.478-.045.717-.244.922-.354.104-.055.234.005.315-.012.071.001.157.113.273.131.177.027.388-.147.545-.147.289,0,.483-.005.571-.197.138-.296-.152-.547-.379-.816-.049-.058.057-.199-.019-.203-1.114-.056-1.116.093-2.232.093s-1.117-.173-2.234-.173c-1.117,0-1.142-.156-2.249-.009-.277.037.037.404.163.643ZM31.84,49.707c.595.006,1.347.106,2.158.235.889.142,1.823.161,2.59.161,0,0,0-.061,0-.061.267,0,.502.098.709.062.251-.043.41-.227.548-.744.151-.564.27-1.718.716-2.024.029-.018.188.019.266-.011.34-.125.706-.321.796-.715.034-.15.137-.376-.114-.638-.113-.117-.233-.088-1.371-.088-.77,0-1.785-.144-2.537-.122-.437.013-.781.013-.937.013-.176,0-.278.23-.356.327-.029.038-.107.075-.137.093-.014.002-1.033.283-2.25.728-.718.263-1.437.752-2.144,1.043-1.078.443-1.98.785-2.098,1.018-.034.068-.2.048-.203.124-.004.091.198.071.232.155.215.501.856.643,1.361.643.565,0,1.23-.045,1.807-.118.391-.05.786-.268.992-.268.053.029-.033.186-.027.186Z"/>
      <path d="M57.24,91.167c-.819,0-1.654-.146-2.437-.391-.764-.239-1.481-.676-2.208-1.071-.71-.386-1.37-.876-2.042-1.34-.68-.469-1.334-.965-1.973-1.439-.082-.06-.196.093-.277.033-.152-.113-.322-.259-.563-.391-.551-.303-1.39-.761-1.51-1.231-.041-.16.117-.365.237-.552.222-.253,2.013-.994,2.333-1.005.222,0,.722-.084,1.353-.07,1.089.024,2.566.164,3.697.164,1.637,0,1.788-.016,1.894-.087.72-.48.03-1.431-.266-1.93-.065-.11.011-.323-.005-.373-.045-.132-.073-.438-.069-.615.006-.261.005-.396-.099-.507-.069-.074-.224-.164-.438-.164-.458,0-1.25.329-2.337.914-.483.259-.921.667-1.142.731-.411.119-.903.047-1.357.095-.437.046-.886.141-1.297.251-.375.1-.846.177-1.306.355-.869.336-1.81.717-2.609.717-.33,0-.595.043-.814-.088-.195-.13-.694-1.034-.722-1.259.055-.857,1.577-1.182,2.731-1.482.436-.113.813-.243,1.092-.357.553-.227,1.052-.679,1.594-.998.558-.328,1.158-.485,1.652-.675.424-.163,1.673-.544,2.945-.849,1.304-.313,2.599-.604,3-.604.91.038.94.536,1.131,1.157.158.511.488.975,1.25,1.047.06.006.108.08.168.08.762,0,1.526-.296,2.21-.728.643-.407,1.252-.96,1.906-.96.225,0,.474.017.69.116.837.382.916,1.215,1.066,1.942.083.404.229.76.421,1.067.27.43.826.554,1.408.762.925.332,1.937.751,2.12,1.981.049.334-.04.624-.166.776-.242.29-.87.379-1.394.397-.249.008-.492-.105-.695-.069-.925.165-1.312,1.109-1.63,1.849-.137.319-.324.576-.467.755-.491.614-1.195,1.336-2.024,1.97-.771.59-1.576,1.215-2.396,1.533-.859.333-1.77.543-2.654.543ZM54.671,86.215c-.333,0-1.233-.107-1.252.637-.003.125-.075.306.108.493.643.66,2.831.93,3.514.93.098,0,.187.005.251-.002.472-.047,1.388-.484,2.276-.84.988-.397,1.834-.789,1.809-1.288-.031-.614-.905-.489-1.367-.489-.166,0-.35-.117-.556-.106-.703.036-1.325.201-1.87.366-.369.111-.701.311-1.032.357-.042.006-.105-.098-.165-.098-.184,0-.418-.085-.68-.106-.333-.026-.704.147-1.034.147ZM61.17,81.566c-.716,0-1.438.292-1.627,1.364-.034.19-.31.22-.172.354.165.161.224.056.454.057.772,0,1.404-.082,1.835-.254.741-.295.631-.716.591-.924-.09-.468-.559-.597-1.081-.597Z"/>
      <path d="M75.403,82.183c-1.081,0-2.004-.313-2.772-1.015-.664-.607-1.093-1.497-1.489-2.6-.284-.791-.566-1.438-.62-2.095-.06-.733-.108-1.463.137-2.206.202-.612.557-1.264.979-1.999.342-.595.901-1.425,1.616-2.264.568-.665,1.285-1.312,1.962-1.971.688-.67,1.447-1.255,2.132-1.771.909-.685,1.761-1.145,2.426-1.257.559-.094,1.089-.248,1.588-.248,1.019,0,1.854.379,2.635.772.798.402,1.556.883,2.127,1.707.476.687.512,1.592.354,2.541-.136.821-.335,1.728-.686,2.539-.384.886-1.039,1.605-1.381,2.245-.027.051.178.161.151.212-.463.868-.944,1.655-1.422,2.381-.529.803-1.209,1.421-1.837,2.064-.632.647-1.314,1.212-2.135,1.715-.616.377-1.187.74-1.783.948-.691.241-1.36.3-1.983.3Z"/>
    </g>
  </g>
</svg>