<?xml version="1.0" encoding="UTF-8"?>
<svg id="b" data-name="Layer 2" xmlns="http://www.w3.org/2000/svg" width="370.151" height="211.247" viewBox="0 0 370.151 211.247">
  <g id="c" data-name="Layer 1">
    <g>
      <rect width="370.151" height="211.247" rx="23.071" ry="23.071" fill="#efeeea"/>
      <g>
        <path id="d" data-name="Text" d="M92.257,84.004c-2.727.187-5.496-.118-8.262-.451-1.165-.14-2.327-.253-3.499-.164-2.842.213-5.924-1.738-6.929-4.317-1.013-2.595-2.102-5.161-3.158-7.738-.101-.242-.221-.566-.48-.537-.146.018-.302.368-.375.594-.755,2.339-1.495,4.683-2.238,7.026-.02.062-.034.125-.044.189-.469,3.17-2.817,4.389-5.485,5.278-.951.316-1.934.096-2.893.115-3.425.068-6.851.083-10.261-.419-1.405-.206-2.822-.295-4.266-.115-1.928.237-5.44-1.889-6.179-3.759-1.712-4.335-3.65-8.581-5.004-13.056-1.295-4.278-2.825-8.493-3.957-12.813-1.543-5.889-3.384-11.704-4.448-17.716-.328-1.849-.904-3.651-.799-5.568.049-.855.145-1.699.505-2.461.61-1.288,1.471-2.111,3.092-2.259,2.444-.221,4.874.076,7.316-.103,1.657-.123,3.383.066,5.016.412,1.227.26,2.454.161,3.666.382,1.123.206,1.831.709,2.235,1.849.456,1.285.802,2.592,1.18,3.896,1.206,4.17,2.447,8.331,3.629,12.506.581,2.055,1.062,4.139,1.601,6.206.042.161.187.385.323.419.246.062.233-.214.282-.375.839-2.793,1.743-5.568,2.496-8.383,1.224-4.567,2.363-9.155,3.501-13.744.263-1.06.86-1.871,1.581-2.626.368-.388.876-.758,1.352-.701,1.312.149,2.54-.373,3.829-.316,3.808.164,7.657-.289,11.408.772.358.101.78-.057,1.162-.01,1.498.184,2.658.735,3.275,2.319.522,1.341.816,2.726,1.222,4.089,1.289,4.348,2.589,8.691,3.808,13.061.521,1.868.77,3.812,1.495,5.63.059.149.066.375.289.353.064-.007.118-.213.157-.333.446-1.356.932-2.699,1.324-4.07,1.515-5.293,2.922-10.611,4.131-15.985.229-1.01.449-2.057.902-2.974.726-1.464,1.613-2.53,3.655-2.587,1.991-.057,3.999-.105,5.995-.196,2.748-.125,5.442.066,8.112.691.187.044.388.032.581.044,2.364.128,3.181.927,3.396,3.269.14,1.52-.253,2.969-.586,4.415-1.094,4.737-2.435,9.41-3.817,14.071-1.935,6.52-3.968,13.009-5.812,19.553-1.265,4.489-2.586,8.954-4.175,13.34-.368,1.018-1.032,1.547-2.074,2.064-2.317,1.155-4.634,1.496-7.132,1.135-.185-.026-.383.06-.643.105l-.003-.007ZM173.14,44.785c-2.52.118-5.038-.01-7.556-.164-3.484-.213-6.982-.187-10.474-.255-1.344-.027-2.65-.044-3.968.498-.932.385-1.304,1.018-1.544,1.826-.358,1.216-.047,1.763,1.228,1.795,2.428.062,4.825.429,7.292.122,2.422-.302,4.908-.105,7.367-.103,1.337,0,2.675.115,4.007.062,3.027-.123,6.028.281,9.044.416,1.212.055,1.342.41,1.584,1.707.26,1.395.586,2.756.552,4.204-.024,1.025-.385,1.9-.765,2.775-.326.751-1.055,1.118-1.834,1.308-1.751.427-3.535.637-5.33.601-5.007-.104-10.011.297-15.024-.047-1.064-.073-2.16-.167-3.244-.187-.448-.007-.883-.122-1.346-.054-1.29.191-1.665.424-1.699,1.182-.047,1.096.479,1.902,1.476,2.209.371.113.761.224,1.141.221,2.206-.007,4.413-.096,6.617-.063,3.079.047,6.132-.354,9.243-.12,2.219.164,4.486.23,6.732.321,1.417.056,2.275.784,2.839,1.92.576,1.157.991,2.37.611,3.717-.412,1.458.176,2.905.12,4.379-.066,1.782-.397,3.535-.407,5.332-.01,1.587-.726,3.155-2.258,4.067-1.775,1.057-3.492,1.964-5.791,1.547-1.543-.279-3.202-.235-4.801-.431-1.31-.16-2.589.142-3.869.301-2.428.307-4.859.324-7.297.331-4.18.013-8.36.11-12.538.044-1.409-.021-2.782-.146-4.207.079-1.464.232-2.954-.184-4.413-.485-.378-.079-.768-.263-1.131-.219-2.885.344-5.769.292-8.654.015-.294-.029-.608.24-.919.26-1.639.101-3.207-.323-3.973-2.099-.728-1.693-1.135-3.444-1.302-5.229-.292-3.138-.355-6.281-.247-9.454.164-4.819.255-9.649.353-14.475.086-4.144-.049-8.292.189-12.434.059-1.021-.146-2.069-.287-3.076-.341-2.405.115-4.747.333-7.096.179-1.937.758-3.835,2.793-4.776.588-.271,1.204-.387,1.863-.355,1.613.079,3.266-.083,4.832.214,2.364.448,4.715.348,7.081.37,2.388.021,4.771-.059,7.149-.255.976-.081,1.939-.206,2.893.098.576.182,1.152.118,1.738.088,2.102-.107,4.2-.226,6.312-.007.875.091,1.784-.138,2.677-.224,1.944-.188,3.887-.181,5.828.047.318.037.635.196.949.188,2.68-.059,5.356-.146,8.034-.218,2.912-.076,5.853-.289,8.503,1.3,1.336.802,2.047,1.799,2.057,3.577.013,2.101.378,4.214.123,6.333-.23,1.912-.405,3.842-.819,5.717-.354,1.602-1.56,2.53-3.209,2.631-1.548.096-3.102.02-4.654.02v.005ZM185.464,74.885c-.118-2.569-.233-5.142-.351-7.711-.015-.323-.05-.649-.034-.974.154-3.15.223-6.308.502-9.446.397-4.496.329-8.99.277-13.489-.027-2.391-.042-4.786.432-7.14.245-1.216-.108-2.43.146-3.644.248-1.185.731-2.292.831-3.535.133-1.638,2.837-3.562,5.117-3.153,3.29.591,6.544.193,9.81-.138.515-.051,1.035-.095,1.552-.08.831.021,1.393.399,1.891,1.133,2.177,3.216,2.849,6.668,1.897,10.432-.432,1.712-.188,3.465-.357,5.193-.324,3.305.088,6.624-.18,9.944-.159,1.969.138,3.974.253,5.962.216,3.796.583,7.586.618,11.384.017,1.829.495,3.697-.108,5.521-.711,2.152-1.479,4.283-3.153,5.911-1.453,1.412-3.297,2.022-5.261,2.197-1.91.169-3.837.145-5.742.434-1.454.221-2.8-.363-4.173-.701-.187-.047-.346-.211-.529-.24-2.663-.395-3.011-2.511-3.312-4.567-.157-1.076-.027-2.194-.027-3.293h-.098ZM280.605,46.452c-.399,2.275-.419,4.973-1.047,7.287-1.341,4.702-4.403,7.833-8.061,10.538,2.27,4.604,5.111,9.615,6.512,14.71,1.196,1.863.711,4.325-1.511,5.093-5.445.029-11.261.664-16.682-.12-2.29.312-5.085.135-7.262-.748-3.676-2.91-3.146-8.748-6.789-11.889-.834-1.437-2.214-1.787-3.2-.402-1.282,2.866.324,5.992-.552,8.959-.286,1.675-1.169,3.481-3.071,3.634-5.995.115-12.568-.417-18.447.437-3.1.848-6.752-.73-7.147-4.173-.218-1.803.079-3.592-.073-5.377-.49-2.756-.633-4.598-.628-7.328.307-11.911-.174-24.165,1.027-36.137.263-3.771,3.646-5.916,7.182-5.181,3.569-.292,7.181-.579,10.775-.589,11.665-.096,23.685-.208,35.116,1.67,8.66,2.052,13.846,10.604,13.87,19.269l-.013.346v.002ZM242.325,45.861c0,.837.003,1.352,0,1.863-.015,1.925.258,2.153,2.199,2.34,1.685.161,3.35-.216,5.009-.091,1.582.12,3.08-.287,4.6-.498,1.491-.206,2.244-1.3,2.609-2.763.333-1.342-.189-2.222-1.128-3.056-.407-.36-.849-.566-1.339-.742-3.606-1.312-7.26-.91-10.9-.233-.599.113-1.214.485-.927,1.397.213.68-.282,1.397-.12,1.782h-.003ZM283.693,69.945c-.037-4.837.112-8.909.451-12.96.529-6.325.281-12.651.208-18.975-.027-2.238-.135-4.511-.409-6.749-.133-1.097.036-2.05.748-2.898.125-.149.262-.297.343-.471,1.128-2.4,3.285-3.173,5.669-3.413,3.582-.362,7.166-.615,10.785-.399,3.219.191,6.453.084,9.682.113,1.805.017,3.621-.084,5.409.103,1.841.191,3.697.177,5.506.115,3.651-.122,7.196.277,10.736,1.071,1.579.355,3.178.545,4.578,1.479.598.397,1.174.8,1.688,1.295.883.843,1.644,1.797,2.614,2.569,1.282,1.02,2.024,2.41,2.483,4.014,1.302,4.545,2.006,7.679,2.037,12.231.022,3.146-.265,6.294-.338,9.441-.062,2.644-.474,5.252-.917,7.831-.449,2.606-1.368,5.08-2.928,7.375-1.084,1.597-2.329,3.043-3.428,4.612-1.081,1.542-2.61,2.513-4.241,3.312-1.826.895-3.545,2.101-5.676,2.248-3.465,1.858-7.313,2.324-11.102,2.925-2.082.331-4.217.338-6.346.297-2.368-.044-4.749-.461-7.114.125-.427.105-.925.093-1.356-.005-3.363-.771-6.794-.716-10.204-.74-1.613-.013-3.04-.53-4.506-1.008-.245-.079-.454-.3-.699-.336-2.479-.38-2.993-2.356-3.189-4.286-.326-3.209-.368-6.45-.49-8.912l.005-.005ZM309.79,54.421c0,.581-.029,1.167.007,1.745.042.646.115,1.29.221,1.928.289,1.74.91,2.243,2.738,2.175.9-.034,1.798-.258,2.69-.226,3.206.112,6.335-.044,9.083-1.988.05-.034.13-.015.189-.04.841-.355,1.23-.909,1.344-1.897.25-2.177-.272-4.244-.672-6.323-.211-1.103-1.018-1.863-2.189-2.233-1.06-.333-2.168-.23-3.21-.522-1.64-.461-3.324-.294-4.979-.348-1.172-.037-2.383-.196-3.584.292-.775.313-1.236.625-1.227,1.464.022,2-.612,3.959-.411,5.972v.003ZM35.382,187.668c-1.896-.059-3.801.114-5.688-.249-.348-.067-.726,0-1.086.033-1.717.167-2.998-.841-2.941-2.52.036-1.136-.14-2.243-.162-3.367-.035-1.803-.094-3.602.106-5.404.092-.832.079-1.681-.091-2.529-.09-.454.104-.957.092-1.438-.021-1.071-.19-2.149-.111-3.21.072-.964.121-1.924.133-2.887.021-1.64.031-3.28.053-4.921.009-.728.008-1.455.057-2.182.045-.68-.047-1.374-.005-2.027.113-1.782.116-3.711,1.919-4.822,1.025-.633,2.172-.995,3.395-1.063,2.969-.167,5.929-.261,8.908.012,1.588.146,3.213.107,4.834-.021,1.584-.124,3.204-.332,4.809.076.908.231,1.831-.158,2.756-.116.559.026,1.109.048,1.668.137,2.105.336,4.2.706,6.154,1.593.94.429,1.822.983,2.732,1.479.346.188.449.559.652.854,1.324,1.92,2.23,4.085,2.611,6.319.357,2.094.807,4.282.211,6.458-.112.414.006.888-.088,1.312-.645,2.899-1.791,5.436-4.469,7.13-1.598,1.011-3.268,1.518-5.082,1.941-2.166.506-4.299.213-6.442.306-1.44.062-2.882.07-4.322.129-.273.011-.552.122-.813.225-.876.343-1.031.57-1.025,1.532.003.36.039.725.1,1.081.24,1.444.044,2.874-.21,4.285-.171.957-.956,1.466-1.89,1.576-2.249.268-4.503.306-6.764.272v.008ZM46.736,166.992c.08,0,.163.009.241,0,1.827-.245,3.655-.486,5.481-.745.275-.038.525-.163.729-.39.878-.974,1.04-2.536.27-3.535-1.018-1.319-2.324-1.775-3.914-1.578-.919.113-1.83.291-2.749.401-1.284.154-2.098.982-2.431,2.253-.211.802-.264,1.468.373,2.07.051.048.049.151.071.228.292.951.965,1.338,1.927,1.296h.002ZM110.653,164.181c-.249,1.419-.261,3.101-.652,4.544-.837,2.933-2.746,4.885-5.027,6.571,1.416,2.871,3.188,5.997,4.061,9.174.746,1.162.443,2.697-.941,3.176-3.396.019-7.022.414-10.403-.075-1.428.194-3.171.084-4.528-.466-2.292-1.815-1.962-5.456-4.233-7.414-.521-.896-1.381-1.115-1.996-.251-.799,1.787.202,3.736-.344,5.587-.179,1.044-.729,2.171-1.916,2.266-3.738.072-7.837-.26-11.504.272-1.932.529-4.211-.456-4.457-2.603-.135-1.124.05-2.24-.045-3.353-.307-1.719-.395-2.867-.392-4.57.19-7.428-.108-15.069.641-22.535.163-2.352,2.273-3.689,4.478-3.23,2.227-.182,4.479-.361,6.721-.367,7.274-.06,14.77-.13,21.898,1.041,5.4,1.28,8.634,6.613,8.649,12.017l-.008.215v.002ZM86.782,163.813c0,.521,0,.842,0,1.162-.009,1.2.161,1.342,1.372,1.458,1.05.101,2.088-.135,3.123-.057.986.075,1.92-.179,2.868-.311.93-.128,1.399-.81,1.627-1.723.208-.837-.118-1.386-.704-1.905-.253-.225-.528-.354-.834-.463-2.249-.818-4.527-.567-6.798-.146-.373.07-.757.303-.578.871.134.424-.176.872-.075,1.112h0ZM145.836,187.635c-5.568.3-11.401-.175-16.973-.249-4.549-.265-9.918-.167-13.461-3.449-.798-.866-1.38-1.887-2.246-2.705-.652-.973-.614-2.313-.73-3.438-.903-4.936.151-10.13-.008-15.145-.165-2.379.14-5.012,1.889-6.796,1.934-1.818,4.287-3.289,6.692-4.376,3.175-.89,6.494-.057,9.748-.356,5.036-.628,9.982.005,15.077.381,2.423.073,4.697,1.192,6.672,2.555,2.499,1.849,3.309,5.052,3.39,8.046,1.172,4.76.626,9.779.341,14.566.099,3.287-2.969,9.799-6.551,10.307-1.113.134-2.641.668-3.619.65l-.219.008-.002.002ZM129.538,168.277c-.073,1.508-.243,3.335.515,4.749.9.908,2.052,1.445,3.322,1.312,3.324-.039,4.886.343,5.584-3.507.638-2.803.7-6.23-.898-8.646-.938-.955-2.566-.812-3.826-.955-.87-.01-1.764-.126-2.623.065-2.403.881-2.037,4.771-2.072,6.807v.178-.002ZM181.41,150.433c.632.174,1.393-.057,2.156-.027.742.028,1.446.158,2.087.533.322.188.666.354,1.018.356.953.008,1.54.633,1.918,1.311.587,1.05.989,2.203.778,3.474-.221,1.32-.138,2.636-.015,3.975.156,1.676.104,3.373.034,5.065-.094,2.202-.379,4.402-.095,6.616.076.59-.01,1.211-.084,1.81-.196,1.559.154,3.126-.202,4.694-.269,1.187-.551,2.281-1.327,3.282-.924,1.189-1.825,2.386-3.198,3.054-1.248.607-2.419,1.389-3.854,1.613-.545.085-1.026.515-1.622.68-1.876.521-3.811.637-5.708.988-1.255.232-2.55-.016-3.79.352-1.489-.583-3.119-.17-4.617-.641-1.354-.425-2.573-1.146-3.772-1.892-.443-.275-.833-.633-1.264-.928-.729-.498-1.196-1.199-1.478-2.003-.492-1.41-.751-2.868-.744-4.373.006-1.327-.127-2.658-.051-3.979.127-2.195.159-4.417,1.555-6.344.354-.487.722-.829,1.221-1.075.663-.325,1.419-.541,2.111-.477,1.298.117,2.574-.243,3.865-.046.562.086,1.125-.021,1.69-.075,1.313-.124,2.146.186,2.449,1.827.211,1.146.31,2.313.435,3.474.054.488.206.939.359,1.397.194.583.607.83,1.184.862.56.031,1.036-.122,1.35-.63.305-.49.529-1.018.514-1.593-.049-1.899.396-3.766.306-5.673-.082-1.757-.03-3.514-.147-5.277-.138-2.069-.123-4.16-.035-6.247.044-1.046.235-1.98.793-2.854.348-.545.835-.878,1.456-.98,1.52-.251,3.05-.376,4.721-.249h.005ZM226.335,163.141c-1.572.073-3.143-.006-4.713-.103-2.172-.133-4.354-.116-6.531-.158-.838-.018-1.652-.028-2.474.31-.581.24-.813.635-.964,1.14-.223.758-.028,1.1.767,1.119,1.514.038,3.009.268,4.547.076,1.511-.188,3.061-.065,4.595-.064.833,0,1.668.072,2.498.039,1.889-.077,3.76.176,5.641.26.755.033.836.255.987,1.063.162.87.365,1.719.344,2.622-.015.64-.239,1.186-.477,1.731-.203.468-.657.697-1.144.814-1.092.267-2.205.397-3.324.375-3.122-.064-6.242.185-9.369-.029-.664-.046-1.348-.104-2.023-.116-.279-.005-.55-.076-.839-.033-.805.119-1.038.265-1.06.736-.029.684.298,1.187.92,1.378.231.07.475.139.711.138,1.377-.005,2.753-.06,4.127-.04,1.921.029,3.824-.22,5.765-.075,1.384.103,2.798.145,4.198.2.884.036,1.419.49,1.771,1.197.359.722.617,1.479.381,2.318-.257.909.109,1.812.074,2.73-.041,1.111-.247,2.205-.253,3.325-.007.989-.453,1.968-1.408,2.537-1.107.659-2.178,1.225-3.611.965-.962-.175-1.997-.147-2.994-.27-.816-.1-1.614.089-2.413.188-1.514.19-3.03.201-4.55.206-2.606.008-5.214.069-7.819.027-.879-.014-1.735-.092-2.623.049-.913.146-1.843-.114-2.752-.303-.235-.049-.479-.163-.705-.136-1.8.214-3.598.182-5.397.009-.184-.018-.379.15-.573.162-1.021.063-2-.201-2.477-1.309-.454-1.057-.708-2.148-.812-3.261-.182-1.957-.222-3.917-.154-5.896.103-3.006.159-6.019.221-9.027.054-2.584-.031-5.171.117-7.753.037-.638-.09-1.291-.179-1.919-.213-1.5.072-2.96.208-4.425.111-1.208.473-2.392,1.741-2.979.367-.17.751-.241,1.162-.222,1.006.049,2.037-.052,3.014.133,1.474.28,2.94.218,4.416.231,1.489.014,2.975-.037,4.458-.159.608-.051,1.209-.129,1.804.061.359.113.719.074,1.084.056,1.311-.067,2.619-.141,3.936-.005.546.057,1.113-.086,1.67-.139,1.213-.118,2.424-.113,3.635.028.198.023.396.123.592.118,1.671-.037,3.34-.092,5.01-.136,1.816-.048,3.649-.181,5.303.81.833.5,1.276,1.123,1.282,2.231.008,1.31.235,2.628.077,3.949-.145,1.192-.253,2.396-.511,3.565-.221.998-.973,1.577-2.002,1.641-.965.06-1.934.012-2.901.012v.003ZM270.592,156.032c-.028,1.283-.17,2.554-.324,3.827-.095.782-.251,1.561-.316,2.335-.153,1.804-1.951,2.85-3.378,2.806-1.668-.053-3.338.084-5.006-.081-.628-.063-1.271.046-1.85.398-.552.335-1.156.584-1.703.927-1.04.648-1.6,1.586-1.534,2.836.031.562.054,1.133.172,1.682.398,1.861,1.755,2.707,3.471,3.075.527.113,1.065.243,1.657.097.659-.164,1.335.165,2.027.169,1.448.011,2.9-.068,4.349.222,1.619.324,2.407,1.13,2.468,2.77.028.801.093,1.603.098,2.403.004.76-.016,1.52-.384,2.229-.146.278-.26.625-.237.928.105,1.346-.561,2.403-1.235,3.452-.72,1.121-1.743,1.714-3.113,1.745-1.729.038-3.458.139-5.186.235-.396.021-.798.099-1.179.215-.402.123-.821.167-1.2.083-1.719-.381-3.445-.097-5.164-.087-1.617.009-3.199-.203-4.794-.38-1.492-.165-2.939-.604-4.33-1.062-2.179-.715-4.364-1.536-6.252-2.923-.592-.436-.962-1.084-1.463-1.604-1.727-1.792-2.089-4.017-2.019-6.351.022-.769-.003-1.531-.064-2.285-.121-1.454.103-2.896.038-4.344-.085-1.927-.176-3.854-.232-5.781-.039-1.324-.043-2.648.179-3.963.061-.356.075-.73.04-1.09-.236-2.389.948-4.205,2.467-5.813.735-.778,1.73-1.258,2.853-1.469,1.984-.375,3.965-.729,5.986-.838.836-.046,1.661.081,2.506.027,1.545-.102,3.099-.056,4.649-.077,1.454-.018,2.909-.039,4.363-.066,1.641-.032,3.284-.161,4.919-.094,2.207.09,4.441.06,6.576.809.238.084.409.181.587.364.538.558.957,1.205,1.385,1.839.27.399.376.873.292,1.387-.079.478-.081.967-.117,1.45v-.002ZM307.462,162.978c.009.098.017.195.024.293.075.994-.356,2.013-1.214,2.519-1.527.9-2.963.805-5.382.784-1.11-.009-.627-.043-1.705-.162-.373-.041-.616-.024-.968.027-.397.227-.761,1.084-.806,1.634-.098,1.226.087,2.478.157,3.718.135,2.367.364,4.732.386,7.099.011,1.141.309,2.306-.067,3.443-.443,1.343-.922,2.671-1.966,3.687-.907.882-3.586,1.262-4.811,1.37-1.19.105-2.392.09-3.581.271-.906.138-3.274-.225-4.131-.438-.114-.029-.216-.133-.33-.149-1.66-.246-1.878-1.566-2.065-2.849-.099-.671-.018-1.368-.018-2.054h-.056c-.074-1.588-.146-3.176-.216-4.764v-1.179c.081-1.789.131-3.581.289-5.364.085-.969.136-1.939.163-2.909.017-.586-.479-1.055-1.065-1.026-.526.026-1.054.045-1.581.051-1.141.011-.776.349-1.914-.076-1.343-.503-2.671-1.043-3.687-2.227-.882-1.027-1.261-2.328-1.37-3.715-.105-1.349-.09-2.708-.271-4.054-.138-1.027.225-1.977.438-2.946.029-.131.133-.244.149-.374.247-1.88,1.566-2.124,2.849-2.338.672-.112,1.368-.021,2.054-.021v-.063c1.585-.081,3.173-.164,4.758-.245.327-.019.861-.017,1.188,0,1.787.091,3.579.146,5.36.326,1.634.163,3.268.209,4.901.217.294-.029.591-.055.886-.048.065.002.109.039.171.048.818-.005,1.636-.014,2.454-.024,1.489-.02,2.984-.029,4.452.306.759.173,1.516-.076,2.272.103.738.174,1.429.517,2.204.587,1.021.095,2.222,2.003,1.967,3.613-.369,2.322-.121,4.619.085,6.925l-.006.006ZM312.34,174.772c.866-.058,1.699.024,2.549.15,2.318.342,4.66.437,7.001.542.589.026,1.014-.168,1.359-.623.392-.516.603-1.066.235-1.662-.312-.508-.81-.786-1.414-.727-1,.1-1.992.301-2.993.364-1.707.106-3.399-.018-5.014-.65-1.957-.768-3.188-2.26-4.057-4.104-1.076-2.286-1.082-4.706-.812-7.135.111-1.004.222-2.009.275-3.018.076-1.44.524-2.775,1.162-4.043.524-1.044,1.302-1.68,2.565-1.951,1.788-.384,3.582-.695,5.393-.785,2.084-.104,4.171-.268,6.266-.104,3.22.253,6.453.092,9.68.389,2.465.227,4.865.695,7.259,1.24.975.222,1.933.535,2.714,1.258,1.962,1.815,2.486,4.146,1.411,6.465-.544,1.176-1.531,1.862-2.636,2.394-2.046.986-4.128.82-6.22.115-1.628-.549-3.299-.682-4.988-.346-1.158.23-1.894,1.76-1.384,2.792.142.287.392.381.695.398.495.031.974-.042,1.424-.239,1.723-.757,3.541-.806,5.36-.635,1.124.105,2.211.479,3.253.924.407.174.815.355,1.216.544,1.618.76,2.846,1.879,3.61,3.567,1.195,2.644,1.193,5.396,1.046,8.19-.104,1.957-.585,3.845-1.204,5.672-.403,1.189-1.085,2.354-2.51,2.714-.433.11-.785.392-1.216.534-1.448.479-2.928.438-4.42.446-2.051.009-4.101.076-6.151.138-.849.024-1.687.124-2.528-.132-.377-.113-.805-.075-1.21-.07-2.144.021-4.29-.051-6.428-.017-1.312.02-2.639.114-3.949.047-4.134-.212-7.301-1.979-9.274-5.759-1-1.916-.728-3.713-.02-5.586.209-.557.579-.819,1.098-1.021.936-.367,1.895-.367,2.855-.28v.003ZM89.422,146.176c-1.377-.189-2.59.409-3.877.451-2.754.093-5.51.696-8.252-.045-.6-.161-1.094.268-1.684.147-1.428-.289-2.436-1.071-3.08-2.373-.719-1.451-1.531-2.856-2.195-4.33-.666-1.479-1.701-2.123-3.34-2.091-3.947.078-7.896.049-11.846.07-.779.005-1.57.081-2.314-.208-1.191-.466-2.021.02-2.607,1.015-1.014,1.719-2.01,3.452-2.967,5.205-.684,1.253-1.078,1.638-2.441,1.381-1.248-.235-2.459-.042-3.646.086-1.906.206-3.867.112-5.715.758-1.205.421-2.43.355-3.641.115-.393-.079-.73-.076-1.123-.03-2.393.275-4.375-1.524-4.746-3.896-.141-.89-.176-1.797.041-2.699.992-4.077,2.139-8.11,3.477-12.087.988-2.931,2.141-5.799,3.088-8.751.6-1.875,1.547-3.689,2.303-5.548,1.137-2.798,2.273-5.598,3.406-8.397,1.426-3.523,3.213-6.865,5.145-10.131.23-.388.48-.782.611-1.209.49-1.613,1.588-2.641,3.088-3.28,1.125-.48,2.248-.985,3.418-1.329.842-.247,1.715-.299,2.648-.24,2.182.143,4.416.159,6.572-.154,2.564-.372,5.127-.498,7.682-.362,2.59.14,5.234,1.601,6.203,4.438.865,2.537,1.777,5.114,3.244,7.438.605.961.854,2.146,1.271,3.227,1.053,2.702,1.873,5.512,3.25,8.063,1.41,2.616,2.766,5.257,3.945,7.974,1.256,2.896,2.408,5.843,3.299,8.885.764,2.602,1.797,5.112,2.705,7.664.539,1.521,1.113,3.019,1.736,4.502.273.649.398,1.349.33,2.066-.305,3.269-1.85,3.747-3.994,3.671l.006.005ZM60.061,119.346c.613.076,1.141-.223,1.691-.38.723-.203,1.779.159,2.117-.591.33-.735-.326-1.56-.562-2.344-.426-1.432-1.078-2.744-1.949-3.95-.375-.52-.809-.596-1.205.013-.139.211-.348.396-.42.627-.41,1.322-1.002,2.543-1.703,3.739-.84,1.432-.471,2.202,1.084,2.704.303.099.629.12.945.18l.002.002ZM220.683,109.37c-.399,2.275-.419,4.973-1.047,7.287-1.341,4.702-4.403,7.833-8.061,10.538,2.27,4.604,5.111,9.615,6.512,14.71,1.196,1.863.711,4.325-1.511,5.093-5.445.029-11.261.664-16.682-.12-2.29.312-5.085.135-7.262-.748-3.676-2.91-3.146-8.748-6.789-11.889-.834-1.437-2.214-1.787-3.2-.402-1.282,2.866.324,5.992-.552,8.959-.286,1.675-1.169,3.481-3.071,3.634-5.995.115-12.568-.417-18.447.437-3.1.848-6.752-.73-7.147-4.173-.218-1.803.079-3.592-.073-5.377-.49-2.756-.633-4.598-.628-7.328.307-11.911-.174-24.165,1.027-36.137.263-3.771,3.646-5.916,7.182-5.181,3.569-.292,7.181-.579,10.775-.589,11.666-.096,23.684-.208,35.116,1.67,8.66,2.052,13.846,10.604,13.87,19.269l-.013.346v.002ZM182.403,108.779c0,.837.003,1.352,0,1.863-.015,1.925.258,2.153,2.199,2.34,1.685.161,3.35-.216,5.009-.091,1.582.12,3.08-.287,4.6-.498,1.491-.206,2.244-1.3,2.609-2.763.333-1.342-.189-2.222-1.128-3.056-.407-.36-.849-.566-1.339-.742-3.606-1.312-7.26-.91-10.9-.233-.599.113-1.214.485-.927,1.397.213.68-.282,1.397-.12,1.782h-.003ZM343.167,107.441c.015.156.027.313.039.471.12,1.594-.571,3.227-1.946,4.038-2.449,1.443-4.752,1.289-8.631,1.258-1.779-.016-1.005-.069-2.733-.261-.598-.065-.988-.039-1.552.045-.638.362-1.221,1.738-1.292,2.618-.157,1.966.14,3.975.252,5.963.216,3.795.584,7.588.618,11.384.018,1.828.495,3.696-.107,5.521-.711,2.153-1.479,4.283-3.153,5.911-1.454,1.415-5.749,2.023-7.713,2.197-1.91.169-3.835.145-5.742.434-1.454.221-5.252-.36-6.625-.701-.184-.046-.346-.213-.529-.24-2.663-.395-3.011-2.511-3.312-4.567-.157-1.076-.027-2.194-.027-3.293h-.091c-.117-2.547-.232-5.092-.346-7.64v-1.89c.131-2.869.211-5.742.464-8.602.138-1.554.218-3.111.263-4.665.026-.939-.771-1.692-1.709-1.646-.844.042-1.689.071-2.535.081-1.829.017-1.246.559-3.07-.123-2.152-.807-4.283-1.672-5.911-3.569-1.414-1.647-2.022-3.734-2.196-5.958-.169-2.162-.145-4.342-.434-6.499-.221-1.648.36-3.171.701-4.725.046-.211.213-.393.24-.602.395-3.013,2.51-3.405,4.567-3.748,1.076-.18,2.194-.032,3.293-.032v-.103c2.542-.13,5.087-.263,7.63-.393.524-.029,1.38-.027,1.904,0,2.866.145,5.74.235,8.597.522,2.62.262,5.239.336,7.86.348.471-.046.946-.088,1.419-.076.105.003.177.062.274.076,1.312-.007,2.624-.021,3.936-.039,2.388-.032,4.786-.047,7.14.49,1.216.277,2.43-.122,3.644.164,1.184.28,2.292.829,3.535.941,1.638.152,3.562,3.212,3.153,5.794-.592,3.725-.194,7.407.137,11.104l-.01.01Z" fill="#1a1a1a"/>
        <path id="e" data-name="Lindsay" d="M98.71,98.433c-.237-.193,1.058-1.295,1.239-1.167.257.182-1.171,1.222-1.239,1.167ZM96.987,99.789c-.168-.03-.601.265-.465.309.172.055.462-.099.465-.309ZM139.84,135.307c-1.38,1.517-2.843,2.46-4.466,3.698-3.695,2.82-5.783,4.323-10.303,5.991-3.422,1.263-4.442,1.063-7.924.797-5.33-.407-9.259-1.434-13.999-3.961-2.812-1.499-5.505-3.48-7.144-6.304-5.285-9.112-7.219-17.963-3.345-28.019,3.051-7.923,13.911-15.568,22.143-17.094,9.081-1.683,18.786,2.681,24.782,9.334,9.164,10.167,9.504,25.392.255,35.558ZM134.177,98.155c.713.775,1.669,1.072,2.482,1.747.889.738,1.923,1.804,2.773,2.63.092.089,1.087,1.366,1.249,1.122.042-.063-.638-1.158-.754-1.317-.522-.707-2.222-2.556-2.899-3.06-.704-.523-1.989-.925-2.852-1.123ZM126.416,92.943c.341.421.991.544,1.5.649-.415-.323-.946-.716-1.5-.649ZM124.357,94.491c.947.69,1.665,1.515,2.532,2.203,2.86,2.27,5.659,3.987,8.739,5.87,1.026.627,2.256,1.657,3.264,2.145.111.054.441.241.522.138.1-.127-.3-.501-.395-.597-1.143-1.148-3.307-2.847-4.63-3.93-3.03-2.483-5.675-3.948-8.945-5.901-.379-.226-2.48-1.591-2.743-1.263-.258.322,1.413,1.157,1.656,1.335ZM137.194,105.57c-.304-.04-2.281-1.571-2.386-1.428-.132.179,1.001.931,1.169,1.077.15.131.192.387.385.538.362.283,1.587.535,2.071.504-.28-.434-.808-.494-1.238-.692ZM119.575,93.712c.382,1.404,1.854,3.377,2.811,4.507,1.862,2.198,6.22,4.776,8.902,5.957.792.349,2.757,1.228,3.487,1.414.184.047,1.409.255.972-.145-.196-.18-1.572-.553-1.862-.925-4.415-3.555-9.004-6.939-13.344-10.573-.263-.221-1.365-1.702-.966-.235ZM116.614,99.723c-.619,1.376-1.178,2.348-2.348,3.335-3.405,2.873-7.298,4.5-11.452,6.018-.382.087-1.624,1.667-1.346,1.877.156.117,3.255-1.008,3.764-1.034,2.775-1.032,5.805-2.019,8.102-4.032,1.937-1.698,3.731-4.955,4.254-7.472.03-.146.107-.535.023-.612-.37-.333-.944,1.803-.996,1.919ZM114.927,96.926c-.898.743-1.884,2.094-2.818,2.971-4.305,4.045-9.067,5.96-14.381,8.331l-1.362,1.177c.705.078,1.107-.56,1.676-.821,4.68-2.146,11.358-3.655,14.718-7.839.983-1.224,1.745-2.564,2.795-3.791.073-.086.364-.356.21-.466-.146-.104-.702.325-.838.437ZM114.823,94.155c-.153-.104-1.661.704-1.913.865-4.87,3.097-9.121,6.074-13.609,9.731-.231.188-1.346.783-1.312,1.158.041.455.976-.333,1.112-.396,3.862-1.816,7.956-3.75,11.289-6.488,1.2-.986,2.099-2.279,3.139-3.411.142-.154,1.546-1.288,1.295-1.458ZM96.247,105.362c3.745-4.094,7.733-6.572,12.349-9.676.548-.369,1.038-.87,1.662-1.233,1.385-.805,2.965-1.247,4.34-2.079l-.332-.317c-1.487.665-3.061,1.08-4.547,1.75-4.795,2.163-9.336,5.474-12.707,9.513-.489.586-1.029,1.355-1.357,2.042-.413.865.233.392.592,0ZM96.465,113.665c-.519,1.279-1.062,4.79-.722,6.087.045.174.111.357.276.155.097-.118.509-2.479.673-2.974.625-1.876,1.579-3.716,2.268-5.574.101-.272.705-.964.289-1.02-1.233-.168-2.399,2.377-2.784,3.325ZM95.121,112.28c.126-.204,1.036-.843.381-.951-.204-.034-1.312.583-1.511.762-1.485,1.335-1.369,6.384-1.264,8.3.037.673.064,2.486.341,2.958.081.139.193.304.307.121.031-.05-.118-.91-.113-1.176.039-2.077.841-8.36,1.86-10.014ZM140.332,120.151c-.438-.502-.847-2.639-1.205-2.887-.351-.244-.622.3-.889.48-.628.422-1.046.419-1.626.685-.282.129-.439.512-.715.706-2.567,1.802-6.036,1.711-8.634.298-.316-.172-1.472-.713-1.606-.89-.216-.285-.226-.458-.126-.797.023-.079.779-1.355.836-1.413.375-.383,2.613-1.53,3.127-1.643.443-.097,2.51-.368,2.928-.37.199-.001,2.138.491,2.331.614.443.283.811,1.087,1.371,1.335.512.226.931.038,1.387-.215.083-.046.075-.202.106-.22.292-.175.987.064.966-.227-.004-.056-.592-.839-.683-.89-.25-.14-.611-.071-.899-.17-1.398-.48-2.914-1.375-4.2-1.824-1.293-.45-2.34-.194-3.56-.122-1.486.087-3.183-.284-3.917,1.433-1.106,2.585-.289,7.186.007,9.972.063.594-.282,1.563.854,1.238.608-.174.841-.277,1.605-.137,2.106.386-.021,3.804-1.238,3.972-.684.095-1.006-.451-1.241-.468-.111-.008-1.578.665-2.085.73-1.02.13-1.573-.249-2.37-.311-.455-.035-1.54.065-2.041.123-.423.049-.631.384-1.151.152-.527-.234-.351-.856-.485-1.295-.08-.262-.29-.432-.354-.737-.181-.872.587-1.77,1.397-2.018,1.119-.342,1.344.195,1.377-1.338.024-1.104.068-2.473-.172-3.54-.229-1.02-.836-2.219-1.04-3.244-.097-.488.028-.866-.029-1.278-.055-.402-.537-2.006-.8-2.232-.435-.375-3.646-.967-4.313-.938-1.331.057-3.365.412-4.671.742-1.643.416-3.675,1.503-5.21,1.807-1.37.272-2.164-.435-.778-1.293.674-.417,2.474-1.047,3.299-1.338,3.182-1.122,6.716-1.765,10.106-1.542,2.211.145,4.064,1.817,4.809,3.847,1.183,3.219,1.18,6.991.818,10.346.27.837-.384,2.569.822,2.766.232.038,1.002-.05,1.178-.186.478-.37-.083-1.695-.153-2.171-.524-3.533-1.438-11.035,1.216-13.845,1.137-1.204,2.961-1.303,4.516-1.244,1.442.055,4.459.702,5.815,1.218.481.183.982.587,1.45.791.173.075.306.118.308-.105,0-.163-1.191-1.711-1.402-2.032-.742-1.129-.941-1.646-1.965-2.639-.391-.379-1.869-1.931-2.087-2.038-.975-.476-2.241-.803-3.223-1.311-1.798-.93-3.524-2.358-5.228-3.455-.443-.39-2.937-3.619-3.175-3.588-.217.028-.569,1.771-.678,2.107-1.811,5.587-3.593,7.937-9.058,10.394-2.76,1.241-5.701,1.638-8.346,2.64-.653.247-1.241.488-1.605,1.105-.934,1.585-1.305,4.179-1.763,5.966-.542,2.115-1.407,4.825-1.486,6.982-.069,1.888.34,3.97-.049,5.815,1.432,3.522,3.256,6.028,6.631,7.838,2.865,1.536,10.01,4.126,13.184,4.125,1.241,0,2.825-.049,4.08-.092,2.821-.098,8.556-2.642,10.716-4.537.248-.217.611-.821.755-.933.275-.214.951-.399,1.333-.657,2.923-1.977,5.296-4.495,7.374-7.345.378-.519,1.032-1.435,1.028-2.067-.018-2.657-.864-6.008-1.474-8.602ZM119.172,126.909c.052-.025.173-.192.16-.276-.533-.083-.448.415-.16.276ZM125.6,127.19c.205.331,1.063-.045.974-.444-.136.008-1.15.161-.974.444ZM128.36,116.959c-.094.088-.227.347-.134.41.092.064,1.893-.255,2.227-.287.31-.03.768.116,1.008-.005.109-.055.382-.803.361-.87-.145-.454-3.18.487-3.462.752ZM143.328,120.814c-.018-.094-.213-.205-.248-.363-.743-3.253-1.457-6.418-2.879-9.447-.433-.922-1.139-1.906-1.54-2.892-.356-.19-3.357-1.065-3.466-.922-.21.275.857.917,1.039,1.097.69.684.777,1.356,1.25,2.083,2.405,3.693,5.378,7.776,5.277,12.319l.436.783c-.013-.35-.142-.729-.128-1.073.013-.307.297-1.393.259-1.586ZM144.688,117.412c-.08-1.294-.459-2.732-.631-3.992-.181-1.324-.115-2.001-.553-3.279-.231-.675-.341-1.665-1.153-1.763-.153-.019-1.283-.041-1.324.011-.108.133,1.247,2.684,1.419,3.121.745,1.894,1.528,4.177,1.872,6.021l.244.759c-.045-.333.138-.711.128-.877ZM113.786,125.142c-.813-.45-1.954-.406-2.826-.129-1.376.437-2.444,1.901-3.337,2.913-.887,1.006-2.802,2.85-2.808,4.239.255.894-.041,2.087.234,2.925.12.367,1.151.995,1.52,1.142.528.211,2.381.578,2.862.429,3.509-1.091,6.56-4.821,6.21-8.594-.135-1.456-.564-2.212-1.854-2.926ZM103.664,121.191c-.539.267-1.801.233-2.139-.345-.35-.597,1.232-.8,1.285-1.242.068-.557-1.842-1.01-.611-1.952.812-.622.913.28,1.47.451.443.136,1.462-.991,1.898-1.278.809-.533,2.836-1.565,3.748-1.793,1.426-.356,4.685-.103,5.978.623,1.622.911,2.1,2.614.603,3.904-2.375,2.046-6.419,2.907-9.353,1.774-.361-.14-1.528-.834-1.636-.852-.657-.108-.85.517-1.242.711ZM111.299,119.776l-3.239.411c.336.482,1.634.37,2.171.25.356-.079.441-.246.618-.306.159-.053.982.137.451-.356ZM105.921,118.586c.225.382,1.662-.157,2.107-.209.811-.095,2.213.123,2.943-.101.076-.023.07-1.145.462-1.494.117-.104.726-.281.385-.557-.097-.078-2.135.271-2.477.314-.028.004-.089.173-.179.206-.314.117-3.334,1.68-3.239,1.841ZM130.344,134.238c.256.915-.756.823-1.208.964-.588.184-.59,1.091-.826,1.479-.481.788-1.403,1.736-2.261,2.201-2.308,1.25-4.612-.086-6.617-1.213-.377-.212-1.601-.457-1.245-1.211.086-.183,1.112-.785,1.322-.811.492-.062,3.482-.34,3.62-.459.302-.262-.265-.782-.349-.958-.073-.152-.077-.517-.099-.535-.22-.181-1.457.888-1.826,1.048-.437.189-.974.237-1.395.408-.71.289-1.864,1.178-2.627.844-.158-.069-.614-.615-.623-.768-.051-.803,1.517-1.16,2.052-1.463.554-.313,1.109-.86,1.632-1.141.448-.241,2.789-1.149,3.209-1.184,1.081-.091.759,1.137,1.437,1.116.905-.029,1.557-1.501,2.623-1.168.842.263.776,1.161,1.092,1.546.372.454,1.756.117,2.089,1.306ZM125.429,136.225c-.604.108-1.053.422-1.511.546-.337.092-1.61-.024-1.569.386.042.414,1.664.393,2.024.31.927-.213,3.264-1.639,1.056-1.243ZM125.383,134.642c.296-.035.676-.104.935-.248.927-.513-.88-.887-.935.248ZM134.894,123.397c-1.287.388-3.429,3.355-3.953,4.612-.571,1.369-.627,2.242.061,3.594,1.111,2.182,3.031,2.244,4.85.784,1.277-1.024,1.895-2.323,2.465-3.818.445-1.166,1.273-3.278.333-4.325-1.025-1.14-2.327-1.279-3.755-.848Z"/>
        <path id="f" data-name="Mark" d="M282.583,114.799c-.221-1.624-.903-4.507-1.371-6.103-.956-3.26-5.356-8.693-7.765-11.228-4.452-4.683-10.924-7.481-17.368-8.287-4.19-.525-6.921.678-10.857,1.4-4.267.783-5.14.197-8.21,3.767-.572.665-.96,1.379-1.462,1.952-1.123,1.281-6.146,5.287-6.057,6.849.009.159.187.313.157.51-.033.21-.893,1.494-1.078,1.933-.913,2.173-1.981,9.071-1.952,11.475.035,3.034,1.832,8.282,3.183,11.036,3.286,6.697,7.763,11.647,14.614,14.83,2.464,1.145,4.998,1.361,7.661,1.549,2.579.182,6.462.147,8.782-1.034,4.656-2.37,10.004-4.298,13.02-8.729,2.529-3.715,5.508-8.36,7.02-12.582.589-1.645.449-3.124.814-4.654.139-.584.724-.822.821-1.172.104-.374.103-1.112.048-1.512ZM274.756,101.013c.229-.029,1.565,1.602,1.129,1.932-.054.041-.871-.828-.956-.946-.11-.153-.603-.932-.173-.986ZM251.338,99.81c-.005-.146-.309-2.292.273-1.777.037.032.197.715.315.926.601,1.07,2.318,2.925,3.49,3.279,1.053.318,2.565.451,3.545.847.485.196,1.515.866.342.856-1.246-.011-2.228.226-3.334.219-1.927-.012-2.984-.697-4.193-2.122-.457-.539-.347-.709-.418-1.353-.048-.436-.007-.505-.021-.876ZM258.071,97.683c1.198-.045,2.079-1.157,3.26-.02.53.511,1.11,2.051,1.399,2.785.2.506.324,1.042-.311.492-1.157-1-1.136-1.794-3.089-1.775-1.565.015-2.981.452-4.603-.202-.505-.204-2.612-2.009-2.132-2.445.068-.061.647.319.819.381,1.252.443,3.294.837,4.656.786ZM253.82,95.019c.073-.061,1.41.019,1.645-.003,2.142-.203,2.497-.783,4.814.246,1.654.735-.573.414-1.026.47-.485.059-1.145.572-1.768.43-.448-.203-3.584-.62-3.693-.78-.01-.015.015-.351.028-.363ZM263.961,102.124c.402.122,1.1.862,1.648,1.099,1.066.464,2.558.167,3.18,1.271.135.238.89,2.139.775,2.235-.194.163-.636-.444-.877-.559-.932-.446-2.139-.236-2.987-.753-.849-.517-1.015-1.284-1.458-2.053-.139-.241-.819-1.052-.816-1.121.006-.17.368-.169.535-.118ZM263.356,97.759c.298.322.626.799.68,1.24.029.232-.157.222-.237.144l-.443-1.384ZM264.221,100.234l.164-.101.461.749-.163.101-.462-.749ZM266.861,101.14c-.269-.07-1.304-.282-1.36-.323-.047-.034-.507-.887-.556-1.004-.279-.678-.289-1.625-.963-2.139-.315-.24-.475.008-.712-.066-.218-.068-.914-1.048-1.347-1.075.361-.563.933.241,1.338.397.301.116.595.089.858.178.747.252,1.744,2.119,2.197,2.788.158.234.939.981.883,1.177-.067.235-.233.094-.339.067ZM259.811,101.453c-.653-.256-1.37-.035-2.128-.462-.102-.057-.37-.077-.151-.267.116-.101,1.957-.216,2.316-.426,2.701.712,2.902,4.043,4.709,5.638,1.343,1.185,2.064.738,3.536,1.196,1.055.328,1.724,1.604,2.193,2.564.754,1.545,1.321,4.134,3.303,4.572,1.238.274,3.722-.749,4.591-.268.108.06.366.374.329.513l-3.046.292c-1.955.004-3.593-.685-4.639-2.386-.466-.759-.631-1.83-1.039-2.637-1.195-2.364-3.23-1.616-5.149-2.663-2.229-1.216-2.84-4.886-4.825-5.664ZM270.418,104.293l.181-.074.302.734-.181.074-.302-.734ZM271.738,110.222c.173-.146.805.537,1.022.663,1.2.697,2.531.423,3.779,1.102.505.275.682.588.005.75-.705.169-2.426.409-3.065.149-.436-.178-2.089-2.37-1.741-2.664ZM278.152,110.616c-.474-.501-1.827-.89-2.511-1.045-1.793-.408-2.474.082-3.35-1.922-.595-1.362-.88-3.705-2.097-4.577-.389-.279-.941-.421-1.343-.676-.156-.099-1.04-.717-.528-.801.44-.072,1.76.143,2.317.188.264.021.999,2.334,1.256,2.793.649,1.157,2.305,2.243,3.508,2.809.807.38,1.857.46,2.438,1.164.241.292,1.353,2.685,1.279,2.941-.206.712-.86-.758-.971-.875ZM261.143,91.566c.883.108,2.101.93,3.061,1.042l1.512,1.041c-.216-.003-.426-.031-.637-.082-.912-.221-3.536-.918-4.139-1.478-.339-.315-.275-.582.203-.524ZM253.339,91.847c1.777-.441,2.187-.664,4.131-.215,1.285.297,1.615,1.115,2.636,1.734,2.632,1.595,5.917,1.097,8.091,2.887.959.79,2.072,2.11,2.375,3.319.091.362.15.734.097,1.109-.598-.243-1.258-.152-1.849-.301-1.278-.322-1.205-1.053-1.833-1.963-.358-.519-1.265-1.533-1.757-1.913-1.045-.806-5.632-2.835-6.922-3.086-1.714-.334-3.134.657-4.802.334-.376-.073-2.458-.922-2.427-1.227.031-.312,1.933-.598,2.259-.679ZM243.673,92.365c.976-.097,1.265.21,2.199-.282.976-.514,1.648-.406,2.543-.685.328-.102.573-.404.929-.51,1.012-.302,2.197.013.555.52-.392.121-.751.104-1.08.198-.223.064-1.439.439-1.514.49-.464.318,1.02.284.226.667-.713-.043-5.533.875-5.734.667-.314-.325,1.594-1.037,1.875-1.065ZM236.897,100.836c.084-.276.149-.622.294-.868.346-.585,2.56-1.621,3.263-1.772.806-.173,1.66.022,2.373-.147.246-.058.463-.289.521-.288.101.002.224.196.349.2.088.003.235-.161.389-.165,1.038-.026,1.627.153,2.629-.383.484-.258,1.895-1.465,2.103-1.935.076-.173.098-.862.308-.838.096.011.457.574.473.74.094.982-1.931,3.853-3.025,3.801-.597-.029-.941-.408-1.36-.536-.866-.265-1.551-.283-2.424-.105-2.149.439-4.081,1.383-4.946,3.532-.164.406-.158.994-.431,1.364-.148.202-.231.225-.36-.01-.2-.363.009-2.031-.157-2.59ZM242.064,100.358c.878-.15,2.291.479,3.26.361.881-.134,1.929.09,2.775-.209.373-.132.778-.697,1.074-.582.189.073.432.879.449,1.102.135,1.681-1.633,3.121-3.232,3.087-1.208-.025-1.509-.921-2.35-1.521-.737-.526-1.701-.815-2.614-.719-.23.024-.881.556-.933.099-.041-.356,1.219-1.557,1.572-1.618ZM239.332,95.002c.223-.041.855.171,1.268.159.853-.024,1.749-.549,2.708-.287.704-.09,2.899-.773,3.489-.53.134.055.199.155.185.305-.031.329-1.65,1.475-2.091,1.553-2.031-.003-4.025-.883-5.984.04-.733.345-1.403,1.091-2.169,1.326-.122.037-.314.165-.299-.09.012-.19,2.63-2.429,2.893-2.477ZM235.33,105.06c-.025-.042.168-.928.202-.964.042-.043.961.638.988.692.426.857-1.142.354-1.191.272ZM233.718,99.89c.229-.239.59-.37.857-.595.164-.139.871-1.034,1.046-.839.053.058-.731,1.142-.755,1.38-.344-.113-1.292.866-1.496.645-.024-.025.267-.507.348-.591ZM233.117,102.123c.132-.087.943-.769.984-.846.119-.221.097-1.167.555-.696.48.494-.329,2.619-.87,2.996-.451.314-1.881.104-2.217-.199-.518-.468,1.221-1.042,1.548-1.256ZM229.49,110.145c.065-.354.048-.725.128-1.051.154-.634.875-2.855,1.463-3.089.579-.231,1.727.502,2.343.621,1.027.198,2.96.342,3.911-.076.235-.103,1.486-.96,1.611-1.109.231-.276.253-.936.688-1.263.107-.081,2.289-.897,2.421-.902.971-.038,1.551.968,2.305,1.434,1.651,1.02,4.116.927,5.471-.559.243-.266.622-1.154.713-1.171.394-.075,1.033.885,1.323,1.139,1.246,1.092,2.838,1.418,4.476,1.415,1.307-.002,2.507-.785,3.838-.421.476.13.68.883.949,1.238,1.932,2.552,3.208,2.544,6.014,3.403,1.125.345,1.404,1.841,1.853,2.74.4.8,1.482,1.6-.128,1.017-3.555-1.286-5.937-2.862-10.016-2.485-3,.277-4.571,1.239-5.765,4.039-.54,1.267-1.047,2.651-1.553,3.918-.664,1.661-.659,2.404-.971,4.068-.215,1.146-.641,2.256-.854,3.404-.188.323-2.039.507-2.428.422-.354-.078-1.077-.472-1.125-.87-.096-.796.11-1.369.169-2.065.285-3.399.41-6.913.337-10.289-.016-.742.353-1.669-.437-2.241-.374-.271-.627-.178-.955-.324-.326-.145-.735-.599-1.074-.79-3.769-2.122-11.14-2.317-14.498.626-.747.654-.246-.574-.208-.78ZM252.892,134.022c.371.148.976.334,1.367.43.976.238,1.516-.184,2.033.998.546,1.251.053.608-.344.532-.76-.147-1.773,1.14-2.131,1.015-.202-.071-1.577-2.238-1.894-2.602-.523-.6-1.231-.986-1.768-1.563-.073-.078-.364-.325-.221-.435.213-.164,2.461,1.427,2.958,1.626ZM251.726,131.497c.01-.119,1.072-.398,1.205-.646.837-.633,2.946,1.066,2.321,1.859-.103.131-.211.096-.349.068-.556-.114-1.424-.595-2.008-.801-.256-.09-1.197-.154-1.169-.48ZM252.078,137.725c-.024.019-.564-.161-.582-.185-.039-.053-.013-.623.102-.712.066.146.602.799.48.897ZM251.055,136.719c-.051.166-.259.145-.403.128-.801-.093-2.135-.626-3.029-.846-.765-.188-1.634-.414-2.409-.557-.31-.057-1.734-.133-1.889-.27-.027-.023.132-.548.076-.705.829-.295,2.229-1.613,3.073-1.469.519.088,2.492,1.314,2.945,1.707.242.21,1.687,1.847,1.638,2.013ZM250.623,139.018c-.366.296-.867.258-1.302.201-.245-.032-2.373-.711-2.453-.813-.074-.094.082-.292.231-.327.565-.134.723.218,1.066.303.814.201,1.703.219,2.457.636ZM248.944,130.964c-.091.074-1.802-.705-2.209-.79-.41-.085-2.104-.028-.98-.623.507-.269,1.344-.558,1.898-.383.476.151,1.536,1.595,1.291,1.796ZM234.346,132.359c-.162.148-.312-.23-.363-.315-.297-.484-.642-.928-.916-1.379-.107-.176-.207-.272-.136-.508.239.344,1.01.922,1.182,1.209.065.11.272.957.234.993ZM233.223,129.566c.624-.511.819-1.008.754-1.833-.052-.664-.813-1.733-1.147-.832-.072.195-.478,1.357-.481,1.433-.01.26.697,1.161.497,1.325-.328.27-.92-1.097-.951-1.305-.04-.275.2-.33.241-.537.134-.657-.993-1.884-1.251-2.565-.46-1.209-.713-2.773-1.136-4.031-.315-.939-1.006-2.032-1.172-2.978-.129-.736-.159-4.085.074-4.675.125-.318.658-.324.958-.475.9-.455,1.069-.704,1.739-1.294.814-.716,1.071-.954,2.179-1.177,2.028-.408,8.015-.557,9.505,1.167.378.203.739.434,1.06.7-.095-.182-.155-.32-.128-.343.158-.132,1.135,1.202,1.179,1.325.069.194.044.382.018.577.037.126.073.253.093.39.115.786-.029,1.56-.126,2.339-.087.693-.163,1.388-.231,2.083-.09,1.571-.341,3.159-.434,4.628-.049.11-.108.218-.218.278-.418.228-1.732.266-2.199.62-.622.472-.828,1.621-.419,2.296.263.434.632.235,1.036.369.339.112.821.4,1.103.436.21.027,1.725-.462,1.518.173-.11.335-2.2.889-2.356.301-.008-.031.665-.246.209-.407-.306-.108-.661.104-.967.039-.263-.056-.46-.373-.832-.414-.211-.023-1.347.076-1.579.126-1.252.269-2.715,2.621-4.159,2.466-.289-.031-.544-.185-.836-.205-.445-.03-1.042.164-1.54.001ZM244.065,126.025c-.23.264-1.46-.226-1.058-.575.18-.157,1.356.232,1.058.575ZM242.731,130.401c-.494.132-1.714.346-2.174.255-.217-.043-1.718-.711-1.707-.816.005-.047.618-.552.723-.616.64-.395,1.349-.346,2.07-.172.504.121,2.172,1.059,1.088,1.349ZM236.052,134.827c-.162-.159-1.205-1.418-1.043-1.554.132-.11.33.203.407.278.342.335.901.992,1.176,1.384.603.857-.201.224-.54-.108ZM238.179,136.959l-.824-.766.15-.161.824.766-.149.161ZM239.639,136.716c-.206.17-.687-.61-.936-.619-.945-.968-1.767-2.07-2.692-3.052-.157-.167-1.085-.729-.78-.982.299-.249,1.731.738,2,.967.726.62,1.714,2.164,2.17,3.038.065.125.343.561.239.648ZM239.691,133.096c-.149-.198-.618-.76-.781-.926-.221-.226-.518-.411-.825-.492.487-.62,1.02.355,1.45.529,1.307.527,2.194-.153,3.314-.333.484-.078,1.245-.175,1.738-.227,1.096-.117-.209.65-.599.767-.446.133-.853-.026-1.275.103-.559.17-1.911,1.595-2.306,1.566-.394-.029-.528-.737-.715-.986ZM241.414,134.528c-.069-.087.062-.424.223-.471.437-.126-.013.738-.223.471ZM253.668,143.017c-.721-.135-1.484-.233-2.173-.367-.26-.05-.827-.401-1.22-.495-.443-.106-2.538-.639-2.761-.381-.378.438,1.337.634,1.598.746-.093.304-.949.088-1.165.024-.268-.079-.318-.315-.487-.381-.282-.11-.663-.045-1.012-.161-.993-.331-1.904-.893-2.829-1.343-.148-.072-.467-.08-.484-.099-.133-.145.316-.335.224-.473-.597-.682-3.358-1.828-2.158-2.937.57-.527.257.224.385.582.179.501,2.364,2.305,2.912,2.635,2.08,1.255,4.292,1.066,6.503.431.476-.137,1.681-1.133,1.942-1.032.137.053.604,1.291.81,1.591.204.297,1.468,1.474,1.461,1.595-.015.249-1.316.108-1.544.066ZM260.379,141.68c-1.795.542-4.129.238-5.258-1.374-.208-.296-.623-.866.032-.712.272.064.75.41,1.123.524.926.284,2.031.522,2.988.752.294.071,2.691.334,1.114.81ZM261.664,139.853c-.616.059-.619-.126-.97-.193-.664-.127-5.036-1.069-5.094-1.467-.069-.473,1.329-.194,1.634-.139.739.135,3.994.983,4.471,1.311.425.292.593.427-.041.488ZM277.576,125.574c-1.946,4.054-4.856,7.501-7.491,11.093l-4.38,2.603c-.228.087-.379-.003-.577-.09-.661-.287-1.521-1.246-2.31-1.673-1.498-.81-4.627-1.667-5.191-3.422-.168-.524-.076-.969-.159-1.454-.035-.206-.394-1.463-.462-1.595-.186-.361-1.457-1.37-1.899-1.508-1.944-.606-2.347.188-3.958.358-.856.09-.918-.632-1.468-1.196-.136-.139-.947-.54-.733-.795.11-.132,1.154-.058,1.384.014.406.129.503.527.775.703.738.475,2.198.353,2.638-.484.391-.744.22-2.203-.586-2.624-1.125-.588-1.524.492-1.155-1.828.302-1.898,1.61-6.05,2.484-7.765.363-.714,1.754-2.322,2.512-2.521.369-.097,1.984-.16,2.399-.128,1.825.14,4.636.242,6.306.78,3.071.99,7.035,2.548,10.263,2.293.719-.057,1.476-.571,2.084.042.999,1.006.657,1.705.844,2.804.054.319.47.603.506.932.128,1.175-1.263,4.287-1.826,5.46ZM252.115,126.679c.159-.148.754.606.549.78-.286.242-.726-.615-.549-.78ZM279.554,108.857c-.181-.278-.466-1-.647-1.211-.305-.355-1.648-1.646-2.018-1.862-1.316-.766-2.107-.017-3.256-1.547-1.125-1.499-.77-3.548-1.495-5.203-.272-.621-.882-.933-.835-1.617.259.363.698.455.987.693.945.779.683,3.197,1.446,4.222.132.177,1.466,1.275,1.687,1.405.403.237,1.306.395,1.565.713.196.241.499.959.695,1.224.703.95,1.597,1.25,2.047,2.464.167.452.378,1.568-.176.718ZM280.287,116.806c-.341.049-.199-.128-.28-.268-.065-.112-.344-.571-.26-.634.4-.298.773.51.54.902ZM268.011,120.733c.504-.656.968-.602.364-1.691-.885-1.596-4.008-3.669-5.837-3.872-2.14-.238-4.631,0-5.94,1.888-.997,1.437-.344,1.372.4,2.344.46.601.77,1.427,1.303,2.072,2.182,2.636,6.117,3.098,8.608.635.447-.442.729-.891,1.102-1.376ZM262.895,117.117c-.387-.016-.774-.073-1.159-.095.225-.829,1.061.119,1.594.008.011.215-.286.092-.435.086ZM265.014,120.947c-.349.187-1.386.72-1.498.059-.042-.251.138-.459.164-.696.081-.731-.407-.858.816-.695,1.336.178,2.043.516.518,1.331ZM265.34,135.704c-1.237-.478-.293-2.618,1.099-2.069,1.149.453.495,2.685-1.099,2.069ZM261.909,135.203c-2.06.121-1.512-2.756.275-2.037.602.242.854,1.971-.275,2.037ZM269.96,135.985c-.515,1.446-2.641.6-2.202-.179.036-.064,1.015-.972,1.08-1.007.236-.124.576-.145.825-.047.443.175.432.853.297,1.233ZM259.529,131.333c.474,1.305-1.893,1.377-2.028.358-.111-.831.4-1.329,1.21-1.139.202.047.753.603.818.782ZM268.836,132.278c-.344-.896.853-1.021,1.46-.786,1.462.565-.532,3.198-1.46.786ZM267.094,130.182c-.711-.874.088-1.887.929-1.414.099.056.622.696.647.811.237,1.086-.866,1.474-1.576.603ZM273.447,130.468c-1.357.289-2.219-2.449-.47-1.823.655.234,1.471,1.609.47,1.823ZM263.801,132.358c-.817-.745-.548-1.796.647-1.462,1.42.397.626,2.622-.647,1.462ZM266.69,137.225c.509.976-1.236,1.844-1.643.661-.382-1.108,1.21-1.493,1.643-.661ZM237.976,120.398c.608-.174,2.945-1.199,3.47-1.529.285-.179.955-.734,1.048-1.038.105-.34.044-.715.121-1.06.025-.109.057-.204.091-.295.028-.221.055-.442.083-.663.004-.033.025-.322.042-.571-.025-.061-.049-.121-.086-.19-.225-.416-1.324-1.418-1.746-1.696-.526-.347-2.079-1.142-2.653-1.265-1.513-.323-5.565.291-6.65,1.452-.177.19-.747,1.084-.815,1.312-.304,1.024.422,1.243.927,1.886,1.689,2.144,2.882,4.593,6.166,3.655ZM239.229,114.182c.154.067.699.393.992.691-1.632-.393-3.271-.75-4.917-1.073,1.293-.29,2.781-.115,3.925.381ZM237.203,116.639c.43,0,.86-.03,1.29-.013.494.02.965.106,1.417.31.156.07.249.271.249.434,0,.185-.099.334-.249.434-.329.217-.684.394-1.059.516-.343.111-.701.168-1.058.219-.214.031-.458-.015-.567-.231-.134-.265-.287-.527-.373-.812-.09-.092-.146-.218-.152-.354-.012-.272.24-.502.502-.502ZM234.354,126.95c-.164-.572.487-.924,1.013-.863.396.046,1.184.282,1.332.695.54,1.503-1.911,1.675-2.345.168ZM232.149,125.776c-1.089-.323-.742-2.142.567-1.626,1.04.41.121,1.83-.567,1.626Z" fill="#1a1a1a"/>
      </g>
    </g>
  </g>
</svg>