<?xml version="1.0" encoding="UTF-8"?>
<svg id="b" data-name="Layer 2" xmlns="http://www.w3.org/2000/svg" width="323.396" height="164.428" viewBox="0 0 323.396 164.428">
  <g id="c" data-name="Layer 1">
    <g id="d" data-name="Logo">
      <g id="e" data-name="Text">
        <g>
          <path d="M68.289,60.003c-2.727.187-5.496-.118-8.262-.451-1.165-.14-2.327-.253-3.499-.164-2.842.213-5.924-1.738-6.929-4.317-1.013-2.595-2.102-5.161-3.158-7.738-.101-.242-.221-.566-.48-.537-.146.018-.302.368-.375.594-.755,2.339-1.495,4.683-2.238,7.026-.02.062-.034.125-.044.189-.469,3.17-2.817,4.389-5.485,5.278-.951.316-1.934.096-2.893.115-3.425.068-6.851.083-10.261-.419-1.405-.206-2.822-.295-4.266-.115-1.928.237-5.44-1.889-6.179-3.759-1.712-4.335-3.65-8.581-5.004-13.056-1.295-4.278-2.825-8.493-3.957-12.813C3.717,23.948,1.876,18.132.812,12.121.483,10.272-.093,8.469.013,6.552c.049-.855.145-1.699.505-2.461.61-1.288,1.471-2.111,3.092-2.259,2.444-.221,4.874.076,7.316-.103,1.657-.123,3.383.066,5.016.412,1.227.26,2.454.161,3.666.382,1.123.206,1.831.709,2.235,1.849.456,1.285.802,2.592,1.18,3.896,1.206,4.17,2.447,8.331,3.629,12.506.581,2.055,1.062,4.139,1.601,6.206.042.161.187.385.323.419.246.062.233-.214.282-.375.839-2.793,1.743-5.568,2.496-8.383,1.224-4.567,2.363-9.155,3.501-13.744.263-1.06.86-1.871,1.581-2.626.368-.388.876-.758,1.352-.701,1.312.149,2.54-.373,3.829-.316,3.808.164,7.657-.289,11.408.772.358.101.78-.057,1.162-.01,1.498.184,2.658.735,3.275,2.319.522,1.341.816,2.726,1.222,4.089,1.289,4.348,2.589,8.691,3.808,13.061.521,1.868.77,3.812,1.495,5.63.059.149.066.375.289.353.064-.007.118-.213.157-.333.446-1.356.932-2.699,1.324-4.07,1.515-5.293,2.922-10.611,4.131-15.985.229-1.01.449-2.057.902-2.974.726-1.464,1.613-2.53,3.655-2.587,1.991-.057,3.999-.105,5.995-.196,2.748-.125,5.442.066,8.112.691.187.044.388.032.581.044,2.364.128,3.181.927,3.396,3.269.14,1.52-.253,2.969-.586,4.415-1.094,4.737-2.435,9.41-3.817,14.071-1.935,6.52-3.968,13.009-5.812,19.553-1.265,4.489-2.586,8.954-4.175,13.34-.368,1.018-1.032,1.547-2.074,2.064-2.317,1.155-4.634,1.496-7.132,1.135-.185-.026-.383.06-.643.105l-.003-.007Z" fill="#1a1a1a"/>
          <path d="M149.172,20.785c-2.52.118-5.038-.01-7.556-.164-3.484-.213-6.982-.187-10.474-.255-1.344-.027-2.65-.044-3.968.498-.932.385-1.304,1.018-1.544,1.826-.358,1.216-.047,1.763,1.228,1.795,2.428.062,4.825.429,7.292.122,2.422-.302,4.908-.105,7.367-.103,1.337,0,2.675.115,4.007.062,3.027-.123,6.028.281,9.044.416,1.212.055,1.342.41,1.584,1.707.26,1.395.586,2.756.552,4.204-.024,1.025-.385,1.9-.765,2.775-.326.751-1.055,1.118-1.834,1.308-1.751.427-3.535.637-5.33.601-5.007-.104-10.011.297-15.024-.047-1.064-.073-2.16-.167-3.244-.187-.448-.007-.883-.122-1.346-.054-1.29.191-1.665.424-1.699,1.182-.047,1.096.479,1.902,1.476,2.209.371.113.761.224,1.141.221,2.206-.007,4.413-.096,6.617-.063,3.079.047,6.132-.354,9.243-.12,2.219.164,4.486.23,6.732.321,1.417.056,2.275.784,2.839,1.92.576,1.157.991,2.37.611,3.717-.412,1.458.176,2.905.12,4.379-.066,1.782-.397,3.535-.407,5.332-.01,1.587-.726,3.155-2.258,4.067-1.775,1.057-3.492,1.964-5.791,1.547-1.543-.279-3.202-.235-4.801-.431-1.31-.16-2.589.142-3.869.301-2.428.307-4.859.324-7.297.331-4.18.013-8.36.11-12.538.044-1.409-.021-2.782-.146-4.207.079-1.464.232-2.954-.184-4.413-.485-.378-.079-.768-.263-1.131-.219-2.885.344-5.769.292-8.654.015-.294-.029-.608.24-.919.26-1.639.101-3.207-.323-3.973-2.099-.728-1.693-1.135-3.444-1.302-5.229-.292-3.138-.355-6.281-.247-9.454.164-4.819.255-9.649.353-14.475.086-4.144-.049-8.292.189-12.434.059-1.021-.146-2.069-.287-3.076-.341-2.405.115-4.747.333-7.096.179-1.937.758-3.835,2.793-4.776.588-.271,1.204-.387,1.863-.355,1.613.079,3.266-.083,4.832.214,2.364.448,4.715.348,7.081.37,2.388.021,4.771-.059,7.149-.255.976-.081,1.939-.206,2.893.098.576.182,1.152.118,1.738.088,2.102-.107,4.2-.226,6.312-.007.875.091,1.784-.138,2.677-.224,1.944-.188,3.887-.181,5.828.047.318.037.635.196.949.188,2.68-.059,5.356-.146,8.034-.218,2.912-.076,5.853-.289,8.503,1.3,1.336.802,2.047,1.799,2.057,3.577.013,2.101.378,4.214.123,6.333-.23,1.912-.405,3.842-.819,5.717-.354,1.602-1.56,2.53-3.209,2.631-1.548.096-3.102.02-4.654.02v.005Z" fill="#1a1a1a"/>
          <path d="M161.496,50.885c-.118-2.569-.233-5.142-.351-7.711-.015-.323-.05-.649-.034-.974.154-3.15.223-6.308.502-9.446.397-4.496.329-8.99.277-13.489-.027-2.391-.042-4.786.432-7.14.245-1.216-.108-2.43.146-3.644.248-1.185.731-2.292.831-3.535.133-1.638,2.837-3.562,5.117-3.153,3.29.591,6.544.193,9.81-.138.515-.051,1.035-.095,1.552-.08.831.021,1.393.399,1.891,1.133,2.177,3.216,2.849,6.668,1.897,10.432-.432,1.712-.188,3.465-.357,5.193-.324,3.305.088,6.624-.18,9.944-.159,1.969.138,3.974.253,5.962.216,3.796.583,7.586.618,11.384.017,1.829.495,3.697-.108,5.521-.711,2.152-1.479,4.283-3.153,5.911-1.453,1.412-3.297,2.022-5.261,2.197-1.91.169-3.837.145-5.742.434-1.454.221-2.8-.363-4.173-.701-.187-.047-.346-.211-.529-.24-2.663-.395-3.011-2.511-3.312-4.567-.157-1.076-.027-2.194-.027-3.293h-.098Z" fill="#1a1a1a"/>
          <path d="M256.637,22.452c-.399,2.275-.419,4.973-1.047,7.287-1.341,4.702-4.403,7.833-8.061,10.538,2.27,4.604,5.111,9.615,6.512,14.71,1.196,1.863.711,4.325-1.511,5.093-5.445.029-11.261.664-16.682-.12-2.29.312-5.085.135-7.262-.748-3.676-2.91-3.146-8.748-6.789-11.889-.834-1.437-2.214-1.787-3.2-.402-1.282,2.866.324,5.992-.552,8.959-.286,1.675-1.169,3.481-3.071,3.634-5.995.115-12.568-.417-18.447.437-3.1.848-6.752-.73-7.147-4.173-.218-1.803.079-3.592-.073-5.377-.49-2.756-.633-4.598-.628-7.328.307-11.911-.174-24.165,1.027-36.137.263-3.771,3.646-5.916,7.182-5.181,3.569-.292,7.181-.579,10.775-.589,11.665-.096,23.685-.208,35.116,1.67,8.66,2.052,13.846,10.604,13.87,19.269l-.013.346v.002ZM218.357,21.861c0,.837.003,1.352,0,1.863-.015,1.925.258,2.153,2.199,2.34,1.685.161,3.35-.216,5.009-.091,1.582.12,3.08-.287,4.6-.498,1.491-.206,2.244-1.3,2.609-2.763.333-1.342-.189-2.222-1.128-3.056-.407-.36-.849-.566-1.339-.742-3.606-1.312-7.26-.91-10.9-.233-.599.113-1.214.485-.927,1.397.213.68-.282,1.397-.12,1.782h-.003Z" fill="#1a1a1a"/>
          <path d="M259.726,45.945c-.037-4.837.112-8.909.451-12.96.529-6.325.281-12.651.208-18.975-.027-2.238-.135-4.511-.409-6.749-.133-1.097.036-2.05.748-2.898.125-.149.262-.297.343-.471,1.128-2.4,3.285-3.173,5.669-3.413,3.582-.362,7.166-.615,10.785-.399,3.219.191,6.453.084,9.682.113,1.805.017,3.621-.084,5.409.103,1.841.191,3.697.177,5.506.115,3.651-.122,7.196.277,10.736,1.071,1.579.355,3.178.545,4.578,1.479.598.397,1.174.8,1.688,1.295.883.843,1.644,1.797,2.614,2.569,1.282,1.02,2.024,2.41,2.483,4.014,1.302,4.545,2.006,7.679,2.037,12.231.022,3.146-.265,6.294-.338,9.441-.062,2.644-.474,5.252-.917,7.831-.449,2.606-1.368,5.08-2.928,7.375-1.084,1.597-2.329,3.043-3.428,4.612-1.081,1.542-2.61,2.513-4.241,3.312-1.826.895-3.545,2.101-5.676,2.248-3.465,1.858-7.313,2.324-11.102,2.925-2.082.331-4.217.338-6.346.297-2.368-.044-4.749-.461-7.114.125-.427.105-.925.093-1.356-.005-3.363-.771-6.794-.716-10.204-.74-1.613-.013-3.04-.53-4.506-1.008-.245-.079-.454-.3-.699-.336-2.479-.38-2.993-2.356-3.189-4.286-.326-3.209-.368-6.45-.49-8.912l.005-.005ZM285.822,30.42c0,.581-.029,1.167.007,1.745.042.646.115,1.29.221,1.928.289,1.74.91,2.243,2.738,2.175.9-.034,1.798-.258,2.69-.226,3.206.112,6.335-.044,9.083-1.988.05-.034.13-.015.189-.04.841-.355,1.23-.909,1.344-1.897.25-2.177-.272-4.244-.672-6.323-.211-1.103-1.018-1.863-2.189-2.233-1.06-.333-2.168-.23-3.21-.522-1.64-.461-3.324-.294-4.979-.348-1.172-.037-2.383-.196-3.584.292-.775.313-1.236.625-1.227,1.464.022,2-.612,3.959-.411,5.972v.003Z" fill="#1a1a1a"/>
        </g>
        <g>
          <path d="M11.414,163.668c-1.896-.059-3.801.114-5.688-.249-.348-.067-.726,0-1.086.033-1.717.167-2.998-.841-2.941-2.52.036-1.136-.14-2.243-.162-3.367-.035-1.803-.094-3.602.106-5.404.092-.832.079-1.681-.091-2.529-.09-.454.104-.957.092-1.438-.021-1.071-.19-2.149-.111-3.21.072-.964.121-1.924.133-2.887.021-1.64.031-3.28.053-4.921.009-.728.008-1.455.057-2.182.045-.68-.047-1.374-.005-2.027.113-1.782.116-3.711,1.919-4.822,1.025-.633,2.172-.995,3.395-1.063,2.969-.167,5.929-.261,8.908.012,1.588.146,3.213.107,4.834-.021,1.584-.124,3.204-.332,4.809.076.908.231,1.831-.158,2.756-.116.559.026,1.109.048,1.668.137,2.105.336,4.2.706,6.154,1.593.94.429,1.822.983,2.732,1.479.346.188.449.559.652.854,1.324,1.92,2.23,4.085,2.611,6.319.357,2.094.807,4.282.211,6.458-.112.414.006.888-.088,1.312-.645,2.899-1.791,5.436-4.469,7.13-1.598,1.011-3.268,1.518-5.082,1.941-2.166.506-4.299.213-6.442.306-1.44.062-2.882.07-4.322.129-.273.011-.552.122-.813.225-.876.343-1.031.57-1.025,1.532.003.36.039.725.1,1.081.24,1.444.044,2.874-.21,4.285-.171.957-.956,1.466-1.89,1.576-2.249.268-4.503.306-6.764.272v.008ZM22.769,142.992c.08,0,.163.009.241,0,1.827-.245,3.655-.486,5.481-.745.275-.038.525-.163.729-.39.878-.974,1.04-2.536.27-3.535-1.018-1.319-2.324-1.775-3.914-1.578-.919.113-1.83.291-2.749.401-1.284.154-2.098.982-2.431,2.253-.211.802-.264,1.468.373,2.07.051.048.049.151.071.228.292.951.965,1.338,1.927,1.296h.002Z" fill="#1a1a1a"/>
          <path d="M86.686,140.181c-.249,1.419-.261,3.101-.652,4.544-.837,2.933-2.746,4.885-5.027,6.571,1.416,2.871,3.188,5.997,4.061,9.174.746,1.162.443,2.697-.941,3.176-3.396.019-7.022.414-10.403-.075-1.428.194-3.171.084-4.528-.466-2.292-1.815-1.962-5.456-4.233-7.414-.521-.896-1.381-1.115-1.996-.251-.799,1.787.202,3.736-.344,5.587-.179,1.044-.729,2.171-1.916,2.266-3.738.072-7.837-.26-11.504.272-1.932.529-4.211-.456-4.457-2.603-.135-1.124.05-2.24-.045-3.353-.307-1.719-.395-2.867-.392-4.57.19-7.428-.108-15.069.641-22.535.163-2.352,2.273-3.689,4.478-3.23,2.227-.182,4.479-.361,6.721-.367,7.274-.06,14.77-.13,21.898,1.041,5.4,1.28,8.634,6.613,8.649,12.017l-.008.215v.002ZM62.814,139.813c0,.521,0,.842,0,1.162-.009,1.2.161,1.342,1.372,1.458,1.05.101,2.088-.135,3.123-.057.986.075,1.92-.179,2.868-.311.93-.128,1.399-.81,1.627-1.723.208-.837-.118-1.386-.704-1.905-.253-.225-.528-.354-.834-.463-2.249-.818-4.527-.567-6.798-.146-.373.07-.757.303-.578.871.134.424-.176.872-.075,1.112h0Z" fill="#1a1a1a"/>
          <path d="M121.868,163.635c-5.568.3-11.401-.175-16.973-.249-4.549-.265-9.918-.167-13.461-3.449-.798-.866-1.38-1.887-2.246-2.705-.652-.973-.614-2.313-.73-3.438-.903-4.936.151-10.13-.008-15.145-.165-2.379.14-5.012,1.889-6.796,1.934-1.818,4.287-3.289,6.692-4.376,3.175-.89,6.494-.057,9.748-.356,5.036-.628,9.982.005,15.077.381,2.423.073,4.697,1.192,6.672,2.555,2.499,1.849,3.309,5.052,3.39,8.046,1.172,4.76.626,9.779.341,14.566.099,3.287-2.969,9.799-6.551,10.307-1.113.134-2.641.668-3.619.65l-.219.008-.002.002ZM105.57,144.277c-.073,1.508-.243,3.335.515,4.749.9.908,2.052,1.445,3.322,1.312,3.324-.039,4.886.343,5.584-3.507.638-2.803.7-6.23-.898-8.646-.938-.955-2.566-.812-3.826-.955-.87-.01-1.764-.126-2.623.065-2.403.881-2.037,4.771-2.072,6.807v.178-.002Z" fill="#1a1a1a"/>
          <path d="M157.442,126.433c.632.174,1.393-.057,2.156-.027.742.028,1.446.158,2.087.533.322.188.666.354,1.018.356.953.008,1.54.633,1.918,1.311.587,1.05.989,2.203.778,3.474-.221,1.32-.138,2.636-.015,3.975.156,1.676.104,3.373.034,5.065-.094,2.202-.379,4.402-.095,6.616.076.59-.01,1.211-.084,1.81-.196,1.559.154,3.126-.202,4.694-.269,1.187-.551,2.281-1.327,3.282-.924,1.189-1.825,2.386-3.198,3.054-1.248.607-2.419,1.389-3.854,1.613-.545.085-1.026.515-1.622.68-1.876.521-3.811.637-5.708.988-1.255.232-2.55-.016-3.79.352-1.489-.583-3.119-.17-4.617-.641-1.354-.425-2.573-1.146-3.772-1.892-.443-.275-.833-.633-1.264-.928-.729-.498-1.196-1.199-1.478-2.003-.492-1.41-.751-2.868-.744-4.373.006-1.327-.127-2.658-.051-3.979.127-2.195.159-4.417,1.555-6.344.354-.487.722-.829,1.221-1.075.663-.325,1.419-.541,2.111-.477,1.298.117,2.574-.243,3.865-.046.562.086,1.125-.021,1.69-.075,1.313-.124,2.146.186,2.449,1.827.211,1.146.31,2.313.435,3.474.054.488.206.939.359,1.397.194.583.607.83,1.184.862.56.031,1.036-.122,1.35-.63.305-.49.529-1.018.514-1.593-.049-1.899.396-3.766.306-5.673-.082-1.757-.03-3.514-.147-5.277-.138-2.069-.123-4.16-.035-6.247.044-1.046.235-1.98.793-2.854.348-.545.835-.878,1.456-.98,1.52-.251,3.05-.376,4.721-.249h.005Z" fill="#1a1a1a"/>
          <path d="M202.367,139.141c-1.572.073-3.143-.006-4.713-.103-2.172-.133-4.354-.116-6.531-.158-.838-.018-1.652-.028-2.474.31-.581.24-.813.635-.964,1.14-.223.758-.028,1.1.767,1.119,1.514.038,3.009.268,4.547.076,1.511-.188,3.061-.065,4.595-.064.833,0,1.668.072,2.498.039,1.889-.077,3.76.176,5.641.26.755.033.836.255.987,1.063.162.87.365,1.719.344,2.622-.015.64-.239,1.186-.477,1.731-.203.468-.657.697-1.144.814-1.092.267-2.205.397-3.324.375-3.122-.064-6.242.185-9.369-.029-.664-.046-1.348-.104-2.023-.116-.279-.005-.55-.076-.839-.033-.805.119-1.038.265-1.06.736-.029.684.298,1.187.92,1.378.231.07.475.139.711.138,1.377-.005,2.753-.06,4.127-.04,1.921.029,3.824-.22,5.765-.075,1.384.103,2.798.145,4.198.2.884.036,1.419.49,1.771,1.197.359.722.617,1.479.381,2.318-.257.909.109,1.812.074,2.73-.041,1.111-.247,2.205-.253,3.325-.007.989-.453,1.968-1.408,2.537-1.107.659-2.178,1.225-3.611.965-.962-.175-1.997-.147-2.994-.27-.816-.1-1.614.089-2.413.188-1.514.19-3.03.201-4.55.206-2.606.008-5.214.069-7.819.027-.879-.014-1.735-.092-2.623.049-.913.146-1.843-.114-2.752-.303-.235-.049-.479-.163-.705-.136-1.8.214-3.598.182-5.397.009-.184-.018-.379.15-.573.162-1.021.063-2-.201-2.477-1.309-.454-1.057-.708-2.148-.812-3.261-.182-1.957-.222-3.917-.154-5.896.103-3.006.159-6.019.221-9.027.054-2.584-.031-5.171.117-7.753.037-.638-.09-1.291-.179-1.919-.213-1.5.072-2.96.208-4.425.111-1.208.473-2.392,1.741-2.979.367-.17.751-.241,1.162-.222,1.006.049,2.037-.052,3.014.133,1.474.28,2.94.218,4.416.231,1.489.014,2.975-.037,4.458-.159.608-.051,1.209-.129,1.804.061.359.113.719.074,1.084.056,1.311-.067,2.619-.141,3.936-.005.546.057,1.113-.086,1.67-.139,1.213-.118,2.424-.113,3.635.028.198.023.396.123.592.118,1.671-.037,3.34-.092,5.01-.136,1.816-.048,3.649-.181,5.303.81.833.5,1.276,1.123,1.282,2.231.008,1.31.235,2.628.077,3.949-.145,1.192-.253,2.396-.511,3.565-.221.998-.973,1.577-2.002,1.641-.965.06-1.934.012-2.901.012v.003Z" fill="#1a1a1a"/>
          <path d="M246.624,132.032c-.028,1.283-.17,2.554-.324,3.827-.095.782-.251,1.561-.316,2.335-.153,1.804-1.951,2.85-3.378,2.806-1.668-.053-3.338.084-5.006-.081-.628-.063-1.271.046-1.85.398-.552.335-1.156.584-1.703.927-1.04.648-1.6,1.586-1.534,2.836.031.562.054,1.133.172,1.682.398,1.861,1.755,2.707,3.471,3.075.527.113,1.065.243,1.657.097.659-.164,1.335.165,2.027.169,1.448.011,2.9-.068,4.349.222,1.619.324,2.407,1.13,2.468,2.77.028.801.093,1.603.098,2.403.004.76-.016,1.52-.384,2.229-.146.278-.26.625-.237.928.105,1.346-.561,2.403-1.235,3.452-.72,1.121-1.743,1.714-3.113,1.745-1.729.038-3.458.139-5.186.235-.396.021-.798.099-1.179.215-.402.123-.821.167-1.2.083-1.719-.381-3.445-.097-5.164-.087-1.617.009-3.199-.203-4.794-.38-1.492-.165-2.939-.604-4.33-1.062-2.179-.715-4.364-1.536-6.252-2.923-.592-.436-.962-1.084-1.463-1.604-1.727-1.792-2.089-4.017-2.019-6.351.022-.769-.003-1.531-.064-2.285-.121-1.454.103-2.896.038-4.344-.085-1.927-.176-3.854-.232-5.781-.039-1.324-.043-2.648.179-3.963.061-.356.075-.73.04-1.09-.236-2.389.948-4.205,2.467-5.813.735-.778,1.73-1.258,2.853-1.469,1.984-.375,3.965-.729,5.986-.838.836-.046,1.661.081,2.506.027,1.545-.102,3.099-.056,4.649-.077,1.454-.018,2.909-.039,4.363-.066,1.641-.032,3.284-.161,4.919-.094,2.207.09,4.441.06,6.576.809.238.084.409.181.587.364.538.558.957,1.205,1.385,1.839.27.399.376.873.292,1.387-.079.478-.081.967-.117,1.45v-.002Z" fill="#1a1a1a"/>
          <path d="M283.494,138.978c.009.098.017.195.024.293.075.994-.356,2.013-1.214,2.519-1.527.9-2.963.805-5.382.784-1.11-.009-.627-.043-1.705-.162-.373-.041-.616-.024-.968.027-.397.227-.761,1.084-.806,1.634-.098,1.226.087,2.478.157,3.718.135,2.367.364,4.732.386,7.099.011,1.141.309,2.306-.067,3.443-.443,1.343-.922,2.671-1.966,3.687-.907.882-3.586,1.262-4.811,1.37-1.19.105-2.392.09-3.581.271-.906.138-3.274-.225-4.131-.438-.114-.029-.216-.133-.33-.149-1.66-.246-1.878-1.566-2.065-2.849-.099-.671-.018-1.368-.018-2.054h-.056c-.074-1.588-.146-3.176-.216-4.764v-1.179c.081-1.789.131-3.581.289-5.364.085-.969.136-1.939.163-2.909.017-.586-.479-1.055-1.065-1.026-.526.026-1.054.045-1.581.051-1.141.011-.776.349-1.914-.076-1.343-.503-2.671-1.043-3.687-2.227-.882-1.027-1.261-2.328-1.37-3.715-.105-1.349-.09-2.708-.271-4.054-.138-1.027.225-1.977.438-2.946.029-.131.133-.244.149-.374.247-1.88,1.566-2.124,2.849-2.338.672-.112,1.368-.021,2.054-.021v-.063c1.585-.081,3.173-.164,4.758-.245.327-.019.861-.017,1.188,0,1.787.091,3.579.146,5.36.326,1.634.163,3.268.209,4.901.217.294-.029.591-.055.886-.048.065.002.109.039.171.048.818-.005,1.636-.014,2.454-.024,1.489-.02,2.984-.029,4.452.306.759.173,1.516-.076,2.272.103.738.174,1.429.517,2.204.587,1.021.095,2.222,2.003,1.967,3.613-.369,2.322-.121,4.619.085,6.925l-.006.006Z" fill="#1a1a1a"/>
          <path d="M288.372,150.772c.866-.058,1.699.024,2.549.15,2.318.342,4.66.437,7.001.542.589.026,1.014-.168,1.359-.623.392-.516.603-1.066.235-1.662-.312-.508-.81-.786-1.414-.727-1,.1-1.992.301-2.993.364-1.707.106-3.399-.018-5.014-.65-1.957-.768-3.188-2.26-4.057-4.104-1.076-2.286-1.082-4.706-.812-7.135.111-1.004.222-2.009.275-3.018.076-1.44.524-2.775,1.162-4.043.524-1.044,1.302-1.68,2.565-1.951,1.788-.384,3.582-.695,5.393-.785,2.084-.104,4.171-.268,6.266-.104,3.22.253,6.453.092,9.68.389,2.465.227,4.865.695,7.259,1.24.975.222,1.933.535,2.714,1.258,1.962,1.815,2.486,4.146,1.411,6.465-.544,1.176-1.531,1.862-2.636,2.394-2.046.986-4.128.82-6.22.115-1.628-.549-3.299-.682-4.988-.346-1.158.23-1.894,1.76-1.384,2.792.142.287.392.381.695.398.495.031.974-.042,1.424-.239,1.723-.757,3.541-.806,5.36-.635,1.124.105,2.211.479,3.253.924.407.174.815.355,1.216.544,1.618.76,2.846,1.879,3.61,3.567,1.195,2.644,1.193,5.396,1.046,8.19-.104,1.957-.585,3.845-1.204,5.672-.403,1.189-1.085,2.354-2.51,2.714-.433.11-.785.392-1.216.534-1.448.479-2.928.438-4.42.446-2.051.009-4.101.076-6.151.138-.849.024-1.687.124-2.528-.132-.377-.113-.805-.075-1.21-.07-2.144.021-4.29-.051-6.428-.017-1.312.02-2.639.114-3.949.047-4.134-.212-7.301-1.979-9.274-5.759-1-1.916-.728-3.713-.02-5.586.209-.557.579-.819,1.098-1.021.936-.367,1.895-.367,2.855-.28v.003Z" fill="#1a1a1a"/>
        </g>
        <path d="M65.454,122.176c-1.377-.189-2.59.409-3.877.451-2.754.093-5.51.696-8.252-.045-.6-.161-1.094.268-1.684.147-1.428-.289-2.436-1.071-3.08-2.373-.719-1.451-1.531-2.856-2.195-4.33-.666-1.479-1.701-2.123-3.34-2.091-3.947.078-7.896.049-11.846.07-.779.005-1.57.081-2.314-.208-1.191-.466-2.021.02-2.607,1.015-1.014,1.719-2.01,3.452-2.967,5.205-.684,1.253-1.078,1.638-2.441,1.381-1.248-.235-2.459-.042-3.646.086-1.906.206-3.867.112-5.715.758-1.205.421-2.43.355-3.641.115-.393-.079-.73-.076-1.123-.03-2.393.275-4.375-1.524-4.746-3.896-.141-.89-.176-1.797.041-2.699.992-4.077,2.139-8.11,3.477-12.087.988-2.931,2.141-5.799,3.088-8.751.6-1.875,1.547-3.689,2.303-5.548,1.137-2.798,2.273-5.598,3.406-8.397,1.426-3.523,3.213-6.865,5.145-10.131.23-.388.48-.782.611-1.209.49-1.613,1.588-2.641,3.088-3.28,1.125-.48,2.248-.985,3.418-1.329.842-.247,1.715-.299,2.648-.24,2.182.143,4.416.159,6.572-.154,2.564-.372,5.127-.498,7.682-.362,2.59.14,5.234,1.601,6.203,4.438.865,2.537,1.777,5.114,3.244,7.438.605.961.854,2.146,1.271,3.227,1.053,2.702,1.873,5.512,3.25,8.063,1.41,2.616,2.766,5.257,3.945,7.974,1.256,2.896,2.408,5.843,3.299,8.885.764,2.602,1.797,5.112,2.705,7.664.539,1.521,1.113,3.019,1.736,4.502.273.649.398,1.349.33,2.066-.305,3.269-1.85,3.747-3.994,3.671l.006.005ZM36.093,95.346c.613.076,1.141-.223,1.691-.38.723-.203,1.779.159,2.117-.591.33-.735-.326-1.56-.562-2.344-.426-1.432-1.078-2.744-1.949-3.95-.375-.52-.809-.596-1.205.013-.139.211-.348.396-.42.627-.41,1.322-1.002,2.543-1.703,3.739-.84,1.432-.471,2.202,1.084,2.704.303.099.629.12.945.18l.002.002Z" fill="#1a1a1a"/>
        <path d="M196.715,85.37c-.399,2.275-.419,4.973-1.047,7.287-1.341,4.702-4.403,7.833-8.061,10.538,2.27,4.604,5.111,9.615,6.512,14.71,1.196,1.863.711,4.325-1.511,5.093-5.445.029-11.261.664-16.682-.12-2.29.312-5.085.135-7.262-.748-3.676-2.91-3.146-8.748-6.789-11.889-.834-1.437-2.214-1.787-3.2-.402-1.282,2.866.324,5.992-.552,8.959-.286,1.675-1.169,3.481-3.071,3.634-5.995.115-12.568-.417-18.447.437-3.1.848-6.752-.73-7.147-4.173-.218-1.803.079-3.592-.073-5.377-.49-2.756-.633-4.598-.628-7.328.307-11.911-.174-24.165,1.027-36.137.263-3.771,3.646-5.916,7.182-5.181,3.569-.292,7.181-.579,10.775-.589,11.666-.096,23.684-.208,35.116,1.67,8.66,2.052,13.846,10.604,13.87,19.269l-.013.346v.002ZM158.436,84.779c0,.837.003,1.352,0,1.863-.015,1.925.258,2.153,2.199,2.34,1.685.161,3.35-.216,5.009-.091,1.582.12,3.08-.287,4.6-.498,1.491-.206,2.244-1.3,2.609-2.763.333-1.342-.189-2.222-1.128-3.056-.407-.36-.849-.566-1.339-.742-3.606-1.312-7.26-.91-10.9-.233-.599.113-1.214.485-.927,1.397.213.68-.282,1.397-.12,1.782h-.003Z" fill="#1a1a1a"/>
        <path d="M319.199,83.441c.015.156.027.313.039.471.12,1.594-.571,3.227-1.946,4.038-2.449,1.443-4.752,1.289-8.631,1.258-1.779-.016-1.005-.069-2.733-.261-.598-.065-.988-.039-1.552.045-.638.362-1.221,1.738-1.292,2.618-.157,1.966.14,3.975.252,5.963.216,3.795.584,7.588.618,11.384.018,1.828.495,3.696-.107,5.521-.711,2.153-1.479,4.283-3.153,5.911-1.454,1.415-5.749,2.023-7.713,2.197-1.91.169-3.835.145-5.742.434-1.454.221-5.252-.36-6.625-.701-.184-.046-.346-.213-.529-.24-2.663-.395-3.011-2.511-3.312-4.567-.157-1.076-.027-2.194-.027-3.293h-.091c-.117-2.547-.232-5.092-.346-7.64v-1.89c.131-2.869.211-5.742.464-8.602.138-1.554.218-3.111.263-4.665.026-.939-.771-1.692-1.709-1.646-.844.042-1.689.071-2.535.081-1.829.017-1.246.559-3.07-.123-2.152-.807-4.283-1.672-5.911-3.569-1.414-1.647-2.022-3.734-2.196-5.958-.169-2.162-.145-4.342-.434-6.499-.221-1.648.36-3.171.701-4.725.046-.211.213-.393.24-.602.395-3.013,2.51-3.405,4.567-3.748,1.076-.18,2.194-.032,3.293-.032v-.103c2.542-.13,5.087-.263,7.63-.393.524-.029,1.38-.027,1.904,0,2.866.145,5.74.235,8.597.522,2.62.262,5.239.336,7.86.348.471-.046.946-.088,1.419-.076.105.003.177.062.274.076,1.312-.007,2.624-.021,3.936-.039,2.388-.032,4.786-.047,7.14.49,1.216.277,2.43-.122,3.644.164,1.184.28,2.292.829,3.535.941,1.638.152,3.562,3.212,3.153,5.794-.592,3.725-.194,7.407.137,11.104l-.01.01Z" fill="#1a1a1a"/>
      </g>
      <g id="f" data-name="Lindsay">
        <path d="M67.974,96.028c-.342-3.521-.275-7.098.589-10.522.41-1.626.997-3.205,1.677-4.738.84-1.894,1.83-3.731,3.092-5.374,1.992-2.594,4.602-4.633,7.203-6.616,1.137-.867,2.281-1.731,3.519-2.446,3.288-1.9,7.207-2.684,10.973-2.196,1.834.238,3.618.765,5.44,1.082,1.847.322,3.763.436,5.482,1.186.951.415,1.81,1.012,2.662,1.605,1.669,1.162,3.338,2.324,5.007,3.486.954.665,1.913,1.332,2.758,2.132,1.798,1.701,3.009,3.924,4.041,6.174.895,1.951,1.679,3.953,2.345,5.993-.082.906-.01,1.826.212,2.708.209.832.553,1.641.597,2.498.045.855-.212,1.694-.468,2.51-.594,1.891-1.206,3.776-1.836,5.655-.993-5.344-3.385-10.292-5.861-15.119-.999-1.948-2.071-3.953-3.82-5.269-1.535-1.155-3.443-1.667-5.26-2.289-1.819-.623-3.629-1.404-5.055-2.694-1.92-1.738-3.204-4.416-5.693-5.132-.138-.04-.286-.073-.425-.036-.313.082-.435.453-.511.768-.821,3.442-2.088,6.777-3.758,9.896-.377.704-.782,1.407-1.355,1.964-.738.718-1.705,1.147-2.666,1.516-2.323.894-4.744,1.531-7.206,1.897-1.454.216-3.003.368-4.177,1.253-1.249.941-1.814,2.514-2.283,4.005-1.451,4.623-2.581,9.347-3.378,14.127-.959-2.094-1.404-4.386-1.691-6.672-.056-.449-.107-.9-.151-1.352Z" fill="#9b8361"/>
        <path d="M103.148,119.211c5.766-2.021,10.334-6.456,14.379-11.036,1.051-1.19,2.117-2.469,2.45-4.022.412-1.922-.368-3.868-.806-5.783-.338-1.474-.476-2.99-.849-4.456-.693-2.724-2.168-5.173-3.623-7.577-.293-.484-.586-.967-.878-1.451-1.389-2.294-2.918-4.716-5.357-5.828-1.017-.464-2.132-.666-3.185-1.041-3.877-1.379-6.522-4.895-8.933-8.23-.458,4.697-2.829,9.334-6.823,11.847-1.482.932-3.133,1.554-4.772,2.168-2.615.981-5.231,1.963-7.846,2.944-.745.28-1.552.611-1.93,1.311-.174.322-.237.69-.298,1.051-.926,5.503-1.852,11.006-2.778,16.509-.156.925-.311,1.875-.125,2.794.172.847.624,1.61,1.121,2.316,1.466,2.081,3.389,3.817,5.515,5.218,3.74,2.465,8.076,3.896,12.463,4.802,1.108.229,2.227.426,3.357.463,2.935.096,5.785-.886,8.557-1.855" fill="#e2cbbf"/>
        <path d="M94.103,111.561c.493-.022.944-.267,1.376-.503,1.219-.666,2.45-1.31,3.693-1.93.169-.085.366-.17.541-.097.123.052.202.171.27.286.311.525.545,1.095.691,1.688.032.13.054.285-.038.382-.064.068-.165.085-.258.098-2.098.286-4.222.382-6.337.288" fill="#feb3a6"/>
        <g>
          <path d="M98.658,122.358c-.273.035-.537.093-.809.105-.267.012-.537.038-.816.033-.26-.005-.529-.025-.812-.041-.259-.015-.527-.068-.815-.09-.259-.019-.529-.053-.818-.076-.385-.03-.391.049-.776.019-.294-.023-.582-.085-.868-.111-.293-.027-.58-.079-.866-.111-.292-.032-.577-.093-.861-.129-.291-.037-.581-.053-.865-.095-.29-.043-.573-.111-.856-.16-.29-.05-.593-.015-.877-.071-.288-.056-.56-.177-.842-.24-.285-.063-.577-.09-.857-.16-.283-.071-.562-.15-.84-.228s-.556-.168-.832-.253-.563-.143-.838-.236-.528-.244-.8-.344c-.27-.1-.534-.218-.804-.325-.267-.107-.564-.148-.832-.263-.264-.114-.52-.254-.786-.375-.26-.119-.51-.267-.772-.394-.259-.125-.525-.242-.787-.376-.256-.131-.526-.242-.786-.381-.256-.136-.481-.319-.725-.459-.252-.143-.489-.302-.729-.449-.248-.151-.495-.292-.73-.446-.242-.159-.515-.265-.745-.428-.236-.168-.434-.382-.656-.553-.229-.177-.475-.326-.69-.507-.221-.186-.445-.367-.651-.558-.212-.197-.375-.439-.571-.64-.201-.207-.379-.427-.563-.64-.189-.218-.383-.424-.555-.648-.175-.228-.381-.43-.538-.664-.16-.238-.293-.491-.435-.736-.151-.261-.319-.509-.464-.768-.147-.263-.28-.531-.421-.792-.143-.265-.239-.552-.376-.815-.139-.267-.32-.51-.452-.775-.134-.269-.275-.533-.402-.8-.129-.271-.235-.552-.357-.821-.124-.273-.22-.557-.337-.829-.119-.276-.257-.541-.368-.815-.113-.278-.184-.57-.29-.847-.107-.281-.278-.535-.378-.814-.101-.283-.201-.565-.294-.846-.094-.285-.136-.585-.223-.869-.088-.288-.205-.565-.284-.852-.08-.29-.136-.584-.208-.872-.072-.291-.1-.591-.163-.881-.064-.293-.173-.575-.228-.867-.056-.294-.137-.584-.184-.877-.047-.295-.058-.596-.096-.89-.038-.296-.094-.591-.123-.886-.029-.297-.014-.598-.034-.894s-.038-.595-.049-.892-.008-.596-.009-.894-.011-.596-.003-.894.061-.593.079-.89.034-.593.061-.89.002-.598.038-.894.109-.586.154-.881c.045-.294.045-.596.099-.89.054-.292.163-.574.226-.867.062-.29.074-.592.145-.883.07-.288.226-.555.305-.844.078-.286.084-.595.171-.882.086-.283.175-.568.269-.852.093-.282.211-.558.312-.841.1-.279.188-.566.296-.847.105-.273.226-.543.347-.814.119-.267.248-.533.382-.797.132-.261.323-.492.469-.75.143-.255.249-.534.405-.786.154-.248.313-.497.478-.743.163-.242.329-.487.503-.726.172-.236.342-.478.524-.711.18-.231.379-.449.568-.676.187-.225.427-.407.622-.628.194-.219.354-.471.555-.687.2-.214.39-.439.597-.649.206-.208.445-.385.657-.589.211-.203.384-.449.602-.648s.443-.388.665-.582.458-.369.685-.558.477-.345.708-.529.449-.381.684-.559.488-.331.726-.504.482-.338.723-.506.488-.329.733-.491.495-.318.743-.475.452-.391.703-.543c.253-.153.55-.228.805-.375.257-.148.488-.339.746-.48.26-.142.51-.301.771-.436.263-.137.526-.271.79-.4.266-.131.549-.224.814-.347.269-.124.542-.235.81-.351.272-.118.525-.276.796-.385.276-.111.561-.191.834-.293.279-.104.569-.17.845-.263.282-.096.541-.25.818-.335.285-.087.576-.142.857-.218.288-.077.566-.181.847-.245.291-.066.585-.099.869-.151.422-.078.857-.116,1.285-.171.29-.037.581-.074.874-.1s.583-.061.877-.075.586.031.88.027.586-.076.88-.069.587.011.88.029c.292.017.58.104.872.131.291.027.591-.011.882.026.29.037.571.145.862.191.289.046.581.076.869.132s.567.147.854.211.571.127.855.2.575.116.858.197.55.204.83.294.561.169.838.267.566.159.84.266.549.208.82.321.506.307.773.428.541.225.805.354.555.202.815.338.502.305.759.447.484.333.737.482.532.253.781.409.505.3.749.463.461.365.701.535.49.324.725.5.477.343.707.526.416.418.641.607.47.352.69.547.415.415.629.616.471.357.68.563.367.463.569.675.391.437.587.655c.199.22.402.434.593.659.192.226.427.416.61.646.185.232.335.49.512.725.178.237.348.479.517.719.171.242.353.475.515.721.163.247.353.477.508.728s.261.533.408.789.339.488.479.748.209.557.34.821.273.524.396.791.271.526.386.798.235.543.342.818.191.56.288.838.156.57.245.851.17.565.25.848.204.556.276.842.159.57.222.858.052.592.106.882.132.576.177.867.079.585.114.877.072.586.099.879.025.589.042.884.064.588.072.882.018.59.016.885.03.592.02.887-.052.589-.072.884-.084.585-.113.879-.073.585-.112.877-.047.589-.095.88-.114.579-.171.868-.073.588-.14.876-.214.555-.289.84-.083.589-.167.872-.207.554-.3.834-.163.568-.266.845-.25.535-.361.809-.226.544-.346.814-.244.536-.372.802-.258.53-.395.791-.302.506-.448.763-.265.527-.419.78c-.153.251-.278.521-.44.768s-.381.454-.551.696-.294.515-.472.752c-.176.235-.366.462-.551.693s-.41.426-.602.652c-.191.224-.338.489-.537.708-.221.243-.474.445-.7.664-.234.226-.45.463-.69.67-.244.211-.503.399-.753.597s-.527.363-.783.556c-.254.191-.513.377-.773.569-.186.137-.326.338-.516.479-.185.137-.414.22-.603.363-.249.19-.499.365-.736.544-.25.189-.444.439-.682.618-.251.187-.537.313-.778.49-.253.185-.502.362-.747.536-.253.179-.497.361-.747.53-.254.172-.493.362-.748.525-.257.165-.498.352-.759.509-.259.156-.525.304-.793.454-.262.147-.547.258-.821.4-.265.137-.533.279-.812.413-.268.129-.561.219-.846.346-.271.12-.529.287-.817.407-.274.114-.548.252-.841.366-.277.108-.589.148-.884.256-.311.115-.583.279-.86.372-.314.105-.619.167-.899.247-.317.091-.608.196-.894.257-.316.068-.629.052-.924.09ZM96.531,70.269c-.176.023-.295.248-.485.902-.075.257-.137.592-.24,1.012-.058.236-.114.428-.144.52-.095.294-.224.567-.32.843-.101.292-.214.569-.317.842-.109.289-.144.597-.254.867-.117.285-.271.546-.391.81-.128.281-.278.541-.41.8-.14.275-.306.524-.452.777-.154.266-.291.532-.453.775-.17.255-.361.482-.541.714-.186.24-.31.525-.509.744-.202.223-.457.392-.674.596s-.416.43-.649.618c-.23.185-.473.36-.721.533-.241.168-.496.325-.755.485-.249.153-.491.333-.758.481-.255.141-.546.23-.818.368-.26.132-.536.25-.814.381-.264.125-.505.319-.786.445-.273.123-.56.216-.837.325-.279.109-.569.187-.85.284s-.562.204-.846.292c-.286.089-.566.199-.852.281-.289.083-.592.113-.879.191s-.579.138-.864.214c-.258.069-.514.15-.774.22-.258.07-.499.204-.758.278s-.532.096-.789.174-.502.196-.756.281c-.256.086-.504.187-.754.281-.227.086-.488.121-.72.234-.222.108-.455.226-.652.393-.183.155-.34.361-.477.593-.139.236-.222.513-.34.783-.111.254-.232.513-.328.79-.092.266-.155.546-.234.824-.078.273-.163.546-.232.824s-.183.547-.246.824c-.064.283-.076.575-.137.849-.06.271-.107.538-.165.792-.062.274-.147.532-.21.78-.061.235-.151.47-.218.718-.064.237-.106.485-.173.731-.077.281-.195.557-.272.847-.076.283-.082.588-.155.876s-.142.576-.21.864c-.068.29-.183.569-.242.857-.061.294-.081.593-.129.882-.05.298-.111.588-.144.876-.034.302-.099.596-.109.883-.01.257.039.52.043.784.004.26.044.52.056.782s-.006.525.008.784c.018.321.057.644.07.968s-.019.65-.021.971c-.002.326-.011.649-.038.967-.028.326-.081.644-.147.955-.006.028-.002.031,0,.06s-.026.042-.015.069c.112.277.232.545.349.808.121.273.296.515.423.773.131.268.236.543.373.796.142.262.331.49.48.737.154.254.267.528.429.767.166.245.382.449.558.678.18.235.3.514.49.733.193.222.45.382.654.589.206.208.416.407.634.601s.427.395.658.576c.229.179.473.335.716.502.239.164.478.328.731.481.247.15.499.295.76.436.24.129.475.315.758.453.251.122.54.201.821.328.258.117.528.234.807.353.263.113.537.222.815.335.267.109.545.208.823.317.271.105.54.227.819.331.273.102.528.262.807.361.277.098.572.147.852.241s.566.169.846.26c.282.091.551.22.832.305.285.087.585.112.865.192.288.082.57.169.851.243.292.077.573.168.854.234.295.07.576.17.856.227.301.062.597.094.876.14.306.05.595.118.871.146.316.032.612.056.879.056.278,0,.573.003.876,0,.287-.004.583-.003.878-.009s.589-.105.879-.112c.301-.008.599.07.881.061.312-.01.606-.072.874-.082.199-.007.413-.047.642-.076.267-.034.548-.083.845-.145.269-.056.558-.086.847-.162.27-.071.551-.141.834-.228.27-.083.529-.219.807-.315.268-.093.549-.164.822-.267.268-.101.55-.175.819-.285.267-.109.507-.285.772-.402s.54-.212.801-.335c.264-.125.509-.282.765-.411.262-.133.532-.242.782-.378.26-.141.526-.259.77-.402.258-.152.502-.31.737-.463.253-.164.483-.341.704-.503.248-.182.509-.32.71-.497.161-.141.296-.451.462-.68.106-.146.239-.339.288-.378.128-.099.416-.152.663-.255.281-.118.536-.3.757-.449.239-.162.515-.273.75-.443.233-.169.452-.36.682-.537.228-.176.474-.332.699-.517.222-.183.439-.376.658-.568.217-.19.408-.411.621-.61.211-.196.447-.369.655-.573.205-.202.398-.419.601-.629.199-.207.365-.446.562-.661.194-.212.38-.433.572-.654.189-.217.44-.384.627-.61.183-.22.349-.459.53-.688.179-.226.307-.495.484-.729.175-.23.375-.442.549-.679.171-.234.386-.45.543-.695.165-.259.264-.547.377-.798.134-.299.196-.579.194-.835-.002-.284.031-.576.013-.874-.017-.285-.064-.574-.095-.869-.03-.286-.08-.573-.12-.866-.039-.286-.019-.585-.066-.874-.047-.286-.134-.567-.187-.855s-.079-.58-.137-.865-.184-.559-.245-.843c-.063-.289-.062-.59-.127-.873-.065-.288-.117-.575-.182-.853-.068-.289-.147-.569-.212-.846-.085-.359-.133-.347-.228-.703-.006-.023.02-.032.005-.05-.119-.137-.238-.425-.361-.765-.093-.258-.203-.539-.29-.81-.102-.317-.225-.577-.308-.803-.141-.383-.222-.656-.368-.758-.115-.08-.239-.06-.366-.045-.238.03-.451.163-.613.336-.08.085-.141.175-.207.219-.397.266-.698.393-1.031.498-.211.067-.424.144-.67.257-.207.095-.357.256-.495.43-.101.127-.22.218-.332.296-.263.185-.535.345-.819.495s-.553.324-.854.438c-.298.112-.601.226-.915.303-.307.075-.635.063-.958.104-.314.04-.626.091-.943.097s-.632-.011-.948-.038-.629-.064-.941-.124-.612-.157-.915-.248-.612-.164-.905-.285-.582-.253-.86-.404c-.089-.049-.256-.09-.431-.178-.165-.083-.398-.229-.628-.35-.288-.152-.529-.331-.586-.397-.192-.253-.182-.353-.09-.665.025-.056.188-.405.388-.741.198-.333.41-.655.451-.708.111-.113.375-.338.74-.549.247-.142.566-.225.85-.372s.536-.355.794-.475c.38-.177.712-.276.865-.309.137-.03.434-.108.814-.162.249-.035.537-.03.831-.067.269-.034.516-.064.73-.087.355-.039.615-.062.731-.062.077.003.41.073.807.171.259.064.538.164.796.235.386.106.717.17.794.215.18.116.39.316.582.554.276.344.523.75.904.918.246.109.5.09.754.058,0,0,.001.01.002.01.333-.042.651-.152.931-.307.116-.064.109-.227.128-.306.025-.008.087.008.122.003.1-.013.212-.04.317-.038.115.002.222.022.31.011.351-.044.394-.286.389-.36-.006-.082-.186-.36-.377-.607-.194-.251-.451-.432-.506-.462-.186-.104-.375-.187-.58-.203-.144-.011-.268-.031-.382-.071-.261-.09-.557-.116-.825-.229-.259-.109-.493-.29-.754-.41-.259-.12-.517-.245-.773-.366-.241-.115-.483-.219-.716-.328-.243-.113-.493-.197-.727-.297-.248-.105-.501-.171-.74-.254-.259-.09-.503-.159-.746-.204-.265-.049-.515-.112-.768-.122-.262-.01-.519.004-.776.019s-.517,0-.777.023c-.268.025-.537.102-.818.118-.284.016-.575.043-.866.043-.432.001-.882-.071-1.304-.018-.276.035-.582.158-.903.297-.268.117-.549.258-.788.512-.194.206-.342.48-.485.813-.108.253-.27.5-.347.784-.072.267-.092.557-.14.847-.045.275-.106.557-.132.848-.025.279.008.569-.002.859-.009.282.012.567.016.856.003.284-.006.569.007.856.013.285.001.572.022.857s.039.572.065.855c.027.288.045.575.075.856.031.289.092.57.125.848.034.291.075.574.108.849.031.254.07.5.098.738.03.257.018.508.042.743.013.124.049.268.043.423-.014.373-.018.726.231.953.144.132.327.23.597.195.092-.012.203-.015.319-.049.084-.024.086-.017.169-.041.244-.071.415-.119.606-.143.238-.03.488-.052.852.015.271.05.47.147.603.299.138.158.194.369.188.641-.006.288-.04.622-.174.938-.121.285-.309.562-.492.824-.192.273-.438.493-.655.692-.285.262-.549.499-.787.532-.415.052-.673-.203-.886-.362-.139-.103-.27-.203-.41-.213-.009,0-.012.001-.022.002-.014,0-.013.032-.027.034-.082.01-.23.094-.659.265-.226.091-.509.194-.776.293-.318.118-.622.221-.793.243-.301.038-.566.028-.805,0-.274-.033-.519-.119-.775-.184-.29-.075-.594-.106-.933-.133-.183-.014-.447-.049-.74-.034-.242.012-.498.063-.742.085-.286.025-.555.004-.745.026,0,0-.004-.028-.004-.028-.193.024-.332.135-.462.191-.111.047-.209.085-.311.098-.111.014-.213-.039-.346-.099-.275-.122-.311-.34-.341-.732-.013-.171-.024-.351-.074-.515-.046-.151-.152-.256-.225-.371-.077-.124-.109-.257-.139-.404-.058-.282-.043-.57.08-.837.117-.254.306-.487.523-.679.221-.196.469-.381.731-.461.258-.079.489-.031.664-.054.09-.011.08-.091.17-.103.401-.051.573-.133.671-.494.058-.212.141-.503.151-.927.002-.085-.062-.087-.06-.172.007-.293.027-.603.03-.923.003-.303.026-.614.016-.923s-.077-.616-.107-.916c-.032-.317.001-.636-.063-.923-.062-.275-.205-.548-.304-.839-.094-.278-.147-.578-.25-.855-.109-.293-.209-.594-.307-.887-.104-.311-.201-.61-.258-.897-.053-.267-.059-.501-.044-.734.012-.199-.027-.399-.057-.616-.019-.138-.043-.492-.16-.884-.083-.28-.239-.565-.344-.837-.14-.367-.249-.691-.376-.801-.117-.101-.377-.245-.733-.355-.232-.072-.505-.129-.792-.198-.257-.062-.538-.077-.811-.133s-.544-.112-.806-.157c-.291-.05-.567-.098-.81-.131-.365-.048-.655-.08-.812-.073-.221.009-.461.06-.723.085-.228.021-.477-.014-.734.019-.292.037-.601.06-.911.109-.3.047-.606.101-.907.156-.306.056-.592.196-.882.258-.313.067-.627.078-.903.148-.292.074-.604.148-.914.254-.294.1-.576.259-.877.375-.295.114-.588.243-.881.36-.317.127-.644.237-.961.359-.327.125-.644.262-.957.364-.345.112-.685.178-.993.239-.077.015-.158-.009-.231,0-.655.083-1.118-.023-1.186-.215-.052-.147.146-.446.729-.806.197-.122.486-.267.825-.413.267-.115.542-.289.841-.404.296-.114.607-.194.886-.296.333-.121.633-.241.87-.325.033-.012.027-.028.06-.039.288-.101.582-.185.871-.277.291-.093.591-.153.883-.237.294-.085.576-.209.87-.285.296-.076.594-.143.889-.209.298-.067.6-.114.897-.172.3-.058.602-.098.901-.146.302-.048.605-.072.905-.11.306-.039.612-.056.915-.083.307-.028.607-.116.91-.132.308-.017.616.02.92.015.308-.005.614.003.916.01.308.007.612.043.914.063.282.019.568.006.842.073s.528.195.789.305c.258.109.505.239.746.387.238.146.503.264.721.445.215.178.406.393.599.602.189.206.334.45.497.683.161.229.33.455.462.707.13.248.257.501.355.769.097.265.204.532.288.808.082.27.096.562.166.843.068.273.169.542.226.826.055.276.104.558.147.845.042.279.078.563.11.852.031.28.022.567.043.857.021.281.061.564.072.854.011.28.045.564.048.853.003.282-.017.568-.022.858-.005.282-.006.569-.019.86-.012.281-.082.562-.102.85-.019.283.043.577.017.868-.025.283-.098.566-.129.856-.002.02.034.017.036.037.002.02-.003.015.003.034.085.266.068.655.056,1.057-.009.273-.005.563.022.842.028.297.058.585.213.802.147.206.373.377.712.433.156.026.437-.061.648-.088.264-.033.616-.054.769-.172.264-.204.307-.575.261-.981-.039-.346-.113-.727-.202-1.045-.056-.203-.091-.377-.107-.492-.044-.299-.089-.592-.129-.883-.041-.301-.074-.598-.11-.89-.037-.301-.156-.588-.188-.88-.033-.302-.005-.604-.032-.896-.028-.302-.036-.599-.057-.89-.022-.302-.057-.597-.073-.887-.016-.303-.004-.599-.013-.889-.01-.304-.089-.6-.091-.889-.002-.305.02-.603.027-.892.007-.306.073-.6.09-.888.018-.305-.009-.604.02-.89.031-.305.061-.601.105-.883.048-.305.111-.597.173-.876.068-.302.177-.579.262-.849.093-.296.2-.568.313-.826.125-.284.256-.544.406-.782.164-.261.341-.49.535-.695.23-.243.491-.44.794-.613.279-.159.563-.351.907-.452.305-.09.646-.127,1.005-.173.304-.038.629-.018.987-.026.304-.007.632-.063.994-.049.253.01.564.012.904.055.277.035.57.137.883.19.288.048.583.122.886.182.295.058.604.069.898.135.301.068.595.152.88.225.309.079.609.142.881.223.323.096.605.22.848.312.26.099.544.261.814.426.243.149.484.326.73.433.113.049.227.051.337.037.079-.01.27-.041.272-.34,0-.105-.113-.24-.539-.839-.15-.211-.294-.512-.542-.85-.201-.275-.391-.493-.46-.599-.186-.283-.356-.519-.497-.745-.168-.27-.335-.501-.5-.741-.16-.231-.312-.472-.526-.719-.175-.201-.377-.414-.622-.652-.12-.117-.329-.348-.583-.607-.206-.21-.394-.394-.56-.561-.218-.22-.395-.411-.549-.561-.309-.3-.484-.489-.573-.533-.256-.125-.528-.257-.811-.368-.274-.108-.57-.173-.846-.274-.305-.111-.619-.215-.921-.335-.313-.124-.619-.25-.897-.394-.249-.129-.495-.271-.743-.417-.243-.143-.488-.288-.728-.443-.237-.153-.476-.308-.711-.468s-.464-.332-.697-.496-.446-.354-.676-.518c-.22-.157-.456-.297-.68-.454s-.471-.281-.696-.434c-.228-.156-.413-.369-.64-.514-.097-.087-.364-.35-.678-.726-.195-.233-.398-.514-.623-.786-.194-.234-.397-.422-.557-.613-.202-.242-.403-.429-.556-.609-.223-.261-.351-.504-.492-.658-.396-.431-.533-.476-.649-.462-.019-.004-.005-.041-.005-.041ZM103.839,101.784c-.294.037-.99.193-1.133.494-.046.098-.019.195.04.292.106.172.294.251.548.219l.004.035c.288-.036.607-.206.757-.418.095-.134.056-.291.025-.433-.018-.079.069-.114.004-.163s-.079-.017-.16-.013c-.017.001-.049-.017-.086-.013ZM95.531,102.075c.023.182.214.338.402.314.064-.151.027-.177-.061-.315-.103-.161-.204-.098-.341,0ZM113.216,80.764c-.072.009-.126.076-.163.126-.056.073-.056.16-.042.255.025.174.158.347.378.541.151.133.316.301.521.451.116.085.214.172.252.21.208.206.425.364.552.572.14.229.216.482.327.721.132.285.248.591.447.897.218.335.418.688.642,1.029.16.243.342.476.504.724.16.245.302.504.462.753.159.247.392.449.55.7.156.25.258.535.411.788s.338.487.485.744.287.519.427.779.269.528.401.792.29.519.411.788c.122.27.186.566.295.84.11.276.199.557.295.836.096.281.257.541.337.825.08.286.128.581.189.869s.086.586.127.879.084.586.102.881c.018.294.05.591.043.888,0,.026-.063.036-.051.059.235.449.113.559.485.903.136.126.248.008.392-.108-.006-.182-.097-.374-.129-.552-.038-.211-.019-.418-.011-.602.005-.132.032-.453.095-.757.12-.587.158-.845.131-.984-.02-.099-.034-.192-.101-.262-.046-.049-.082-.105-.092-.149-.013-.055-.032-.051-.045-.106-.066-.288-.179-.563-.244-.849-.066-.289-.112-.581-.179-.867s-.157-.568-.226-.854-.127-.574-.199-.858-.098-.581-.173-.864-.203-.552-.283-.833-.173-.559-.259-.838-.153-.565-.246-.842-.162-.563-.262-.839c-.099-.274-.225-.539-.332-.812s-.18-.558-.296-.828c-.115-.268-.301-.505-.426-.772-.106-.226-.226-.448-.352-.676-.121-.218-.205-.463-.336-.69-.165-.283-.363-.555-.519-.844-.16-.297-.29-.606-.41-.901-.013-.032.029-.065.006-.09s-.064.02-.095.003c-.109-.059-.478-.155-.938-.299-.289-.091-.607-.219-.936-.313s-.665-.16-.959-.232c-.458-.111-.824-.251-.962-.234ZM119.503,82.051c-.063.008-.133.059-.184.123-.08.098-.081.181.217.843.095.211.213.483.381.828.115.236.217.524.373.837.238.481.432.898.491,1.049.097.247.273.481.376.756.096.254.158.531.256.803.093.259.165.532.257.803.09.263.153.538.239.808.086.267.192.529.272.799.081.272.136.549.208.819.074.276.229.528.291.797.065.28.063.571.113.84.118.412.016.471.294.796.123.144.189.034.343-.077-.019-.177.039-.374.084-.542.038-.143.036-.251.029-.351-.018-.293.007-.597-.034-.899-.04-.295-.073-.596-.126-.893s-.183-.579-.239-.872c-.053-.279-.08-.554-.127-.819-.049-.279-.067-.555-.104-.821-.057-.415-.104-.768-.136-1.098-.027-.284-.079-.55-.116-.826-.036-.263-.032-.54-.102-.83-.06-.249-.12-.521-.221-.814-.044-.129-.095-.263-.136-.405-.096-.336-.262-.685-.451-.991s-.419-.573-.838-.624c-.079-.01-.39.017-.705.014-.283-.003-.576-.066-.707-.05ZM70.498,85.202c-.173.022-.526.221-.87.403-.353.188-.678.415-.79.515-.195.175-.369.393-.517.664-.127.231-.27.481-.368.767-.087.256-.176.53-.242.819-.061.268-.036.564-.081.852-.043.276-.117.553-.148.839-.03.281-.077.564-.096.848-.019.286-.061.572-.071.855-.01.289.007.577.005.855-.003.293-.025.58-.021.853.004.301.1.585.109.85.011.314-.039.602-.025.849.006.113.053.254.06.417.013.326.023.653.042.964.022.345.041.672.078.959.054.408.156.715.264.901.069.118.162.373.378.345l.002.015c.096-.012.134-.125.199-.229.051-.081.062-.123-.004-.635-.032-.253-.046-.571-.043-.701.005-.253.006-.559.03-.905.019-.276.018-.581.049-.902.027-.286.11-.583.146-.895.033-.292.086-.591.126-.899.038-.295.067-.598.111-.901.043-.299.024-.609.073-.909s.154-.592.208-.889c.055-.304.075-.612.134-.904.062-.307.115-.609.182-.895.072-.31.205-.591.282-.867.088-.317.196-.601.289-.859.121-.335.226-.618.354-.825.021-.035.077-.157.152-.23.269-.261.585-.53.497-.81-.046-.146-.174-.207-.391-.243-.031-.005-.064-.078-.102-.073ZM108.13,91.855c.113-.011.259-.031.404-.015.176.019.356.016.518-.004.086-.011.155-.021.22-.053.197-.099.566-.988.511-1.159-.097-.303-.581-.314-.969-.265-.227.029-.489.161-.782.23-.257.061-.535.096-.797.173-.276.082-.55.147-.782.231-.359.131-.658.24-.753.33-.108.101-.241.375-.227.561.007.089.044.197.111.244.073.05.164-.018.641-.078.328-.041.775-.047,1.154-.106.286-.044.538-.124.683-.142.04.004.035.058.068.055ZM74.322,84.14c-.298.038-.583.228-.857.455-.232.193-.434.453-.64.726-.191.254-.377.525-.54.806-.169.291-.353.571-.485.846-.163.338-.307.644-.403.881-.087.215-.1.512-.185.824-.068.251-.172.517-.234.811-.057.265-.133.54-.182.825-.047.275-.117.553-.155.834s-.046.57-.072.848c-.027.29-.069.575-.079.846-.012.302.077.587.089.848.015.322-.011.612.048.839.034.13.128.408.391.374v.006c.089-.011.166-.052.246-.151.052-.063.063-.212.186-.79.044-.208.155-.459.223-.794.057-.279.132-.57.188-.836.078-.366.077-.699.124-.842.094-.281.219-.556.326-.838.105-.278.241-.546.355-.823s.218-.56.337-.835.214-.56.332-.831c.126-.289.301-.561.427-.855s.266-.582.386-.877c.121-.297.227-.601.337-.898.023-.064.038-.211.107-.323.202-.324.439-.61.328-.847-.035-.075-.126-.136-.3-.16-.098-.013-.199-.08-.298-.068ZM114.057,79.322c.06.109.164.204.284.298.156.122.437.214.75.308.255.077.532.149.795.193.322.055.618.116.811.103.162-.01.281.117.354-.028s-.156-.129-.244-.265c-.254-.395-.634-.559-1-.687-.128-.045-.246-.111-.366-.166-.013-.006-.007-.035-.021-.039s-.023.022-.037.019c-.077-.017-.297-.182-.571-.362-.19-.125-.446-.192-.625-.314-.288-.196-.479-.4-.66-.517-.437-.283-.614-.324-.736-.308-.04.005-.04-.018-.075.002-.044.025-.037.027-.07.066-.04.054-.021.11-.01.18.023.149.123.34.419.585.158.131.345.292.588.47-.118-.053-.267-.092-.466-.17-.194-.076-.426-.193-.645-.291-.267-.12-.491-.271-.578-.383-.007-.009-.016,0-.024-.008-.008-.008-.024.014-.033.008-.242-.195-.452-.429-.695-.624s-.476-.401-.72-.595-.496-.377-.741-.57-.531-.334-.776-.527-.457-.428-.702-.62c-.247-.193-.517-.356-.763-.547s-.5-.373-.744-.564-.452-.427-.695-.616c-.235-.183-.46-.381-.697-.565s-.484-.352-.721-.536-.503-.33-.739-.514-.459-.385-.695-.571-.486-.353-.722-.539-.464-.382-.7-.569-.44-.413-.676-.601-.502-.336-.737-.525-.476-.37-.709-.559-.454-.398-.687-.589-.448-.404-.679-.595-.477-.365-.707-.558c-.049-.041-.116-.177-.219-.291-.425-.469-.722-.691-.962-.66-.079.01-.117.037-.162.103-.092.137-.125.352-.006.788.068.25.198.499.316.767.108.245.215.502.352.752.132.24.24.503.388.739.149.238.347.444.502.669.164.237.352.445.51.658.181.244.329.487.485.683.216.272.415.477.538.623.182.215.355.46.577.679.204.202.425.403.657.606.218.191.443.39.682.581.229.183.475.356.719.537.237.176.457.384.705.556.244.17.496.335.747.5s.533.279.786.438c.255.16.494.344.75.497.261.156.547.264.805.412.265.151.502.342.76.482.271.147.563.238.821.371.276.142.507.35.764.474.285.137.59.19.844.302.114.05.115.049.229.1.248.11.542.262.867.404.284.123.591.236.889.361.308.129.609.26.886.367.362.14.674.252.893.308.13.033.717.2,1.044.159l-.006-.051c.177-.022.266-.079.303-.196.007-.021,0-.012.001-.032ZM94.192,70.651c-.174.022-.333.225-.514.592-.093.188-.168.436-.275.736-.077.218-.168.464-.256.747-.028.092-.08.143-.089.165-.125.278-.259.533-.383.781-.135.268-.202.558-.346.798-.151.25-.343.468-.517.697-.172.225-.375.427-.582.641-.192.199-.418.372-.651.568-.223.188-.432.389-.658.567-.229.18-.473.336-.705.506-.235.172-.42.412-.658.575-.24.164-.517.272-.76.428-.245.157-.47.344-.718.492-.25.149-.504.29-.756.432-.254.142-.513.273-.768.408-.257.136-.5.298-.759.426-.26.129-.546.204-.807.327-.263.124-.533.231-.797.349s-.501.304-.767.417-.544.203-.812.312c-.27.11-.549.192-.819.298s-.535.223-.805.326c-.272.103-.534.23-.805.33s-.558.151-.827.249c-.163.036-.434.244-.69.524-.187.205-.37.457-.53.691-.201.294-.293.597-.332.779-.045.212-.018.321.055.376.073.055.165.016.25.006.185-.023.535-.133.973-.265.297-.09.648-.138.99-.245.329-.103.668-.191.968-.282.436-.132.79-.251.961-.273.014-.002.008-.048.022-.05.031-.005.033.018.062.008.287-.107.568-.234.859-.341.278-.102.562-.192.841-.296s.575-.161.853-.268.536-.262.812-.374.546-.235.819-.353.553-.22.822-.347.548-.235.812-.373.513-.303.769-.454.532-.273.779-.438.448-.395.686-.575c.236-.179.463-.367.688-.564.208-.182.449-.344.654-.558.193-.202.358-.44.546-.666.18-.217.373-.43.547-.666.169-.228.368-.441.529-.684.158-.238.269-.509.417-.758.147-.246.262-.511.398-.765s.295-.496.418-.755c.125-.262.223-.533.333-.796.113-.269.255-.523.35-.791.098-.276.185-.551.263-.821.082-.283.16-.561.217-.834.118-.565.061-.742-.047-.84-.073-.066-.169-.134-.261-.123ZM99.874,65.647c-.124.016-.192.111-.229.158-.06.075-.061.167-.043.264.039.209.256.427.668.706.231.156.501.36.844.559.157.091.272.17.326.21.275.201.584.352.832.57.256.224.476.482.717.708.191.178.369.377.568.555.196.176.381.371.588.536.23.183.476.344.706.521.233.179.452.373.684.546.235.175.522.275.757.445.237.171.437.39.674.557.239.168.501.299.74.462.241.165.479.332.721.493s.48.328.723.487.505.288.749.444.458.36.704.514.483.321.729.474c.245.152.53.24.777.392s.481.325.729.477.483.328.734.481c.227.139.469.283.711.45.223.154.469.297.705.465.229.163.431.371.661.53.237.164.464.336.695.481.252.157.507.289.742.403.025.012.054-.047.078-.034.202.103.377.243.537.223l-.005-.038c.098-.012.128-.06.159-.1.189-.239-.054-.546-.365-.853-.014-.014-.002-.027-.016-.041-.191-.192-.422-.384-.657-.599-.209-.191-.466-.353-.7-.556-.22-.191-.435-.402-.667-.597-.227-.191-.472-.365-.703-.556-.232-.192-.457-.391-.685-.577-.238-.193-.44-.421-.664-.603-.33-.267-.672-.479-.948-.705-.239-.196-.481-.377-.716-.562-.243-.191-.47-.394-.709-.575-.245-.185-.473-.387-.716-.563-.248-.179-.509-.334-.755-.505-.251-.174-.478-.378-.728-.545-.253-.169-.546-.275-.8-.438s-.51-.323-.766-.483-.485-.361-.743-.519c-.257-.157-.533-.283-.794-.439-.258-.155-.508-.328-.771-.485-.258-.154-.498-.344-.762-.501-.22-.13-.468-.219-.693-.353-.22-.131-.458-.237-.682-.371-.103-.062-.086-.09-.188-.153-.299-.185-.606-.347-.891-.512-.323-.188-.61-.391-.885-.523-.418-.201-.769-.349-.978-.322ZM92.224,69.259c-.302.038-.805.482-.903.563-.192.159-.372.361-.571.561-.183.185-.374.378-.559.582-.179.199-.385.379-.562.581-.219.249-.451.494-.674.737-.235.256-.412.556-.641.771-.223.209-.473.386-.698.585-.229.202-.474.381-.704.573-.234.195-.486.363-.723.548-.24.188-.465.389-.708.567-.245.18-.504.337-.751.508-.25.173-.451.415-.704.58-.254.166-.544.276-.801.434s-.496.35-.757.502-.527.297-.792.444-.534.283-.802.425c-.266.141-.519.309-.788.446s-.564.219-.836.353c-.27.132-.549.249-.823.379-.272.129-.514.326-.789.453-.272.126-.556.229-.832.354-.274.124-.561.223-.839.347-.274.122-.544.258-.821.381s-.547.271-.828.395c-.191.084-.486.159-.745.274-.376.167-.411.079-.731.307-.325.231-.296.272-.598.533s-.26.311-.563.573-.529.103-.645.486c-.063.209.229-.001.446.023.104.012.2-.002.301-.015l.007.059c.415-.052.75-.284,1.055-.517.187-.144.349-.293.542-.381.275-.126.536-.295.822-.417.279-.119.572-.218.861-.335.28-.113.557-.247.846-.36.284-.111.577-.21.869-.322.285-.109.592-.172.884-.283.278-.106.54-.26.823-.368.279-.107.556-.224.838-.334.28-.109.568-.198.849-.311s.569-.2.848-.317.547-.257.823-.378.57-.208.843-.335.516-.323.785-.458c.271-.135.537-.275.802-.418.267-.144.555-.247.815-.399.262-.154.501-.341.754-.504.256-.165.517-.317.761-.492.247-.177.513-.327.747-.515.236-.19.434-.425.655-.628.223-.205.416-.436.622-.655.208-.22.429-.424.618-.659.159-.198.296-.412.447-.616s.331-.387.477-.592c.147-.209.289-.419.432-.625.173-.25.355-.497.535-.75.178-.25.349-.507.538-.754.186-.244.41-.459.612-.695.018-.021.014-.023.033-.044.152-.164.252-.36.233-.546-.009-.086-.026-.173-.098-.224-.061-.044-.149-.091-.237-.08ZM111.949,71.457c.224.244.498.422.754.602.266.187.553.329.824.488.195.115.389.24.584.366.191.123.357.283.535.431.247.205.498.446.763.691.249.23.556.415.806.657.252.245.475.519.713.754.243.24.463.49.687.708.017.017.038.085.098.156.238.284.454.492.619.663.352.365.581.522.746.501,0,0-.011-.088-.011-.088.077-.01.164.004.207-.061.08-.12-.133-.49-.343-.849-.231-.395-.495-.776-.5-.783-.132-.179-.328-.433-.571-.715-.185-.214-.417-.426-.634-.664-.205-.225-.376-.492-.586-.711-.225-.234-.437-.469-.641-.667-.268-.258-.554-.413-.732-.545-.204-.152-.435-.313-.71-.446-.244-.118-.497-.253-.769-.354-.266-.098-.542-.175-.81-.254-.284-.084-.568-.131-.825-.19-.299-.068-.299-.268-.594-.187s.183.268.391.494ZM91.228,66.76c-.149.019-.412.16-.706.295-.227.104-.459.246-.676.36-.314.164-.579.303-.663.356-.256.163-.528.295-.78.456-.255.163-.514.316-.765.478-.254.164-.462.395-.712.558-.253.165-.525.298-.773.463-.254.168-.518.315-.768.482-.252.169-.518.314-.766.482-.251.17-.486.359-.733.528-.249.171-.51.322-.756.493-.248.172-.443.416-.688.588-.247.173-.527.295-.771.468-.246.175-.467.383-.71.559-.244.176-.491.348-.732.524s-.489.348-.729.526-.461.384-.7.563-.513.315-.751.496-.485.351-.721.533-.426.426-.661.61-.484.349-.717.534-.484.35-.717.537-.457.386-.69.576c-.056.045-.15.136-.28.22-.27.174-.551.299-.752.462-.297.241-.507.489-.486.721.012.136.095.226.145.266.05.04.147.024.286.006l.007.055c.25-.032.569-.29.891-.518.072-.051.125-.105.154-.12.261-.123.55-.193.816-.318.262-.123.534-.232.799-.358.262-.125.518-.268.782-.396.262-.126.504-.298.768-.427.262-.128.534-.239.797-.371.261-.131.513-.283.774-.418s.526-.258.786-.395.541-.232.799-.374.489-.328.744-.473.504-.301.756-.451.515-.282.765-.436.513-.289.759-.448.477-.343.719-.509.507-.302.745-.474.43-.406.662-.584.46-.363.687-.549c.218-.179.46-.328.662-.524s.373-.422.563-.629.392-.405.574-.617c.184-.214.397-.403.576-.617.173-.207.311-.449.49-.657s.337-.435.52-.634c.031-.033.145-.09.263-.195.299-.264.518-.494.698-.673.394-.39.562-.583.551-.752-.005-.084-.051-.16-.12-.207-.081-.055-.185-.078-.216-.074ZM90.643,64.532c-.26.116-.51.259-.777.364s-.527.227-.795.324c-.271.098-.545.185-.812.28-.275.097-.565.162-.844.264-.277.101-.559.193-.835.303s-.517.296-.787.417c-.276.124-.566.217-.84.348s-.555.244-.826.381-.552.254-.819.397-.522.311-.785.46-.538.282-.798.437-.473.389-.73.55-.546.272-.799.439-.482.37-.731.543-.5.343-.745.521-.494.352-.735.535-.46.396-.696.585-.508.337-.74.531c-.233.195-.474.382-.702.581s-.403.46-.626.665-.46.396-.677.606c-.218.211-.452.405-.664.621-.213.217-.413.446-.619.667s-.39.463-.59.689c-.201.228-.437.423-.63.654-.191.229-.391.459-.565.7-.18.249-.34.508-.49.752-.17.274-.258.569-.374.811-.174.364-.253.545-.157.677.056.078.153.082.258.069.298-.038.726-.526.777-.582.201-.219.446-.394.648-.605.206-.214.424-.412.631-.618.21-.21.407-.429.618-.631.215-.205.397-.442.613-.639.219-.2.454-.381.675-.575.223-.195.433-.404.658-.593.226-.19.462-.367.691-.552s.491-.329.723-.51.435-.4.669-.577.464-.36.702-.534.488-.327.728-.498.495-.317.736-.486c.24-.168.468-.355.712-.523.24-.165.506-.296.75-.461.242-.164.446-.388.692-.553.242-.163.484-.328.73-.492s.522-.287.771-.453c.25-.167.483-.364.737-.534s.521-.324.778-.497c.255-.171.528-.338.767-.532.324-.262.629-.574,1.004-.792.236-.137.467-.293.715-.414s.512-.207.763-.318c.253-.112.498-.239.749-.346.274-.116.566-.197.843-.32.273-.121.546-.251.815-.386s.538-.271.795-.426c.106-.064.268-.032.206-.14-.215-.378-.274-.346-.602-.631-.052-.045-.101.021-.159.047ZM103.608,65.844c.197.244.5.381.795.493.298.113.622.157.907.216.026.005.024.047.038.025.1-.156.223-.153.188-.335-.259-.202-.535-.428-.817-.569-.298-.149-.621-.16-.951-.119-.17.021-.206-.101-.343.003-.138.105.074.154.182.287Z"/>
          <path d="M85.375,112.502c-.217.027-.572-.046-.964-.1-.315-.043-.65-.106-.957-.172-.402-.086-.746-.184-.924-.256-.197-.079-.559-.205-.862-.411-.338-.229-.649-.504-.7-.66-.074-.226-.089-.489-.102-.76-.012-.243.023-.5.028-.764.004-.266-.045-.536-.058-.801-.013-.273.03-.547-.038-.797.006-.281.079-.567.22-.881.12-.266.274-.537.457-.811.169-.253.371-.492.569-.739s.336-.542.538-.77c.219-.247.492-.427.687-.639.178-.194.318-.396.458-.555.146-.165.276-.357.431-.539.17-.2.394-.361.574-.565.177-.201.351-.405.54-.596.191-.193.351-.417.555-.586.211-.175.452-.3.678-.435.234-.14.462-.287.716-.367.261-.083.543-.117.824-.153.372-.047.723-.018,1.053.024.379.048.713.136.999.294.303.168.562.325.78.505.256.211.438.442.596.701.154.251.299.513.382.841.069.273.129.576.161.921.028.299-.015.606-.033.92-.016.299-.011.608-.067.915-.054.296-.118.598-.208.897-.087.289-.197.578-.317.866-.117.28-.257.554-.404.828-.144.268-.299.534-.471.792-.169.253-.335.514-.53.754-.192.236-.386.479-.603.7-.213.217-.442.429-.68.628-.233.196-.505.351-.76.526-.251.172-.517.325-.789.474-.267.146-.522.328-.809.45-.28.119-.575.219-.873.311-.026.008-.064.002-.099.006Z" fill="#feb3a6"/>
          <path d="M86.88,96.453c-.299.038-.597.045-.89.058-.301.013-.597,0-.889-.013-.302-.013-.602,0-.891-.042-.299-.042-.598-.072-.881-.144-.292-.074-.569-.194-.841-.299-.199-.077-.662-.361-1.043-.572-.564-.312-.665-.4-.739-.412-.109-.018-.228-.021-.328-.008-.372.047-.591.334-.792.547-.113.119-.218.238-.332.295-.122.06-.299.119-.494.144-.27.034-.574,0-.843-.054-.32-.065-.602-.186-.723-.392-.038-.065-.062-.112-.058-.126.044-.146.416-.339.671-.463.383-.185.78-.322.818-.627.039-.32-.257-.573-.565-.821-.254-.205-.578-.423-.575-.647.002-.147.148-.319.392-.505.148-.113.273-.206.375-.219.159-.02.249.141.428.333.153.163.348.331.604.41.066.02.143.038.221.028l-.007-.054c.225-.028.478-.179.754-.388.226-.171.483-.342.701-.534.21-.185.409-.358.539-.443.195-.128.467-.263.767-.429.24-.134.505-.271.779-.411.261-.133.516-.295.781-.419.281-.131.542-.288.795-.392.321-.131.619-.205.839-.26.156-.038.343-.028.545-.054.253-.032.529-.089.827-.098.266-.009.547-.031.835-.023.274.008.555.034.836.058s.556.089.83.128c.284.04.558.099.822.155.289.061.584.054.832.132.297.094.547.237.758.355.265.149.485.336.686.521.224.206.379.439.514.676.148.259.258.513.286.792.036.363-.053.697-.226,1.036-.152.297-.314.634-.619.897-.213.183-.479.31-.718.476-.232.161-.453.348-.706.491-.246.139-.506.266-.769.387-.258.119-.528.221-.799.321-.267.098-.532.219-.809.298-.275.078-.569.091-.851.148-.281.057-.56.127-.845.163ZM83.907,95.054c.134.192.353.323.617.392.235.061.5.097.747.099.293.002.562-.063.743-.086.159-.02.293-.072.405-.097.273-.061.427-.136.537-.214.056-.04.112-.05.158-.065.041-.004.1.034.169.036.105.003.226.005.316-.006.167-.021.263-.137.3-.254.058-.182-.09-.34-.241-.48-.033-.03-.013-.05-.057-.047-.487.029-.486.035-.969.096s-.483.074-.967.135-.482.096-.967.157-.495-.014-.966.119c-.152.043.086.085.177.214ZM84.043,93.186c.345-.04.798-.008,1.277.008.253.008.51.03.758.031.267,0,.522-.049.753-.078,0,0-.004-.028-.003-.028.155-.02.289-.015.406-.052.142-.043.172-.144.214-.453.046-.337.152-.934.388-1.144.015-.012.066-.037.109-.059.188-.098.42-.271.444-.506.009-.09-.018-.216-.182-.349-.074-.06-.13-.072-.789.011-.222.028-.481.039-.736.077-.257.038-.511.091-.729.125-.252.039-.448.105-.539.117-.102.013-.12.069-.158.131-.014.024-.089.037-.105.05-.006.002-.311.147-.742.364-.221.111-.455.279-.718.417-.243.127-.503.243-.743.376-.261.144-.495.311-.707.442-.355.219-.655.366-.691.469-.015.042-.009.051-.005.095.005.053.009.058.035.104.161.275.58.212.872.175.327-.041.695-.134,1.024-.219.223-.058.443-.071.563-.086.006-.001.001-.017.005-.018Z"/>
          <path d="M101.79,115.354c-.317.04-.631.011-.947-.017-.313-.028-.636-.02-.946-.101-.304-.079-.585-.243-.884-.36-.293-.115-.575-.256-.862-.395s-.572-.274-.849-.424c-.282-.153-.589-.256-.86-.409-.052-.029-.032-.063-.084-.092-.096-.054-.225-.11-.374-.169-.342-.135-.819-.304-.923-.567-.035-.09-.057-.211-.002-.329.055-.081.369-.234.651-.401s.56-.369.652-.384c.128-.016.428.028.794-.01.319-.033.694-.088,1.072-.129.373-.041.744-.114,1.069-.155.948-.12.987-.17,1.043-.219.382-.331.008-.806-.2-1.074-.046-.059-.069-.15-.083-.177-.035-.073-.048-.254-.058-.357-.015-.152-.067-.201-.135-.258-.046-.038-.113-.056-.238-.04-.163.021-.403.069-.68.249-.175.114-.359.279-.585.441-.261.185-.531.371-.654.424-.229.099-.494.167-.753.228-.25.059-.517.098-.748.191-.21.085-.435.246-.689.383-.23.124-.473.262-.717.373-.263.119-.522.25-.762.28-.191.024-.365-.021-.502-.081-.123-.061-.497-.566-.529-.694-.017-.279.246-.485.599-.681.279-.156.595-.319.881-.433.244-.098.461-.169.615-.256.304-.172.577-.441.868-.665.299-.231.625-.382.897-.528.139-.074.413-.275.788-.427.257-.104.56-.185.85-.295.292-.11.574-.245.836-.335.395-.137.729-.194.868-.211.53-.045.639.219.795.565.129.284.302.647.749.632.035-.001.071-.007.106-.012.227-.029.456-.103.656-.231.189-.12.351-.298.528-.444.343-.283.69-.612,1.069-.66.131-.016.253.06.385.101.248.078.443.171.56.341.124.181.191.406.263.617.077.228.11.468.244.632.188.23.552.25.904.328.288.064.571.167.814.311.23.135.441.329.536.669.053.19.029.344-.033.441-.119.186-.47.206-.772.255-.144.023-.285.042-.401.078-.261.081-.384.317-.506.533-.123.218-.262.444-.328.671-.056.195-.116.365-.186.479-.127.208-.225.486-.417.719-.168.205-.409.367-.611.567-.197.195-.405.378-.621.547-.226.177-.45.34-.682.466-.234.127-.463.254-.709.334-.251.082-.508.135-.767.168ZM99.94,112.673c-.193.024-.809.1-.766.532.007.073.094.149.213.244.205.163.591.297,1.003.325.435.03.88.022,1.083-.004.057-.007.106-.028.143-.037.193-.044.507-.226.859-.393.284-.134.599-.261.845-.429.351-.241.609-.508.571-.72-.063-.353-.634-.276-.902-.242-.096.012-.196.065-.314.086-.405.072-.761.174-1.065.309-.205.091-.383.23-.571.281-.024.006-.069-.061-.104-.057-.107.013-.244.036-.398.043-.195.009-.407.037-.598.061ZM103.363,109.505c-.226.029-.486.103-.66.288-.146.154-.19.393-.204.682-.006.113-.155.18-.065.248.107.081.157.004.291-.012.447-.057.804-.168,1.041-.299.407-.225.361-.475.323-.593-.086-.264-.423-.352-.725-.314Z"/>
          <path d="M111.666,108.93c-.31.039-.598-.023-.879-.09-.286-.069-.561-.159-.812-.336-.229-.161-.455-.355-.651-.604-.172-.219-.295-.492-.44-.776-.162-.318-.346-.586-.432-.866-.099-.324-.108-.643-.107-.96.001-.302.061-.606.152-.943.076-.281.164-.587.302-.918.096-.23.27-.492.451-.8.143-.245.292-.516.474-.786.167-.248.316-.525.505-.776.186-.247.368-.503.566-.737.205-.243.472-.423.68-.635.233-.238.424-.492.645-.667.286-.226.58-.337.817-.408.317-.096.611-.218.9-.255.283-.036.555-.003.812.018.279.022.534.087.784.175.253.09.494.198.719.356.212.15.406.332.596.543.203.226.31.499.364.816.049.284.116.596.081.917-.033.297-.131.601-.208.902-.078.303-.151.609-.247.888-.109.318-.283.59-.378.838-.012.032.018.043.006.075-.12.315-.223.623-.348.909-.133.307-.307.58-.453.856-.155.292-.27.599-.45.86-.183.266-.389.518-.609.756-.214.231-.481.417-.74.625-.214.172-.419.339-.635.469-.237.143-.491.216-.724.306-.259.1-.497.216-.743.248Z" fill="#feb3a6"/>
        </g>
        <path d="M84.044,93.195c.345-.04.797-.025,1.277-.01.525.017,1.068.035,1.512-.021h0c.155-.02.288-.046.405-.083.142-.043.158-.159.2-.468.046-.337.132-.966.368-1.176.015-.012.075-.043.118-.066.188-.098.444-.231.468-.465.009-.09-.015-.224-.18-.357-.074-.06-.138-.085-.798-.001-.446.056-1.03.147-1.464.215-.252.039-.452.071-.543.082-.102.013-.149.09-.188.153-.014.024-.045.073-.061.086-.019.005-3.438,1.665-3.579,2.063l-.03.084.045.096c.161.275.568.257.861.22.327-.041.699-.138,1.027-.222.223-.058.433-.112.553-.127h.007Z" fill="#fff"/>
        <path d="M108.126,91.816c.113-.011.263.005.408.021.176.019.358.039.52.019.086-.011.158-.032.222-.064.197-.099.538-.991.483-1.162-.097-.303-.554-.286-.942-.237-.958.121-2.805.696-3.088.962-.108.101-.251.34-.237.526.007.089.048.163.115.21.073.05.145.063.622.002.328-.041.766-.109,1.146-.168.286-.044.539-.083.683-.102l.066-.008Z" fill="#fff"/>
        <path d="M99.939,112.673c-.193.024-.779.098-.736.53.007.073.041.18.161.275.421.335,1.707.299,2.103.249.057-.007.105-.015.142-.024.571-.131,2.364-.963,2.267-1.508-.063-.353-.62-.283-.887-.249-.096.012-.202.029-.321.05-.405.072-.749.225-1.052.361-.205.091-.399.178-.587.229-.024.006-.054.011-.089.016-.107.013-.248.02-.401.027-.195.009-.408.02-.599.044Z" fill="#feb3a6"/>
        <path d="M103.363,109.504c-.415.052-.869.335-.9.969l-.011.225.267-.032c.447-.057.794-.151,1.031-.282.407-.225.404-.456.366-.574-.086-.264-.45-.344-.752-.306Z" fill="#feb3a6"/>
      </g>
      <g id="g" data-name="Mark">
        <path d="M259.057,95.475c1.322-.508,1.32-2.355,1.082-3.752-.188-1.099-.376-2.198-.563-3.298-.242-1.417-.485-2.839-.924-4.207-1.148-3.578-3.565-6.595-6.055-9.409-2.613-2.952-5.461-5.851-9.069-7.44-.987-.435-2.018-.765-3.057-1.056-5.909-1.656-12.165-2.068-18.24-1.201-.975.139-1.952.313-2.88.645-1.876.673-3.457,1.96-4.995,3.227-.979.807-1.958,1.616-2.868,2.5-1.925,1.87-3.516,4.049-5.098,6.217,1.827,2.269,5.389,2.903,7.887,1.404.661-.397,1.253-.922,1.973-1.195,2.141-.811,4.372.828,6.632,1.198,2.102.345,4.36-.524,5.691-2.188,1.144,1.973,3.565,3.119,5.816,2.751,1.45-.237,3.07-.997,4.264-.141.482.346.77.893,1.09,1.393,1.046,1.636,2.607,2.938,4.405,3.674.675.276,1.393.481,1.978.917,1.256.937,1.585,2.681,2.59,3.883,1.386,1.657,3.779,2.005,5.939,2.001.498,0,1.022-.008,1.46.228.422.227.7.646.96,1.048.65,1.003,1.3,2.007,1.949,3.01" fill="#675841"/>
        <path d="M252.579,107.319l2.741-4.388c1.39-2.225,2.837-4.717,2.402-7.304-.066-.394-.18-.789-.412-1.114-.537-.753-1.549-.958-2.461-1.112-2.527-.427-5.29-1.065-6.798-3.137-.814-1.118-1.155-2.533-2.017-3.614-1.533-1.922-4.28-2.324-6.279-3.755-1.357-.971-2.469-2.469-4.116-2.739-.843-.138-1.708.078-2.557-.008-1.861-.187-3.469-1.786-5.326-1.566-1.062.126-1.954.831-2.948,1.227-2.428.967-5.504-.227-6.644-2.578-.13-.269-.286-.588-.582-.631-.191-.028-.374.075-.537.179-1.184.756-2.207,1.763-2.983,2.935-.222.336-.435.697-.772.917-.671.44-1.576.173-2.277-.217s-1.383-.908-2.184-.954c-1.344-.077-2.357,1.162-3.071,2.303-1.081,1.729-2.057,3.572-2.412,5.581-.237,1.34-.19,2.714-.076,4.069.253,2.991.834,5.954,1.731,8.819,1.892,6.049,5.277,11.731,10.202,15.72,4.925,3.989,11.464,6.149,17.725,5.167,4.962-.779,9.416-3.397,13.733-5.965.949-.564,1.91-1.139,2.667-1.942,1.224-1.298,1.811-3.081,2.964-4.442.238-.28.507-.555.612-.907s-.027-.811-.379-.918" fill="#e2cbbf"/>
        <path d="M230.799,117.262c-.127.203.046.502.285.872l.016.026c.68,1.054,1.875,1.732,3.363,1.91h0c.79.094,1.612.039,2.375-.161.348-.091.702-.217.695-.466-.008-.304-.544-.467-1.595-.68-.12-.024-.213-.043-.258-.056-.241-.068-.49-.136-.744-.206-.823-.226-1.673-.459-2.417-.718-.186-.065-.402-.193-.612-.318-.215-.127-.417-.248-.579-.292-.067-.019-.125-.03-.175-.036-.214-.025-.312.055-.356.126Z" fill="#675841"/>
        <path d="M231.774,115.569c-.075.074-.108.172-.096.282.067.623,5.456,1.895,5.511,1.907.11.026.183.063.259.102.106.055.226.116.433.141h0c.109.013.233.015.381.006.334-.019.537-.063.587-.229.057-.191-.152-.347-.442-.563-.551-.411-4.102-1.458-4.791-1.611l-.047-.011c-.165-.037-.508-.114-.844-.154-.499-.06-.8-.019-.949.128Z" fill="#675841"/>
        <path d="M210.171,108.326c-.082.063-.127.149-.129.248-.005.268.314.555.699.875.089.074.174.144.204.179.438.502.86,1.041,1.267,1.562.476.608.968,1.236,1.493,1.817l.047.04.052.009c.066.011.24.198.344.31.195.21.364.392.543.413.072.009.139-.009.195-.052.182-.14.05-.433-.142-.801-.018-.035-.034-.065-.044-.085-.465-.981-1.465-2.681-2.234-3.388-.201-.185-1.408-1.119-1.998-1.189-.123-.015-.224.007-.298.064Z" fill="#675841"/>
        <path d="M232.254,113.627c.095.022.207.09.305.15.105.064.189.114.27.124.074.009.141-.018.184-.073.084-.109.075-.266-.196-.957-.325-.829-.702-1.024-1.283-1.093-.063-.008-.129-.014-.196-.021-.071-.007-.144-.014-.22-.023-.206-.025-.371-.056-.536-.103-.386-.11-1.025-.33-1.427-.509-.188-.084-.656-.402-1.152-.739-.983-.669-1.648-1.11-1.929-1.143-.067-.008-.124.004-.169.036-.062.044-.099.108-.107.181-.016.163.12.323.261.473l.038.042c.269.313.585.581.89.84.327.278.665.565.937.902.125.155.428.638.749,1.149.81,1.289,1.085,1.7,1.235,1.759.025.01.051.016.078.019.224.027.51-.171.872-.421.419-.289.941-.649,1.335-.602.02.002.039.006.058.01Z" fill="#675841"/>
        <path d="M220.288,108.229c-.512.035-1.344.108-1.879.174-.372.046-.722.141-1.06.233-.547.15-1.065.291-1.642.222-.263-.032-.518-.104-.781-.221-.117-.052-.262-.196-.403-.335-.233-.231-.474-.47-.755-.503-.201-.024-.385.061-.549.253l-.148.174.219.067c.286.087.576.276.797.518.158.173.63.783.786,1.008.049.071.099.198.152.333.134.343.3.77.681.815h0c.267.03.699-.285,1.382-.802.444-.336.947-.717,1.206-.786.202-.053.406-.039.62-.024.237.017.481.034.748-.035.175-.045,1.265-.487,1.241-.857-.005-.074-.05-.203-.299-.233-.083-.01-.187-.01-.316-.001Z" fill="#675841"/>
        <g>
          <path d="M219.727,120.324c-6.789-3.473-11.549-8.684-14.979-16.401-1.29-2.903-3.032-8.646-2.947-11.881.069-2.629,1.526-9.964,2.543-12.148.099-.212.372-.629.636-1.032.403-.614.582-.897.607-1.029.032-.168-.034-.309-.087-.423-.029-.062-.057-.12-.057-.161-.021-1.139,2.929-3.664,4.881-5.335.798-.683,1.487-1.272,1.841-1.647.282-.299.531-.629.793-.978.262-.349.534-.71.853-1.054,2.756-2.97,3.81-3.083,6.629-3.384.642-.069,1.37-.146,2.227-.27,1.148-.166,2.2-.372,3.217-.572,2.566-.503,4.783-.938,7.642-.597.254.03.514.067.778.11,7.262,1.19,13.886,4.663,18.173,9.53,2.561,2.908,6.951,8.811,7.826,12.275.452,1.789,1.048,4.855,1.216,6.568.043.442.007,1.201-.106,1.557-.038.121-.169.239-.319.377-.222.203-.499.455-.609.85-.189.679-.287,1.363-.38,2.024-.133.938-.271,1.907-.674,2.911-1.792,4.466-5.222,9.376-8.009,13.155-2.785,3.776-7.216,5.699-11.501,7.558-.905.393-1.841.799-2.737,1.213-2.776,1.283-7.475.944-9.367.738-.393-.043-.782-.086-1.169-.132-2.628-.314-4.811-.743-6.92-1.822ZM225.798,119.971l.125.035c.206.058.474.197.71.32.233.121.435.226.583.261.384.09.798.172,1.198.251.373.074.75.148,1.116.231.085.019.285.053.526.082.999.119,1.168-.017,1.223-.061.066-.053.085-.117.089-.16.011-.114-.052-.208-.801-1.029-.298-.326-.635-.695-.722-.833-.085-.134-.224-.477-.358-.809-.299-.74-.391-.933-.512-.985-.023-.01-.048-.016-.074-.02-.22-.026-.591.187-1.178.536-.372.221-.757.45-.964.501-1.528.377-2.771.489-3.913.353-1.071-.128-2.024-.474-2.914-1.058-.618-.406-2.802-2.388-2.95-2.859-.033-.103-.02-.266-.008-.409.018-.218.04-.489-.193-.517-.109-.013-.233.05-.429.218-.273.234-.407.498-.396.784.026.708.919,1.365,1.707,1.944.342.252.667.491.824.665-.022.024-.056.055-.079.076-.099.09-.305.277-.14.472.042.049.087.056.208.075.102.016.272.043.351.085.294.157.587.325.881.494.673.387,1.369.788,2.112,1.067.166.062.337.089.482.106l.238.027c.121.014.247.034.351.078.042.018.08.066.128.126.079.1.186.237.39.305.064.022.402.132.729.171.398.048.637-.034.709-.243l.044-.127-.122-.058c-.077-.036-.217-.073-.457-.134-.288-.073-1.163-.295-1.201-.459,0,0,.003-.011.017-.027.003-.002.078-.045.433-.003.676.081,1.771.391,2.239.524ZM230.799,117.262c-.127.203.046.502.285.872l.016.026c.68,1.054,1.875,1.732,3.363,1.91h0c.79.094,1.612.039,2.375-.161.348-.091.702-.217.695-.466-.008-.304-.544-.467-1.595-.68-.12-.024-.213-.043-.258-.056-.241-.068-.49-.136-.744-.206-.823-.226-1.673-.459-2.417-.718-.186-.065-.402-.193-.612-.318-.215-.127-.417-.248-.579-.292-.067-.019-.125-.03-.175-.036-.214-.025-.312.055-.356.126ZM222.699,115.222c-.157.031-.318.167-.377.315-.037.096-.029.188.024.261.139.193,2.543,1.005,2.69,1.03.095.016.193.032.292.043.338.04.832.06,1.224-.234l.178-.134-.191-.115c-.562-.339-1.197-.472-1.812-.601-.276-.058-.561-.118-.83-.195-.101-.029-.185-.087-.283-.153-.143-.098-.305-.208-.546-.237-.116-.014-.237-.008-.372.019ZM231.774,115.569c-.075.074-.108.172-.096.282.067.623,5.456,1.895,5.511,1.907.11.026.183.063.259.102.106.055.226.116.433.141h0c.109.013.233.015.381.006.334-.019.537-.063.587-.229.057-.191-.152-.347-.442-.563-.551-.411-4.102-1.458-4.791-1.611l-.047-.011c-.165-.037-.508-.114-.844-.154-.499-.06-.8-.019-.949.128ZM255.176,93c-.219.048-.445.098-.657.107-.539.022-1.124-.004-1.741-.078-2.503-.299-5.222-1.326-7.62-2.233-.509-.192-1.003-.379-1.477-.552-1.156-.422-2.791-.653-4.087-.808-.55-.066-1.093-.123-1.602-.176-.378-.04-.738-.078-1.066-.115-.43-.049-2.183-.056-2.624.042-.875.195-2.455,1.889-2.891,2.671-.981,1.759-2.575,6.159-2.991,8.259-.228,1.148-.249,1.518-.098,1.725.098.135.25.163.384.179l.221.023c.196.023.437.07.728.236.279.16.497.481.611.904.16.588.099,1.297-.147,1.725-.324.563-1.126.737-1.777.659-.332-.04-.634-.145-.851-.296-.093-.065-.167-.17-.246-.282-.136-.193-.29-.412-.592-.52-.136-.049-.418-.086-.534-.1-.946-.113-1.07.024-1.11.069-.061.068-.088.15-.079.239.025.234.29.443.634.691.081.058.172.124.198.152.165.182.283.38.398.57.231.386.45.75.976.813.084.01.175.012.271.005.619-.042,1.088-.175,1.501-.292.528-.15.983-.279,1.633-.202.321.038.667.124,1.06.263.43.152,1.717,1.254,1.887,1.614.055.12.387,1.457.417,1.683.027.2.025.392.022.596-.004.309-.007.629.094.988.419,1.499,2.452,2.47,4.086,3.251.525.251,1.02.487,1.402.713.388.229.794.594,1.188.946.437.392.851.762,1.229.944l.063.031c.118.058.229.114.364.13.099.012.197,0,.324-.044l4.822-2.625.019-.024c.631-.796,1.287-1.598,1.922-2.373,2.354-2.879,4.789-5.857,6.565-9.224.384-.728,2.295-4.433,2.194-5.853-.016-.224-.152-.418-.283-.605-.105-.151-.205-.293-.222-.423-.042-.32-.043-.607-.043-.884-.001-.743-.002-1.385-.784-2.234-.207-.226-.452-.352-.746-.387-.31-.037-.632.034-.943.102ZM210.171,108.326c-.082.063-.127.149-.129.248-.005.268.314.555.699.875.089.074.174.144.204.179.438.502.86,1.041,1.267,1.562.476.608.968,1.236,1.493,1.817l.047.04.052.009c.066.011.24.198.344.31.195.21.364.392.543.413.072.009.139-.009.195-.052.182-.14.05-.433-.142-.801-.018-.035-.034-.065-.044-.085-.465-.981-1.465-2.681-2.234-3.388-.201-.185-1.408-1.119-1.998-1.189-.123-.015-.224.007-.298.064ZM220.044,110.597c-.441.263-.858.512-1.176.611l-.138.048.04.14c.02.071-.048.349-.076.468-.051.209-.068.279.006.348.124.118.54.189,1.489.315.265.035.494.066.594.088.686.153,1.427.368,2.144.576l.405.117c.364.105.793.26,1.246.425.711.258,1.445.525,1.981.608.028.004.088.012.088.012.276.033.449-.045.514-.232.114-.331-1.692-2.362-1.711-2.38-.487-.457-2.577-1.864-3.156-1.985-.027-.006-.055-.01-.083-.014-.611-.073-1.402.398-2.166.854ZM232.254,113.627c.095.022.207.09.305.15.105.064.189.114.27.124.074.009.141-.018.184-.073.084-.109.075-.266-.196-.957-.325-.829-.702-1.024-1.283-1.093-.063-.008-.129-.014-.196-.021-.071-.007-.144-.014-.22-.023-.206-.025-.371-.056-.536-.103-.386-.11-1.025-.33-1.427-.509-.188-.084-.656-.402-1.152-.739-.983-.669-1.648-1.11-1.929-1.143-.067-.008-.124.004-.169.036-.062.044-.099.108-.107.181-.016.163.12.323.261.473l.038.042c.269.313.585.581.89.84.327.278.665.565.937.902.125.155.428.638.749,1.149.81,1.289,1.085,1.7,1.235,1.759.025.01.051.016.078.019.224.027.51-.171.872-.421.419-.289.941-.649,1.335-.602.02.002.039.006.058.01ZM220.288,108.229c-.512.035-1.344.108-1.879.174-.372.046-.722.141-1.06.233-.547.15-1.065.291-1.642.222-.263-.032-.518-.104-.781-.221-.117-.052-.262-.196-.403-.335-.233-.231-.474-.47-.755-.503-.201-.024-.385.061-.549.253l-.148.174.219.067c.286.087.576.276.797.518.158.173.63.783.786,1.008.049.071.099.198.152.333.134.343.3.77.681.815h0c.267.03.699-.285,1.382-.802.444-.336.947-.717,1.206-.786.202-.053.406-.039.62-.024.237.017.481.034.748-.035.175-.045,1.265-.487,1.241-.857-.005-.074-.05-.203-.299-.233-.083-.01-.187-.01-.316-.001ZM229.181,107.741l-.027.019-.017.028c-.059.1-.508.262-.75.349-.402.145-.569.205-.587.352-.048.391.543.528,1.019.638.127.029.248.057.308.081.237.094.518.234.815.382.466.232.948.472,1.323.564l.03.007c.049.012.094.023.138.028.144.017.262-.03.358-.143.194-.228.225-.533.089-.88-.287-.732-1.244-1.482-2.007-1.573-.272-.033-.505.017-.693.148ZM214.954,105.45c-.009.005-.85.573-.874.74-.044.317,1.889,1.105,1.909,1.11.043.01.091.019.144.025h0c.589.07,1.768-.096,2.262-.209.417-.095.509-.296.513-.448.014-.553-1.221-1.221-1.616-1.332-.287-.081-.54-.134-.774-.161-.599-.072-1.111.018-1.564.275ZM208.162,105.831c.111.041.231.069.365.085.253.03.509.012.756-.005.206-.014.4-.028.577-.009.139.017.273.067.415.119.143.053.291.109.455.132l.038.005c.925.11,1.846-.632,2.736-1.351.658-.531,1.279-1.032,1.826-1.128.239-.042,1.41-.099,1.649-.07h0c.186.028.321.133.464.245.12.094.244.191.396.229.032.008.064.014.096.018.149.018.298-.005.443-.027.132-.02.257-.04.369-.026.041.005.077.014.111.027.01.004.019.008.026.011-.059.036-.148.076-.184.092-.09.04-.202.09-.174.218.035.156.171.352.618.406.658.079,2.059-.219,2.204-.614.051-.138.046-.258-.014-.356-.069-.113-.199-.18-.399-.203-.288-.034-.69.027-.984.072-.133.02-.298.045-.338.041-.155-.026-.398-.149-.633-.269-.171-.087-.348-.178-.502-.235-.124-.046-.241-.064-.328-.075-.046-.005-.215-.02-.254-.025-.197-.024-.325-.073-.434-.269-.376-.677-.125-1.81.497-2.246.264-.185.84-.268,1.347-.341.427-.061.795-.114,1.013-.222.158-.079.244-.218.312-.357l.012-.025.003-.027c.075-.746.189-1.506.309-2.31.365-2.445.742-4.974.051-7.252-.184-.606-.989-2.48-1.342-3.01-.75-1.124-2.954-1.604-4.671-1.809-2.169-.259-4.513-.198-5.707-.005-1.219.197-1.545.463-2.415,1.173l-.037.031c-.152.124-.282.234-.399.334-.449.381-.72.611-1.482.961-.095.043-.22.073-.353.104-.3.07-.64.149-.768.443-.291.664-.388,4.293-.28,5.084.086.633.376,1.324.657,1.992.188.446.365.868.482,1.267.181.614.325,1.309.465,1.981.169.817.345,1.662.59,2.388.096.285.312.644.541,1.024.368.612.785,1.306.692,1.689-.012.05-.046.089-.101.148-.089.096-.21.227-.183.47.02.187.495,1.544.982,1.602h0c.08.009.157-.012.223-.063.045-.034.074-.077.088-.128l.175.065ZM221.57,106.046c-.269.129-.538.292-.501.515.04.239.378.323,1.03.4l.205.024c.124.015.249.031.32.048.185.046.688.27,1.131.468.632.282,1.028.456,1.184.474.022.003.087.01.144-.033.059-.044.123-.135.096-.314-.078-.511-.955-1.746-1.445-1.922-.093-.033-.196-.057-.307-.07-.595-.071-1.349.165-1.857.409ZM228.464,103.251c-.11.095-.131.276-.059.51.089.292.302.62.561.651h0c.088.01.172-.014.245-.071.059-.047.15-.159.084-.391-.077-.274-.391-.72-.651-.751-.068-.008-.132.011-.181.053ZM244.591,89.039c.757.345,1.539.701,2.389,1.046.375.152.623.231.781.25.149.018.252-.018.305-.107.1-.166-.044-.375-.284-.722-.151-.218-.321-.465-.431-.707-.103-.227-.195-.491-.293-.77-.324-.928-.692-1.979-1.667-2.319-.462-.161-.885-.298-1.278-.425-2.14-.693-3.319-1.074-4.951-3.408-.078-.112-.152-.269-.231-.436-.189-.401-.404-.856-.813-.985-.179-.057-.367-.097-.558-.119-.674-.08-1.333.06-1.969.195-.536.114-1.09.232-1.64.212-.324-.012-.638-.036-.933-.071-1.562-.186-2.774-.705-3.705-1.585-.077-.073-.192-.218-.313-.37-.335-.422-.714-.901-1.071-.944-.038-.005-.076-.004-.113.001-.113.017-.176.119-.423.545-.153.264-.343.592-.473.723-.868.882-2.171,1.291-3.576,1.124-.775-.093-1.506-.358-2.115-.767-.25-.168-.478-.396-.72-.638-.455-.456-.927-.927-1.583-1.006-.062-.007-.125-.011-.19-.011-.159,0-2.569.794-2.714.894-.329.227-.476.605-.595.909-.07.178-.135.346-.218.438-.123.136-1.47.987-1.715,1.084-.579.229-1.623.275-2.865.127-.438-.052-.877-.127-1.236-.211-.214-.05-.504-.184-.812-.326-.446-.206-.907-.419-1.307-.467-.174-.021-.32-.009-.449.037-.845.299-1.777,3.319-1.786,3.349-.057.2-.081.416-.105.624-.019.168-.039.341-.076.505-.008.036-.033.104-.063.188-.147.416-.25.748-.143.921.038.06.097.098.169.107.119.014.26-.052.469-.223,2.052-1.665,5.61-2.381,9.518-1.915,2.286.273,4.367.928,5.86,1.844.152.093.327.252.496.405.212.192.431.391.635.491.155.076.292.105.425.133.188.04.351.074.558.236.552.432.469,1.031.381,1.666-.029.209-.059.426-.062.631-.057,3.538-.318,7.235-.777,10.988-.03.24-.076.471-.122.695-.094.465-.192.946-.143,1.54.043.513.869,1.002,1.281,1.11.035.009.08.017.133.023.441.053,2.376-.01,2.649-.441l.014-.022.006-.025c.137-.606.334-1.212.525-1.799.191-.589.389-1.197.528-1.811.098-.43.173-.803.242-1.146.215-1.063.37-1.831.953-3.144.217-.489.435-.995.655-1.505.377-.875.767-1.78,1.165-2.624,1.311-2.779,2.936-3.827,6.209-4.005.799-.043,1.551-.021,2.297.068,2.18.26,3.891,1.04,5.873,1.943ZM218.765,101.562c-.125.101-.174.238-.134.378.094.329.649.571.996.613.204.024.36-.014.452-.112.094-.1.121-.223.076-.345-.119-.325-.738-.555-1.051-.592-.155-.018-.266,0-.338.059ZM258.503,92.825c-.168.116-.073.368.189.855l.016.029c.009.017.01.047.011.079.003.074.011.271.253.3.048.006.104.005.173-.002l.071-.007.039-.06c.172-.265.129-.641.009-.896-.104-.222-.267-.362-.446-.383-.107-.013-.216.017-.316.086ZM254.477,90.695c-.757.109-1.539.223-2.117.154-.092-.011-.18-.027-.261-.048-1.585-.414-2.227-2.188-2.792-3.754-.155-.428-.301-.832-.46-1.192-.383-.866-1.097-2.479-2.332-2.915-.547-.193-1.008-.267-1.414-.332-.777-.124-1.391-.222-2.269-1.059-.716-.682-1.178-1.667-1.623-2.619-.713-1.522-1.45-3.096-3.25-3.644l-.06-.018-.055.029c-.201.108-.984.177-1.556.228-.709.063-.883.084-.964.149-.042.034-.17.137-.148.279.021.138.158.193.249.229.025.01.049.018.066.029.439.27.87.339,1.275.388l.237.028c.253.03.521.069.766.176,1.002.437,1.637,1.629,2.31,2.891.693,1.3,1.409,2.645,2.611,3.361.736.439,1.486.624,2.211.804,1.289.319,2.403.595,3.135,2.191.177.385.304.839.427,1.277.156.554.317,1.127.584,1.6.904,1.603,2.352,2.534,4.306,2.767.222.027.454.044.703.052l3.378-.195.031-.099c.077-.248-.266-.656-.397-.735-.145-.088-.329-.144-.561-.172-.546-.065-1.266.039-2.028.15ZM250.15,86.421c-.092.072-.129.189-.109.348.084.695,1.431,2.62,1.896,2.83.144.065.34.113.582.142h0c.85.101,2.148-.036,2.797-.166.137-.027.553-.11.603-.405.037-.216-.141-.443-.531-.674-.668-.397-1.366-.538-2.041-.674-.691-.139-1.344-.27-1.957-.658-.059-.038-.176-.147-.289-.253-.322-.301-.565-.516-.761-.539-.091-.011-.154.021-.19.049ZM246.918,77.015c-.209.026-.278.132-.298.215-.079.326.565.799.764.936.204.14.443.254.674.364.258.123.524.25.729.409.839.651,1.209,2.073,1.536,3.328.152.583.295,1.133.476,1.594.687,1.75,1.354,1.862,2.46,2.048.333.056.711.119,1.149.237.93.249,2.161.706,2.57,1.173.018.023.071.128.118.221.271.532.517.975.79,1.008h0c.091.011.257-.014.353-.302.124-.375-1.064-3.065-1.273-3.339-.426-.558-1.093-.798-1.738-1.03-.312-.112-.606-.218-.875-.358-1.353-.7-2.984-1.926-3.578-3.086-.088-.172-.241-.624-.403-1.103-.52-1.539-.707-1.991-.945-2.02-.176-.021-.424-.061-.698-.105-.338-.054-.722-.116-1.056-.156-.36-.043-.6-.054-.756-.034ZM250.192,72.378l-.045.416c-.055.511.203.861.451,1.2.144.196.293.398.387.637.291.74.382,1.57.47,2.372.124,1.133.252,2.304.936,3.29.745,1.075,1.394,1.201,2.081,1.334.427.083.869.169,1.385.496.361.229,1.738,1.651,2.049,2.042.092.116.226.426.345.7.104.239.202.465.287.607.197.328.305.404.407.416h0c.069.008.134-.018.179-.073.201-.246-.095-1.219-.098-1.228-.277-.847-.747-1.304-1.245-1.788-.294-.286-.599-.582-.865-.972-.088-.129-.205-.379-.317-.621-.137-.294-.267-.572-.38-.723-.186-.247-.618-.413-1.035-.574-.255-.098-.497-.191-.651-.29-.24-.154-1.596-1.37-1.707-1.531-.336-.489-.448-1.309-.556-2.102-.134-.981-.273-1.996-.845-2.505-.126-.112-.275-.198-.42-.281-.227-.13-.44-.254-.583-.471l-.23-.35ZM211.669,78.352l-.051.049c-.04.038-.361,1.062-.284,1.204.079.144.656.307.938.34h0c.309.037.52-.019.627-.165.098-.133.094-.319-.011-.552-.049-.108-.986-.851-1.14-.87l-.08-.007ZM241.615,77.458c-.06.049-.094.114-.1.188-.006.081.019.129.413.679.174.243.371.519.433.635.111.211.205.424.295.63.276.628.536,1.221,1.233,1.683.495.328,1.109.431,1.702.53.511.085,1.038.174,1.48.406.071.037.184.151.293.261.2.202.39.392.578.415h0c.077.009.149-.01.207-.056.282-.22-.687-2.59-.699-2.612-.437-.849-1.315-1.026-2.164-1.197-.434-.088-.883-.178-1.259-.359-.27-.13-.581-.393-.882-.648-.316-.268-.614-.52-.854-.603-.055-.019-.121-.033-.192-.042-.123-.015-.35-.023-.485.089ZM210.253,75.083c-.025.108-.054.231-.072.263-.08.095-.909.744-1.044.825-.074.045-.24.112-.432.191-.743.304-1.365.585-1.437.955-.018.092-.009.232.133.372.239.233.847.398,1.344.457h0c.314.037.889.07,1.207-.135.478-.307,1.115-1.603,1.239-2.521.055-.408.003-.704-.155-.879-.108-.12-.209-.184-.31-.196-.31-.037-.401.354-.474.669ZM222.261,73.208c.15.052.295.142.448.236.263.162.56.346.967.395l.056.006c.551.048,1.209-.47,1.664-.913.949-.923,1.936-2.426,1.891-3.192-.01-.172-.381-.917-.612-.952-.286-.034-.37.358-.445.705-.022.104-.048.223-.068.264-.218.449-1.729,1.659-2.261,1.918-.809.394-1.333.362-2.058.318-.217-.013-.448-.027-.706-.03-.133-.002-.248.063-.339.116-.029.017-.074.042-.074.045-.023-.005-.081-.057-.113-.085-.071-.064-.144-.13-.255-.143h-.001c-.073-.004-.132.035-.229.1-.102.069-.241.163-.378.189-.364.072-.764.05-1.189.028-.442-.023-.9-.048-1.355.032-.743.13-3.233,1.158-3.667,1.832-.133.208-.213.466-.29.716-.025.081-.049.16-.075.234l-.015.042.011.044c.068.268.041.819.014,1.353-.038.757-.053,1.232.06,1.458.062.124.144.252.285.269.144.017.254-.094.352-.217.207-.261.291-.603.372-.934.048-.199.095-.386.164-.541.85-1.9,2.592-3.043,5.328-3.495.542-.089,1.001-.107,1.443-.054.34.041.691.125,1.074.258ZM225.741,74.755c-.158.117-.322.238-.463.282-.519.162-1.127.132-1.714.102-.413-.021-.84-.042-1.233.003-.153.013-.323.007-.522-.016-.373-.045-.786-.148-1.185-.249-.395-.1-.803-.202-1.17-.246-.233-.028-.431-.03-.606-.007-.433.057-1.917,1.327-1.879,1.829.021.279.213.331.295.341.179.021.393-.075.599-.168.099-.044.221-.1.269-.103.214-.014.436-.008.658.018.716.085,1.431.379,2.011.827.271.209.486.451.694.685.438.492.852.957,1.686,1.056.051.006.104.011.158.014.967.057,2.038-.369,2.793-1.111.648-.637.986-1.425.952-2.22-.008-.183-.214-1.195-.527-1.33-.035-.015-.071-.025-.109-.029-.232-.028-.462.142-.706.322ZM228.828,72.504c-.199.189-.247.745-.166,1.92.005.07.008.119.008.137,0,.15-.007.253-.014.348-.01.156-.02.304,0,.601.011.149.013.273.015.383.008.412.013.66.409,1.165,1.061,1.351,2.088,2.233,3.928,2.453.186.022.383.038.587.047.58.026,1.119-.011,1.689-.05.593-.04,1.207-.082,1.889-.05.31.014.675-.002.736-.26.105-.439-.988-.952-.999-.957-.605-.272-1.401-.456-2.171-.633-.584-.135-1.135-.262-1.604-.423-1.186-.408-2.926-2.421-3.519-3.579-.062-.121-.144-.445-.198-.659-.073-.292-.087-.341-.132-.385-.083-.079-.161-.122-.241-.131-.08-.01-.158.017-.219.075ZM249.355,79.871l-.478.176.397,1.08.478-.176-.397-1.08ZM211.128,74.062l.172.061.029-.181c.017-.107.317-.548.496-.812.367-.539.433-.636.335-.753-.04-.048-.094-.077-.157-.084-.219-.026-.496.209-.995.714-.093.094-.169.172-.21.204-.122.095-.269.174-.411.252-.191.103-.388.21-.543.361-.006.006-.564.639-.407.824.043.05.102.081.171.089.187.022.421-.114.788-.338.246-.15.582-.356.72-.339l.011.002ZM253.85,76.649h-.016c-.136.013-.239.08-.292.189-.167.346.274,1.031.325,1.108.007.011.879,1.095,1.086,1.119l.063.006.047-.033c.109-.076.221-.239.135-.581-.155-.619-.995-1.767-1.322-1.806l-.028-.002ZM233.021,75.37c-.086.032-.137.115-.126.206.015.126.144.239.293.257h0c.06.007.121,0,.181-.023.086-.032.136-.115.126-.206-.015-.126-.144-.239-.293-.256-.061-.007-.121,0-.181.022ZM237.278,72.161c-.372.121-.756.246-1.161.246-.313,0-.67-.024-1.061-.07-1.239-.148-2.781-.529-3.838-.949-.056-.022-.185-.1-.309-.175-.273-.166-.447-.267-.559-.281-.072-.009-.12.017-.147.04-.075.064-.159.183-.13.39.111.795,1.9,2.366,2.349,2.567.5.224,1.02.366,1.59.434h0c.68.081,1.356.047,2.01.015.448-.022.912-.045,1.378-.032.19.005.368.018.527.037,1.03.123,1.35.511,1.834,1.1.209.254.446.542.776.849.209.195.355.288.476.302.086.01.164-.02.215-.083.076-.094.123-.274-.094-.892l-.061-.173c-.309-.885-.825-2.367-1.359-2.921-.359-.373-.732-.578-1.14-.627-.445-.053-.879.088-1.299.224ZM242.834,75.233l-.44.249.612,1.082.44-.249-.612-1.082ZM240.164,71.397l-.137.206.248.03c.23.027.614.458.869.742.242.271.374.414.493.456.024.008.048.015.073.019l-.081.044.428,1.536.025.027c.053.056.128.094.206.103h0c.086.01.166-.015.224-.072.048-.046.102-.134.088-.292-.047-.545-.423-1.083-.643-1.355.013-.003.025-.005.038-.008.063-.013.118-.025.172-.019.037.004.097.019.184.09.448.369.577.953.701,1.517.056.253.113.515.199.749.004.01.496,1.081.602,1.164.05.039.141.069.93.276.236.062.456.119.563.151.017.005.035.015.055.024.049.023.11.052.177.06.07.008.241.002.32-.24.064-.198-.151-.487-.622-1.054-.126-.152-.245-.295-.291-.368-.094-.151-.21-.357-.343-.592-.546-.965-1.293-2.286-1.97-2.544-.142-.054-.289-.078-.431-.102-.157-.027-.32-.054-.476-.121-.108-.047-.247-.162-.382-.274-.226-.188-.459-.383-.707-.413-.139-.017-.34.015-.511.26ZM231.846,65.843c-.181.039-.377.081-.59.126-.069.014-.203.034-.374.06-1.639.248-2.151.411-2.191.701-.071.519,2.451,1.529,2.664,1.578.14.033.285.058.431.075.749.089,1.471-.036,2.168-.157.689-.119,1.401-.243,2.132-.156.144.017.286.042.424.075,1.385.325,6.18,2.683,7.225,3.555.49.408,1.414,1.521,1.773,2.085.174.273.289.527.401.772.283.624.528,1.163,1.567,1.467.245.072.503.106.726.132l.24.028c.326.039.671.089.982.229l.175.079.034-.189c.084-.46.012-.909-.059-1.249-.297-1.407-1.509-2.889-2.456-3.731-1.224-1.089-2.781-1.475-4.429-1.884-1.408-.35-2.865-.711-4.136-1.549-.387-.255-.675-.538-.954-.811-.488-.478-.948-.929-1.841-1.172-.591-.161-1.052-.258-1.452-.305-.873-.104-1.47.025-2.46.239ZM219.909,70.298c.463.085.942.173,1.42.23.26.031.499.051.754.058.515-.071,2.37-1.25,2.431-1.707.03-.223-.067-.397-.272-.49-.076-.035-.168-.058-.283-.072-.581-.069-1.648.138-2.506.305-.421.082-.788.153-1.016.177-.128-.038-.263-.066-.399-.082-.515-.061-1.01.041-1.49.139-.363.075-.705.145-1.036.142-.051,0-.105-.005-.161-.011-.18-.021-.381-.069-.575-.114-.169-.04-.328-.077-.455-.092-.074-.009-.134-.01-.183-.002-.242.035-3.291,2.316-3.326,2.668-.028.282.152.326.207.333.082.01.163-.019.234-.044.022-.008.043-.015.062-.02.494-.131.954-.444,1.399-.746.341-.232.664-.451.998-.593.809-.344,1.678-.437,2.818-.301.457.054.925.141,1.379.224ZM234.904,69.287c-.413.058-.881.125-1.479.159-.093.005-.4-.015-.696-.035-.965-.064-1.073-.057-1.149.003-.091.071-.123.517-.08.586.078.124.359.201,2.006.555.827.178,1.765.379,2.005.495.057.015.113.026.17.033h0c.406.048.815-.104,1.176-.238.227-.084.442-.164.616-.179.111-.009.352.011.607.031.872.072,1.208.077,1.271-.151.051-.184-.128-.341-.707-.625-.865-.425-1.518-.646-2.116-.717-.562-.067-1.031,0-1.625.084ZM226.492,65.82c.153-.038.316-.052.489-.067.215-.019.437-.038.679-.103.709-.19,1.017-.38,1.001-.616-.009-.125-.113-.285-.559-.338-.327-.039-.735-.008-1.091.084-.222.057-.402.172-.577.283-.149.095-.29.185-.441.226-.358.097-.688.138-1.007.178-.533.066-1.085.135-1.769.463-.629.302-.955.27-1.406.226-.248-.024-.529-.051-.905-.028-.259.016-2.01.547-2.204,1.021-.042.104-.025.21.05.293.051.057.131.074.202.082h0c.428.051,1.879-.112,3.282-.27,1.208-.136,2.457-.277,2.779-.245l.039.004.036-.016c.176-.077.355-.178.353-.347-.002-.18-.197-.259-.386-.335-.039-.016-.095-.038-.139-.06.22-.078,1.288-.367,1.573-.437ZM239.621,65.975c-.366-.044-.494.101-.538.192-.048.1-.083.313.226.623.722.723,4.06,1.682,4.438,1.788.17.048.335.081.503.101.069.008.139.014.209.018l.493.025-2.003-1.494-.037-.006c-.502-.078-1.085-.359-1.648-.63-.569-.274-1.106-.533-1.587-.61l-.057-.008ZM207.999,105.664c-.003-.2-.142-.477-.295-.781-.092-.184-.231-.461-.228-.525.025-.117.465-1.242.564-1.481.053-.127.14-.277.253-.263.262.031.634.686.653,1.149.034.848-.181,1.321-.823,1.807l-.125.094Z"/>
          <path d="M235.517,97.951c-.287-.374-.507-.809-.72-1.229-.189-.373-.367-.725-.588-1.038-.179-.253-.351-.442-.503-.608-.469-.514-.627-.687.166-1.742,1.414-1.881,3.981-2.005,5.886-1.777.137.016.275.035.41.055,1.884.282,5.126,2.614,5.981,4.303.41.811.293.918-.054,1.238-.116.106-.247.227-.386.394-.115.139-.223.275-.329.409-.278.351-.54.682-.892,1.005-1.275,1.169-2.922,1.7-4.638,1.495-1.689-.201-3.268-1.114-4.333-2.505ZM241.125,96.146c-.097.095-.084.222-.069.369.013.123.029.277-.001.478-.012.083-.05.169-.09.259-.066.15-.141.319-.115.521.036.28.212.452.494.486.452.054,1.111-.268,1.328-.373.759-.37,1.078-.674,1.034-.985-.048-.341-.519-.564-1.575-.745-.219-.037-.387-.065-.516-.08-.236-.028-.392-.026-.489.07ZM241.109,93.311l-.172.029c-.032.005-.068.006-.108,0-.157-.019-.348-.113-.532-.205-.196-.097-.398-.198-.585-.22-.202-.024-.469.035-.6.454l-.055.177.185.017c.067.006.133.014.2.021.121.014.242.031.363.048.123.017.246.034.37.049.102.012.204.023.316.032.031.004.067.012.105.021.052.012.107.024.158.03.044.005.179.021.274-.065.039-.035.086-.101.084-.214l-.002-.175Z"/>
          <path d="M242.832,113.544c.631.075,1.046-.375,1.177-.854.116-.427.022-.951-.451-1.158-.113-.049-.227-.081-.339-.095-.628-.075-1.115.432-1.253.947-.048.179-.158.782.45,1.043.142.061.282.1.415.116Z"/>
          <path d="M239.08,110.719c-1.885-.843-2.587,2.216-.377,2.17,1.212-.025,1.012-1.886.377-2.17Z"/>
          <path d="M245.962,114.692c.262.031.904.026,1.191-.694.147-.367.164-.985-.189-1.139-.069-.03-.148-.051-.234-.061-.183-.022-.38.007-.527.076-.097.063-1.066.899-1.142.989-.055.091-.059.196-.004.309.123.253.503.472.905.52Z"/>
          <path d="M235.14,109.584c.406.048.782-.059.959-.274.127-.154.151-.361.069-.614-.049-.152-.581-.728-.741-.772-.075-.02-.147-.035-.217-.043-.288-.034-.528.034-.694.196-.191.186-.276.491-.242.859.039.407.49.603.865.648Z"/>
          <path d="M247.244,110.998c.423.05.826-.357.937-.768.048-.178.104-.615-.406-.835-.124-.054-.275-.092-.437-.111-.413-.049-.775.037-.922.219-.094.116-.106.28-.035.488.208.608.514.966.863,1.008Z"/>
          <path d="M245.327,108.117c.212.025.401-.038.534-.178.163-.173.221-.446.164-.77-.039-.113-.503-.726-.595-.796-.104-.064-.216-.104-.326-.118-.266-.032-.517.099-.656.34-.176.306-.127.694.133,1.038.211.279.476.451.747.484Z"/>
          <path d="M250.821,106.317c-1.847-.741-1.036,2.226.429,1.971,1.081-.188.262-1.694-.429-1.971Z"/>
          <path d="M241.542,110.15c.355.042.587-.263.653-.564.087-.398-.079-.881-.644-1.062-.11-.035-.215-.059-.312-.071-.325-.039-.558.055-.659.264-.119.247-.05.682.37,1.096.202.198.406.315.592.337Z"/>
          <path d="M242.679,116.378c.314.037.678-.126.867-.388.105-.145.2-.381.06-.677-.11-.233-.338-.387-.625-.421-.306-.036-.613.07-.782.272-.147.176-.182.411-.1.682.12.397.382.508.581.532Z"/>
          <path d="M208.025,92.786c-.222-.324-.446-.652-.681-.974-.142-.194-.297-.352-.446-.505-.401-.408-.691-.703-.449-1.416.073-.216.7-1.126.889-1.314,1.05-1.041,4.718-1.551,6.555-1.331.183.022.345.051.482.085.592.15,2.221,1.069,2.739,1.439.446.319,1.551,1.421,1.753,1.831.277.562.156.823-.01,1.184-.072.155-.153.331-.21.547-.047.179-.062.363-.076.541-.016.205-.031.4-.094.577-.09.257-.776.802-1.098.988-.559.321-3.074,1.318-3.739,1.48-.633.155-1.198.2-1.725.137-1.797-.214-2.814-1.699-3.891-3.27ZM213.907,92.634c-.263.047-.428.239-.421.489.009.298.274.629.765.688h0c.154.018.321.008.496-.03.212-.046.47-.388.533-.587.041-.13.004-.207-.034-.249-.106-.116-1.249-.31-1.26-.311-.031-.004-.055-.005-.079,0ZM209.891,89.095c-.333.151-.51.315-.54.501-.015.09,0,.227.15.367.128.119,1.914.667,2.012.688.271.059.619.114,1.034.163.38.045.809.085,1.205.111.521.034,2.035.086,2.516.002.282-.049.36-.191.375-.301.073-.524-1.293-1.295-1.308-1.301-.67-.322-1.447-.542-2.246-.638-1.174-.14-2.31.005-3.198.408Z"/>
          <path d="M210.913,103.955c.381.045.729-.062.909-.279.157-.19.186-.46.084-.782-.108-.342-.811-.623-1.277-.695l-.032-.004c-.309-.037-.645.073-.817.268-.109.123-.143.27-.103.435.171.692.772,1.002,1.235,1.057Z"/>
          <path d="M207.34,101.462c.317.038.739-.328.85-.739.062-.227.05-.536-.36-.716-.119-.052-.233-.085-.341-.098-.456-.054-.694.264-.759.553-.081.359.052.82.535.983.024.008.049.014.074.017Z"/>
        </g>
        <path d="M267.773,99.698c-.014.036-.049.075-.073.101-.008.008-.014.013-.014.013-.004.011-.012.019-.023.022-.029.007-.057.017-.083.032-.002,0-.007.002-.01.003-.01.002-.019.005-.029.008-.002,0-.005,0-.008,0-.005,0-.011,0-.014-.002-.004-.002-.006-.003-.009-.005-.005-.005-.011-.008-.017-.011-.005-.003-.01-.006-.014-.009-.002-.002-.005-.004-.007-.005-.003-.003-.007-.007-.01-.01l-.008-.009c-.009-.011-.01-.027-.001-.039.02-.03.045-.056.075-.077.058-.038.13-.058.215-.059.011,0,.021.005.028.014.006.01.007.021.003.031Z" fill="#fff"/>
        <path d="M213.907,92.634c-.263.047-.428.239-.421.489.009.298.274.629.765.688h0c.154.018.321.008.496-.03.212-.046.47-.388.533-.587.041-.13.004-.207-.034-.249-.106-.116-1.249-.31-1.26-.311-.031-.004-.055-.005-.079,0Z" fill="#fff"/>
        <path d="M241.125,96.146c-.097.095-.084.222-.069.369.013.123.029.277-.001.478-.012.083-.05.169-.09.259-.066.15-.141.319-.115.521.036.28.212.452.494.486.452.054,1.111-.268,1.328-.373.759-.37,1.078-.674,1.034-.985-.048-.341-.519-.564-1.575-.745-.219-.037-.387-.065-.516-.08-.236-.028-.392-.026-.489.07Z" fill="#fff"/>
        <path d="M229.181,107.741l-.027.019-.017.028c-.059.1-.508.262-.75.349-.402.145-.569.205-.587.352-.048.391.543.528,1.019.638.127.029.248.057.308.081.237.094.518.234.815.382.466.232.948.472,1.323.564l.03.007c.049.012.094.023.138.028.144.017.262-.03.358-.143.194-.228.225-.533.089-.88-.287-.732-1.244-1.482-2.007-1.573-.272-.033-.505.017-.693.148Z" fill="#675841"/>
        <path d="M214.954,105.45c-.009.005-.85.573-.874.74-.044.317,1.889,1.105,1.909,1.11.043.01.091.019.144.025h0c.589.07,1.768-.096,2.262-.209.417-.095.509-.296.513-.448.014-.553-1.221-1.221-1.616-1.332-.287-.081-.54-.134-.774-.161-.599-.072-1.111.018-1.564.275Z" fill="#675841"/>
        <path d="M221.57,106.046c-.269.129-.538.292-.501.515.04.239.378.323,1.03.4l.205.024c.124.015.249.031.32.048.185.046.688.27,1.131.468.632.282,1.028.456,1.184.474.022.003.087.01.144-.033.059-.044.123-.135.096-.314-.078-.511-.955-1.746-1.445-1.922-.093-.033-.196-.057-.307-.07-.595-.071-1.349.165-1.857.409Z" fill="#675841"/>
        <path d="M222.699,115.222c-.157.031-.318.167-.377.315-.037.096-.029.188.024.261.139.193,2.543,1.005,2.69,1.03.095.016.193.032.292.043.338.04.832.06,1.224-.234l.178-.134-.191-.115c-.562-.339-1.197-.472-1.812-.601-.276-.058-.561-.118-.83-.195-.101-.029-.185-.087-.283-.153-.143-.098-.305-.208-.546-.237-.116-.014-.237-.008-.372.019Z" fill="#feb3a6"/>
        <path d="M220.044,110.597c-.441.263-.858.512-1.176.611l-.138.048.04.14c.02.071-.048.349-.076.468-.051.209-.068.279.006.348.124.118.54.189,1.489.315.265.035.494.066.594.088.686.153,1.427.368,2.144.576l.405.117c.364.105.793.26,1.246.425.711.258,1.445.525,1.981.608.028.004.088.012.088.012.276.033.449-.045.514-.232.114-.331-1.692-2.362-1.711-2.38-.487-.457-2.577-1.864-3.156-1.985-.027-.006-.055-.01-.083-.014-.611-.073-1.402.398-2.166.854Z" fill="#feb3a6"/>
      </g>
    </g>
  </g>
</svg>