<?xml version="1.0" encoding="UTF-8"?>
<svg id="b" data-name="Layer 2" xmlns="http://www.w3.org/2000/svg" width="601.516" height="457.466" viewBox="0 0 601.516 457.466">
  <g id="c" data-name="Layer 1">
    <path d="M584.54,273.268c-.007-2.491.585-5.447,1.316-8.137,1.065-1.967,2.025-3.966,2.872-5.978,4.759-8.903,8.334-18.249,10.597-27.664,2.282-9.292,4.478-23.299-2.781-37.574-.126-.248-.258-.497-.392-.744-3.045-5.564-7.747-9.961-13.335-12.594-.992-.765-2.011-1.53-3.048-2.303-.662-.496-1.496-1.118-2.368-1.785.789-3.129,1.297-6.803,1.133-11-.624-18.714-21.544-47.954-31.969-55.595-1.806-1.298-3.601-2.351-5.31-3.219-.478-2.447-1.245-5.097-2.489-7.808-5.445-11.897-17.381-20.597-33.61-24.499-7.925-1.905-16.62-2.592-23.915-1.894-7.606-.505-14.611-.082-16.834.156-14.21,1.538-25.258,6.176-34.26,9.95-7.818,3.251-13.8,5.735-21.217,6.508-7.602-2.59-16.83-5.258-25.352-7.308-19.187-4.614-27.792-4.597-33.446-3.579-4.175-6.5-10.161-12.782-19.582-15.539-.438-.13-.878-.246-1.32-.353-.284-.068-.568-.133-.855-.191-8.732-1.812-15.761.79-21.969,3.335-2.239-3.285-4.34-6.238-5.627-7.773-13.37-16.142-26.805-25.655-41.076-29.087-10.599-2.549-21.223-1.633-31.113,2.622-10.016-11.602-22.487-25.291-40.991-29.74-12.293-2.956-25.024-1.48-38.919,4.51-9.326,4.019-15.543,12.656-16.704,22.361-2.041-.115-4.037-.096-6.015.057-16.621,1.37-25.175,8.211-32.092,15.56-.019.02-.038.04-.055.061-7.682-.06-21.555,1.18-32.34,13.572l-3.328,3.86C6.332,120.796-4.768,140.237,1.636,160.657c3.265,10.221,11.565,17.854,22.205,20.412,10.947,2.632,23.665-.03,43.059-9.116,7.449-.467,14.836.168,22.018,1.895.375.09.749.184,1.124.277.67.333,1.363.661,2.093.988.058.027.165.073.23.103-4.478,4.904-9.071,9.663-11.023,11.469-2.453,1.977-4.919,3.895-7.381,5.8-20.242,15.779-45.436,35.417-40.284,73.551,1.574,11.637,10.163,20.804,21.169,23.45,2.038.49,4.16.758,6.337.772,1.039.011,2.064.012,3.075.012-3.344,9.528-5.65,18.318-5.718,26.386-.144,12.671,2.967,19.874,8.033,27.385.07.101.139.202.21.303.154.223.323.453.489.718,3.999,6.422,10.322,10.819,17.363,12.512,4.351,1.046,8.978,1.06,13.501-.118,4.315-1.126,8.128-2.716,10.642-3.766l1.959-.793c.743-.302,1.471-.633,2.185-.995.345-.142.688-.291,1.027-.445.446-.103.898-.209,1.354-.324,10.995-2.687,23.616-2.353,37.514.989,3.381.813,6.809,1.858,10.242,3.003-1.364,4.676-2.13,10.191-1.985,16.907.226,11.787,9.026,49.917,33.964,61.95.579.28,1.245.57,1.841.808.13.052.269.107.419.164,3.262,3.615,7.125,6.296,11.561,8.016.668.828,1.654,1.988,2.918,3.199,3.639,3.488,8.076,5.861,12.812,7,4.654,1.119,9.598,1.044,14.353-.338.752-.22,1.639-.522,2.511-.854,2.289-.714,4.432-1.659,6.458-2.721,3.641,2.842,8.446,5.616,14.647,7.108,4.957,1.192,10.211,1.416,15.535.677,2.786-.377,5.183-1.033,7.194-1.747,2.389-.391,4.727-1.076,7.011-2.058.753.044,1.509.057,2.268.04,24.403-.404,50.316-25.773,56.498-35.773,4.317-6.919,6.622-13.022,7.735-18.508,19.343,6.273,35.367,16.172,45.659,28.312,2.878,3.41,6.085,6.292,9.579,8.621.52.561,1.063,1.109,1.616,1.649l.386-.392c.021.009.039.02.059.032l-.396.407c3.664,3.567,8.163,5.998,12.973,7.155,4.397,1.057,9.056,1.05,13.577-.124,11.356-2.952,20.243-9.447,27.155-19.834,2.996-4.491,5.056-9.671,6.691-16.382,6.938,1.524,14.352.389,20.65-3.477,17.499-10.742,34.817-33.805,17.97-82.607-.367-1.079-1.002-2.675-1.813-4.59,2.63-2.753,4.73-6.083,6.086-9.866,1.302-3.634,2.135-7.185,2.577-10.643,5.168,5.513,11.192,10.284,17.685,14.022,3.22,2.439,6.955,4.208,10.965,5.172,3.029.728,6.092.977,9.312.75,13.173-.629,24.543-9.912,27.711-23.085,1.765-7.34.67-14.683-2.703-20.846Z" fill="#efeeea"/>
    <path d="M203.316,331.018c16.497-36.386,52.125-60.58,72.36-95.028,2.78-4.733,5.276-9.689,6.673-14.998,1.439-5.467,1.679-11.167,1.912-16.815.415-10.066.829-20.132,1.244-30.198.44-10.675.878-21.394-.199-32.024-2.511-24.772-13.175-48.083-26.508-69.112.715,6.974,1.429,13.947,2.144,20.921.101.984.186,2.043-.31,2.898-.611,1.053-1.904,1.467-3.094,1.724-14.029,3.034-28.44-3.987-39.308-13.362-10.868-9.375-19.459-21.158-30.335-30.523-.215,7.22,1.565,14.401,1.202,21.615s-3.662,15.075-10.438,17.576c-5.213,1.924-11.104.162-15.925-2.6s-9.057-6.499-14.025-8.989c-5.088-2.55-10.864-3.709-16.542-3.319,1.388,3.657,3.14,7.176,5.22,10.489-10.922-1.582-22.438-3.102-32.696.968-4.963,1.97-9.342,5.153-13.531,8.465-11.308,8.942-21.672,19.075-30.866,30.179,14.548-3.263,28.897,4.792,43.258,8.799,3.145.877,6.482,1.565,9.652.783s6.096-3.427,6.193-6.69c.153-5.148-6.086-10.853-2.334-14.381.899-.845,2.154-1.177,3.359-1.439,14.335-3.121,29.839-.496,42.348,7.17.981.601,2.005,1.305,2.404,2.384.33.893.171,1.885-.027,2.816-3.058,14.366-13.907,25.53-22.504,37.438-5.002,6.929-9.339,14.312-14.115,21.399-14.771,21.917-33.578,40.761-52.26,59.455,6.251-.532,12.631-1.056,18.731.414,6.099,1.47,11.98,5.305,14.249,11.155,2.294,5.913.558,12.539-1.194,18.635-3.318,11.547-6.636,23.093-9.954,34.64,34.86-6.892,72.095-1.048,103.169,16.19" fill="#ceaf81"/>
    <path d="M328.491,320.599c-5.523-17.494-11.046-34.987-16.568-52.481-3.778-11.967-7.601-24.478-5.577-36.862,1.624-9.936,6.882-18.861,12.261-27.371,16.136-25.53,34.293-49.781,54.247-72.453,2.406-2.734,5.159-5.621,8.77-6.091,3.19-.415,6.248,1.165,9.245,2.333,29.51,11.497,61.81-15.697,92.956-9.958,2.26.416,4.624,1.084,6.17,2.785,1.844,2.027,2.083,4.988,2.927,7.595,5.369,16.591,33.483,16.702,38.015,33.541,2.468,9.171-3.767,18.515-3.465,28.007.405,12.693,11.794,21.74,19.527,31.812,7.734,10.073,10.165,28.046-1.632,32.747,6.08-1.838,5.191-11.831-.284-15.049-5.476-3.218-12.407-1.723-18.5.071s-12.749,3.778-18.612,1.334c4.103-10.798,12.461-19.912,22.863-24.933-5.576-10.822-12.203-22.585-23.728-26.507-11.525-3.922-27.24,7.036-22.473,18.238-7.3,3.679-14.6,7.358-21.9,11.037-5.937,2.992-12.686,7.163-13.029,13.803-.204,3.942,2.021,7.552,4.161,10.868,7.176,11.116,14.353,22.232,21.529,33.348-9.476-3.891-18.953-7.782-28.429-11.673-8.146,15.008.829,33.283,10.098,47.625,9.269,14.342,19.442,31.431,13.367,47.391-4.009-9.563-11.462-17.639-20.673-22.401-12.161,15.395-18.722,35.118-18.206,54.73-20.522-30.536-61.358-45.779-96.869-36.158-2.847-9.593-3.938-19.705-3.203-29.685" fill="#ceaf81"/>
    <g>
      <g>
        <path d="M388.435,310.621c-.501,2.653-1.714,5.134-3.787,7.862-1.881,2.406-4.005,4.301-6.346,5.577-2.313,1.255-4.928,2.155-7.741,2.639-2.977.501-5.579.583-7.963.236-1.127-.158-2.091-.333-2.955-.541-1.534-.369-2.64-.804-3.522-1.413-1.684-1.169-3.067-2.832-4.585-5.545-1.239-2.166-2.569-4.523-4.443-7.182-.855-1.196-1.534-1.982-2.073-2.593-.783-.924-1.16-1.354-1.546-2.409-.356-.991-.704-2.49-1.118-4.853-.615-3.431-.678-6.305-.158-9.037.696-3.653,1.699-6.497,3.077-8.712,1.598-2.559,3.951-4.455,6.237-6.17l.358-.253c2.23-1.671,4.516-3.385,6.925-3.995,2.331-.571,4.8-.289,7.791.289l.799.192c2.376.571,4.622,1.592,6.881,3.126,2.317,1.576,4.89,3.327,6.764,5.702,1.772,2.322,3.099,5.358,4.374,8.325.397.916.689,1.694.961,2.467.842,2.297,1.472,4.712,1.882,7.188.615,3.714.672,6.614.188,9.101Z"/>
        <path d="M215.944,279.968c-2.615,2.342-5.747,4.249-8.553,5.175-2.198.748-8.989,1.614-10.894,1.256-1.997-.369-4.104-2.29-6.164-4.159-.556-.524-1.172-1.024-1.766-1.544-1.148-.953-2.233-1.837-3.102-2.794l-.155-.171c-.288-.362-.576-.724-.841-1.106-1.395-2.162-1.967-4.758-2.446-6.847l-.185-.829c-.796-3.422-.766-6.782.138-10.251.922-3.672,2.113-7.494,4.51-10.479,2.47-3.083,6.095-5.25,9.61-7.225,4.008-2.235,7.385-3.337,10.61-3.49,3.187-.149,6.274.663,9.444,2.46,2.121,1.222,3.784,2.518,5.21,4.09l.232.256c.552.653,1.096,1.342,1.605,2.126.815,1.255,1.476,2.431,2.129,3.552.717,1.281,1.339,2.368,2.036,3.449.148.208.297.416.467.604l.016.017c.682.752,1.436,1.314,2.043,1.761.392.298.722.528.977.764-.007.349-.195,1.392-1.502,4.417-.323.76-.595,1.443-.78,1.954-.74,2.042-2.521,4.812-5.47,8.484-.625.785-1.256,1.607-1.881,2.392-1.681,2.211-3.422,4.445-5.289,6.138Z"/>
        <path d="M559.098,285.971c-.33-.173-.567-.48-.672-.818-2.901-8.695-2.43-18.517,1.482-30.917.028-.118.086-.229.144-.34,1.424-2.313,2.628-4.742,3.532-7.211.058-.111.123-.252.21-.355.058-.111.138-.186.167-.179,3.703-6.889,6.452-14.07,8.199-21.335,1.407-5.723,2.42-12.384-.548-18.221-.237-.432-.517-.686-.869-.771-.176-.042-.359-.055-.549-.039-.19.017-.38.034-.556-.009-.264-.063-.477-.208-.683-.383-1.443-1.347-3.569-2.952-5.856-4.657-5.545-4.145-12.487-9.314-15.177-15.147-2.645-5.76-1-8.863.588-11.856,1.126-2.104,2.194-4.096,2.068-7.313-.233-7.023-14.27-29.363-20.359-33.826-1.691-1.219-3.7-1.89-5.856-2.595-2.991-.969-6.071-1.96-8.189-4.625-1.927-2.432-1.995-5.759-2.062-8.962-.045-2.261-.09-4.396-.781-5.905-1.769-3.862-7.125-7.118-14.715-8.943-5.041-1.212-10.669-1.659-14.865-1.231-.313.268-.75.413-1.168.344-6.296-.764-13.637-.405-15.165-.241-10.028,1.088-17.948,4.37-26.327,7.885-10.334,4.295-20.988,8.763-36.047,8.984-.124.001-.249.003-.395-.032-.058-.014-.117-.028-.169-.072-7.048-2.664-17.831-5.912-27.445-8.224-11.196-2.692-19.382-3.848-22.434-3.145-5.112,1.145-9.047,3.198-13.16,6.895-.24.224-.583.36-.897.378-.439.02-.87.009-1.281-.089-3.458-.832-5.814-5.865-8.533-11.706-2.392-5.136-5.089-10.94-8.043-11.807-.857-.175-4.372,1.292-6.954,2.358-4.558,1.934-9.728,4.097-13.795,4.119-2.67.014-5.651-.609-8.23-1.229l-1.29-.31c-.381-.092-.69-.353-.89-.683-3.804-6.101-10.753-16.395-12.296-18.234-9.371-11.314-17.895-17.768-26.072-19.735-5.774-1.388-11.392-.459-16.73,2.788l2.05,23.581c.055.544-.19,1.047-.605,1.354-.349.291-.802.369-1.242.264l-.176-.042c-2.303-.866-5.275-2.175-8.695-3.684l-2.018-.891c-.477-.209-.856-1.081-.948-1.603-.47-2.3-12.095-21.904-15.946-26.391-10.032-11.66-17.919-20.117-27.797-22.492-6.272-1.508-13.075-.551-21.307,3,.536,3.316,1.094,6.668,1.652,10.02,1.369,8.358,2.8,16.982,3.614,25.456.055.545-.197,1.078-.648,1.406-.335.232-.788.311-1.198.212-.117-.028-.205-.049-.316-.107l-3.082-1.491c-7.069-3.481-16.744-8.244-24.57-10.126-2.755-.662-5.083-.909-6.947-.764-8.224.678-10.728,3.356-13.893,6.719-2.468,2.656-5.27,5.669-11.022,8.316-2.026.95-4.638.853-7.433.743-4.515-.18-9.614-.375-13.256,3.811l-3.438,3.985c-17.586,20.14-54.141,62.057-50.93,72.295.194.609.602,1.363,2.097,1.723,3.048.733,10.509-.254,28.651-9.169.175-.083.342-.136.503-.16,12.154-1.421,24.228-.704,35.922,2.108,1.671.402,3.334.833,4.954,1.316.147.035.257.093.389.187.867.521,1.777.989,2.981,1.529,1.028.497,2.259.918,2.435.96.235.056.71.14,1.157.216.513.061.988.144,1.194.193.088.021.146.035.227.086.366.025.725.08.988.144l.088.021c2.597.031,4.881.331,6.865.589,6.106.781,10.162,1.319,17.754-5.885,8.834-8.373,5.653-12.294.362-18.783l-1.129-1.365c-.332-.423-.432-1.041-.216-1.551s.703-.862,1.244-.919c1.557-.156,3.174-.049,4.786.338,3.781.909,7.081,3.171,10.279,5.346,2.8,1.892,5.461,3.719,8.07,4.346.762.183,1.487.264,2.21.22,4.446-.181,8.057-1.531,9.228-3.436.513-.845.535-1.84.051-3.049-1.971-1.474-17.008-9.339-19.839-10.457-3.991-1.584-7.532-2.717-10.814-3.506-13.424-3.228-22.803-.453-27.948,8.308l11.107,16.73c.274.409.322.984.12,1.435-.209.481-.66.81-1.179.904-2.089.31-4.875.546-8.106.831l-.314.018c-.161.024-.344.011-.49-.024-.234-.056-.455-.172-.661-.347-9.373-8.471-18.678-13.739-28.497-16.1-4.631-1.113-9.425-1.548-14.251-1.334-.154-.006-.307-.011-.425-.04-.469-.113-.859-.425-1.03-.872-.267-.564-.133-1.25.317-1.705,24.135-23.783,36.65-30.959,71.894-31.576.38-1.065.767-2.159,1.125-3.26.573-1.737,1.145-3.474,1.784-5.101.158-.399.485-.727.893-.879.3-.084.585-.11.878-.039.117.028.264.063.367.151,2.218,1.22,4.319,2.538,6.362,3.842,4.439,2.817,8.612,5.445,13.008,6.502,4.455,1.071,8.678.399,13.297-2.176,12.808-7.105,11.286-20.375,8.639-33.352-.136-.595.115-1.253.662-1.591.364-.224.781-.281,1.162-.189.205.049.403.128.558.259,5.568,4.307,9.138,10.476,12.568,16.456,3.608,6.273,7.015,12.215,12.536,16.074,2.095,1.472,4.143,2.496,5.895,2.948.117.028.257.093.36.18,2.475,1.439,4.505,2.926,6.321,4.269,3.111,2.279,5.566,4.057,8.937,4.867,3.371.81,7.406.531,12.765-.867,13.93-3.649,12.766-9.896,11.008-19.348l-.373-2.058c-.114-.559.109-1.098.538-1.464.378-.284.838-.392,1.278-.286.088.021.176.042.257.093,6.244,2.658,9.353,8.81,12.113,14.223l.393.813c.215.395.219.896.024,1.318-.195.422-.58.735-1.04.844-4.133.943-7.121,3.568-9.086,8-.292,2.117.3,5.07,7.803,6.875,7.65,1.839,19.322,1.647,28.691,1.494,7.16-.122,13.318-.203,16.484.558.557.134,1.019.276,1.408.464,4.632,2.27,7.403,7.248,10.086,12.079,2.631,4.788,5.121,9.261,9.049,10.331,2.55.613,5.837-1.971,9.009-4.458,1.986-1.553,3.884-3.003,5.772-3.892,4.571-2.119,10.368-2.631,17.734-1.547l.117.028c.703.169,1.198.82,1.174,1.564-.08,1.105.041,1.634.086,1.833,1.08,3.759,4.666,4.965,8.472,6.286l.917.314.645.155c6.506,1.565,37.997,5.731,40.591,5.386,3.192-.639,7.549-4.058,12.131-7.643,4.851-3.801,9.855-7.721,14.881-9.668,2.465-.969,7.145-2.125,12.519-3.457,7.25-1.787,16.29-4.05,22.774-6.521.277-.121.584-.109.877-.039.323.078.594.237.808.507,1.387,1.708,3.227,3.213,4.985,4.667,2.355,1.941,4.584,3.758,5.551,5.927.973,2.14.851,4.454.75,6.679-.143,2.527-.257,4.937,1.141,7.116,2.116,3.321,6.949,5.139,11.607,6.915,3.381,1.281,6.873,2.621,9.417,4.545,1.184.878,13.049,16.259,13.526,17.499,1.364,3.483.639,7.527-.119,11.844-.682,3.866-1.399,7.88-.64,11.687,1.024,5.152,4.693,11.814,10.102,18.332.266.314.386.717.345,1.145-.098.664.281,1.411,1.001,1.897,7.565,5.287,11.798,15.146,10.707,25.1-.02.214-.07.421-.171.584-2.254,3.957-4.157,8.779-5.278,13.571-.128.531-.645.876-1.177,1.029-.204.076-.446.049-.68-.007-.323-.078-.653-.251-.874-.492-.155-.131-.302-.291-.457-.422-1.193-1.099-3.475-2.054-6.728-2.837-5.129-1.233-11.716-1.817-17.536-2.373-3.667-.351-6.822-.641-9.18-1.02l-.088-.021c-.498-.12-.874-.491-1.068-.975-.194-.484-.081-1.082.267-1.498l19.738-23.809c-.576-2.763-1.551-5.153-2.86-7.061-.044-.073-.118-.153-.155-.256-.387-.968-1.154-1.777-2.374-2.507-1.655-1.367-3.659-2.317-6.004-2.881-2.081-.5-4.452-.696-7.085-.579-.124.001-.278-.004-.425-.04l-.498-.12c-10.024-2.41-20.653-4.622-32.445-6.77l-.176-.042-.278-.004c-.278-.005-.556-.009-.834-.013-.439.019-.885.068-1.301.125-.227.039-.424.085-.643.095-.745.133-1.504.326-2.242.554-.401.122-.773.251-1.08.365-.182.113-.35.166-.525.249-.663.309-1.312.684-2.025,1.2-.116.097-.226.164-.342.261-.196.172-.4.373-.603.574,1.033.217,2.029.457,3.055.704,6.243,1.501,12.633,3.162,19.545,5.106.638.185,1.059.754,1.092,1.387.027.662-.364,1.256-.984,1.513-1.568.592-3.085,1.227-4.5,1.824-4.04,1.715-26.168,13.672-27.6,14.983-.636.971-1.076,1.897-1.355,2.798-.164.554-.6.949-1.155,1.065-.387.063-.569.176-.569.176-.036.022-.094.133-.144.34-.185.768-.234,3.037,1.779,9.363,1.542,4.932,6.272,10.662,11.29,16.742,5.084,6.19,10.338,12.577,13.137,19.248.833,1.95.177,4.292-1.57,5.497-1.055.777-2.384,1.02-3.733.696-.733-.176-1.386-.552-1.939-1.091-5.486-5.162-8.9-6.826-11.062-7.377-1.202-.289-4.045-.973-6.719,6.539-3.298,9.33-1.693,12.715,1.523,19.455,1.181,2.44,2.495,5.224,3.778,8.657.2.329.444.732.556,1.04.318.483.608,1.083,1.016,1.962.119.279.238.558.327.704.311.512,1.086,1.542,1.736,2.323l.915,1.095c.457.547.937,1.131,1.431,1.656,1.503.455,2.667,1.673,3.037,3.23.776,3.092,2.87,6.501,5.083,10.064,4.019,6.496,8.541,13.863,7.318,22.817-.215,1.667-1.331,3.085-2.899,3.677-.846.296-1.76.358-2.698.132-.704-.169-1.335-.508-1.872-.981l-1.863-1.666c-3.622-3.245-6.765-6.032-9.858-6.838-1.231-.296-4.924-1.184-12.455,6.284-9.442,9.352-9.028,13.95-8.258,22.352.295,3.414.638,7.277.372,11.993-.136,2.373-2.076,4.25-4.445,4.305l-.688.022c-.124.001-.271-.034-.388-.062-.322-.078-.623-.244-.837-.514,0,0-.517-.686-.664-.847l-.381-.092c-1.319-.317-2.421-1.02-3.461-2.238-.147-.161-.207-.3-.251-.373-.103-.087-.221-.24-.369-.401-.163-.226-.354-.46-.723-.861-.457-.547-1.261-1.459-1.961-2.159-1.496-1.516-3.343-3.116-5.064-4.342-.471-.363-1.191-.849-1.728-1.196l-.779-.5c-.882-.587-2.336-1.374-3.048-1.764-.742-.397-1.079-.54-1.556-.749-.308-.137-.418-.194-.697-.324-.396-.158-.887-.307-1.554-.499l-.491-.149c-.176-.042-.388-.062-.659-.096l-.323-.078c-.528-.127-.968-.358-1.357-.545-.22-.116-.411-.224-.639-.31-3.132-1.159-6.256-2.348-9.403-3.573-7.129-2.714-14.508-5.55-21.803-7.836-2.339-.718-4.603-1.357-6.714-1.864-5.92-1.424-11.316-2.065-16.062-1.925-4.249.134-6.966.731-9.483,3.593,1.438,4.719,3.395,7.284,9.404,8.853,28.609,7.379,52.929,21.506,68.436,39.794,1.785,2.116,3.771,3.656,5.877,4.569.22.115.433.261.574.45.672.817,1.343,1.635,2.058,2.401.266.314.568.605.87.896,3.439-.892,7.084-2.515,10.919-8.278,3.249-4.874,5.081-19.586,6.277-29.327.582-4.484,1.044-8.341,1.601-11.3.281-1.557,1.326-2.805,2.77-3.395.861-.356,1.811-.439,2.778-.207.557.134,1.085.386,1.556.749l21.001,15.297c12.948-7.947,14.937-24.214,6.13-49.732-1.255-3.676-9.985-22.427-12.584-26.833l-.205-.049c-.557-.134-.915-.064-1.329.242-1.091.8-2.457,1.065-3.776.748,0,0-.374-.121-.433-.135-1.401-.493-2.455-1.652-2.846-3.121l-.677-2.599c-.504-1.902-1-3.833-1.468-5.758-.489-1.836.258-3.781,1.794-4.88,1.077-.741,2.377-.99,3.696-.673.557.134,1.027.372,1.482.669,6.734,4.744,11.858,7.288,17.728,8.793l.586.141c.791.19,1.619.358,2.447.526,4.331-12.08-3.223-23.988-11.243-36.664-2.471-3.906-5.031-7.958-7.196-11.978-1.112-2.08-5.163-7.928-9.417-13.574-.354-.46-.359-1.086-.077-1.612.281-.526.85-.827,1.435-.811,3.995.148,8.879-3.145,14.055-6.618,6.384-4.245,12.994-8.654,19.582-7.944l.176.042c.469.113.881.461,1.075.946.179.543.067,1.14-.347,1.572l-1.829,1.934c-8.734,9.116-14.491,15.136-7.04,26.957,3.026,4.821,5.868,7.316,9.238,8.126,2.169.522,4.574.319,6.562.047,2.109-.648,4.389-.975,6.656-.992,2.141-.266,4.123-.384,6.01-.367.124-.001.242.027.33.048.322.078.616.273.838.514.162.227.266.439.297.697,1.495.359,2.932.83,4.282,1.404,1.863.761,3.705,1.61,5.518,2.452l1.761.798c.558.259.907.999.889,1.589-.006.155-.019.339.004.501.317,3.451,2.857,6.685,5.093,9.504,4.201,5.353,9.66,9.852,15.806,13.048.11.058.213.145.316.232l.656.626c.177.167.404.253.668.317s.6.082,1.207.009c1.039.062,1.874-.83,2.08-1.687.17-.709-.082-1.207-.948-1.603ZM558.695,226.92c-.342.261-.788.31-1.198.212l-.235-.056c-.484-.179-.861-.675-.952-1.197,0,0-.037-.102-.03-.132-.099-.493.088-1.01.451-1.36.363-.35.889-.473,1.387-.354.058.014.124-.001.183.013s.11.058.169.072c.543.193.817.728.931,1.286.084.552-.255,1.189-.706,1.517Z"/>
        <path d="M193.934,327.401c-2.026,2.386-3.62,3.897-5.318,4.656-1.728.753-3.566.784-6.044.188-1.074-.258-2.277-.642-3.659-1.195-6.53-2.517-13.107-4.573-19.554-6.123-18.295-4.399-35.422-4.729-50.858-.927-.505.131-1.003.233-1.471.341-.728.141-1.39.266-2.043.487-.579.177-1.217.465-1.788.739-.356.167-.675.311-.912.38l-.037.023.119.029c-.283-.005-.64.036-.855.142-.453.175-.77.446-1.036.635-.081.075-.163.151-.237.196l-1.959.792c-2.351.982-4.806,2.001-7.198,2.626-.454-.74-.898-1.384-1.321-1.991-2.211-3.278-3.328-4.936-3.253-11.421.064-7.751,5.503-21.439,9.106-30.517l.939-2.332c1.237-3.175,2.383-6.499,3.508-9.732l1.198-3.406c.878-2.472.467-5.096-1.215-7.553-1.312-1.894-2.813-2.35-4.029-2.674l-.799-.223c-1.074-.258-1.691-.186-2.546-.044-9.57,1.329-19.206,1.885-31.276,1.793-2.999-22.189,11.499-33.51,29.76-47.745,2.676-2.072,5.434-4.218,8.176-6.432,2.905-2.364,20.564-20.659,26.323-29.25.038.104.076.208.114.312,1.287,3.182,2.002,4.933.398,10.293-1.366,4.628-7.331,11.844-13.558,16.471-1.997,1.478-4.201,3.031-6.48,4.63-8.752,6.199-18.687,13.25-25.144,21.326-2.113,2.618-2.545,5.86-1.172,8.684.88,1.853,2.615,2.65,3.809,3.063.172.073.381.123.56.166,1.074.258,2.042.175,2.889.063l.483-.041c.617-.072,1.39-.266,2.133-.466.401-.093.95-.277,1.166-.256,2.277-.147,4.103-.781,5.721-1.339,2.301-.773,4.12-1.377,6.776-.739.597.143,1.239.361,1.934.623,2.122.889,4.877,6.634,5.359,13.033l.045.863c.615,7.946,1.359,17.848-4.475,25.569-2.273,3.021-4.271,6.866-6.233,10.561l-1.142,2.124c-1.061,2.05-.891,5.279.431,7.397.234.34.556.576.944.669.269.065.522.062.796-.03,6.192-1.858,12.51-3.053,19.31-3.628.629.404,1.295.785,2.266,1.082,2.157.613,4.358,1.174,6.537,1.698,8.476,2.038,17.215,3.508,25.618,4.928l2.707.43c1.614.64,3.533,1.323,5.475,2.043,7.268,2.6,14.767,5.287,21.278,9.063,2.934,1.716,4.492,3.637,6.494,6.076.46.584,2.199,2.675,2.199,2.675.346.399.662.791,1.038,1.197Z"/>
      </g>
      <path d="M327.335,402.698c-3.926,6.349-22.564,22.546-33.314,22.613-.223.01-.402-.034-.581-.077-.507-.122-.942-.416-1.436-.724-.599-.397-1.281-.845-2.146-1.053-.925-.222-1.892-.139-2.931.242-1.388.519-2.429,1.437-3.352,2.257-1.477,1.286-2.365,1.957-3.931,1.643-.328-.079-.648-.061-.937.091-.423.182-.845.365-1.238.555-1.075.531-1.957.918-3.132,1.078-1.993.279-3.713.212-5.235-.154-3.402-.818-5.433-3.138-7.592-5.582-2.384-2.689-4.837-5.489-9.164-6.529-1.074-.258-2.237-.412-3.436-.415-1.735-.007-4.266,1.594-8.255,4.266-2.82,1.879-6.054,4.038-7.793,4.44-.26.032-.609.169-.965.336-.208.076-.526.221-.764.29-.308-.295-.64-.754-.978-1.182-.459-.585-.926-1.138-1.414-1.603-1.809-1.666-3.909-3.308-5.686-4.713-.317-.392-.452-.614-.632-.784-.226-.244-.473-.397-.771-.469-.149-.036-.306-.042-.462-.048-.64.035-1.199-.004-1.676-.119-1.403-.337-2.015-1.337-2.917-3.101l-.167-.355c-.136-.222-.309-.422-.556-.576-1.67-1.064-3.46-2.284-5.439-3.77-.157-.132-.359-.212-.568-.263-.179-.043-.365-.056-.566-.01-.647.066-1.071.122-1.549.007-.179-.043-.351-.116-.553-.196-10.693-5.16-18.011-29.872-18.152-37.293-.216-9.997,2.346-12.38,5.897-15.725,1.912-1.782,4.075-3.819,6.122-7.21,4.093-6.782,4.695-11.91,5.386-17.805.333-2.698.658-5.493,1.366-8.701.358-1.619,1.753-4.535,3.036-6.847,2.783-1.856,3.939-3.252,6.05-6.122,1.184-1.641,2.396-3.402,3.697-5.267,6.151-8.908,13.868-19.996,23.186-23.817,1.216-.465,1.991-.405,2.529-.276.567.136,1.076.385,1.591.603.658.285,1.398.621,2.263.829l.179.043c-1.13,9.294-9.155,18.509-16.273,26.71-2.867,3.257-5.541,6.371-7.741,9.346-.14.187-.22.389-.27.598-1.814,8.593-7.639,28.092-10.219,34.228-1.888,4.439-4.102,6.686-6.064,8.676-2.302,2.351-4.508,4.567-5.283,9.369-1.768,11.161,1.264,18.899,6.795,27.806.068.111.136.222.241.31,1.471,1.364,2.695,2.447,3.887,3.397l.562.419,1.671,1.191c.974.676,1.985,1.33,3.003,1.953,2.066,1.254,4.325,2.493,6.71,3.603.815.417,1.44,1.104,1.805,2.076.153.416.484.748.924.885.023.037.082.051.142.066.388.093.782.03,1.145-.166,7.673-4.469,13.34-8.474,15.946-19.181.71-2.955.604-18.924-1.471-21.98-.295-.481-.761-1.035-1.477-1.208-.537-.129-1.215-.071-1.752.589-2.343-3.121-5.365-5.394-9.332-7.011-.176-.453-.29-.764-.531-1.075-.068-.111-.136-.222-.228-.497-.084-.178-.16-.386-.266-.601-.244-.564-.588-1.625-.773-2.301-.214-.683-.484-1.663-.586-2.288.006-.157.041-.432.075-.708.09-.768.18-1.535-.005-2.211.437-1.947.811-3.372,1.5-5.322.341-1.023,1.056-2.682,1.84-3.977l.36-.577c.286-.531.931-1.639,1.189-1.924.214-.233.39-.443.53-.63.184-.24.191-.27.265-.315.408-.249.635-.542.797-.818,1.553-.29,2.451-.611,3.179-.877,1.269-.421,1.959-.666,6.303-.347,11.064.861,28.977,4.221,40.975,7.106l.388.093c.305.831.491,1.633.715,2.54.109.468.217.936.355,1.411.046.201.126.788.158,1.049.055.297.233,1.919.242,2.015.369,4.635.415,8.908.2,14.792-.034.402-.165,1.476-.228,1.997-.062.521-.162,1.066-.254,1.581-.242,1.268-.594,2.604-.963,3.873-5.545,1.003-8.762,1.776-13.071,7.749-6.941,9.696-12.371,20.198-5.204,31.487.914,1.451,3.111,3.21,5.233,4.889.742.589,1.432,1.134,1.98,1.613.18.169.405.286.643.344.328.079.685.038,1.041-.128.897-.447,3.043-1.099,4.951-1.683,2.725-.829,4.462-1.358,5.217-1.871,1.717-1.102,3.39-2.152,4.952-3.134,9.062-5.651,16.221-10.085,20.848-22.106,1.746-4.505,1.483-7.22,1.202-10.382-.289-3.132-.611-6.65.795-13.416,1.777-8.571.612-42.063-1.896-55.136-1.051-5.083-2.445-9.396-3.808-13.575-.36-1.128-.72-2.257-1.073-3.415,7.736,4.196,12.709,9.907,16.331,18.607,2.313,5.481,5.216,13.756,6.734,18.604.743,2.294,1.053,6.125.893,10.728-.19,6.174-1.091,11.103-1.957,15.883-.793,4.482-1.63,9.142-1.914,14.789-.181,3.903.279,6.981.735,9.679.838,5.442,1.51,9.74-3.833,18.305Z"/>
      <g>
        <path d="M435.286,208.245c-3.681-.094-5.472,2.568-7.522,5.707-2.301,3.439-4.903,7.38-10.551,6.489l-.102-.025c-.442-.106-.767-.4-.999-.779-.216-.448-.204-.948-.029-1.374,1.489-3.202,4.12-5.769,6.625-8.26,4.977-4.844,7.731-7.922,4.64-13.017-1.605,4.433-4.421,8.215-8.22,11.005-6.832,5.082-14.852,5.383-20.09,4.735-.152.035-.331.028-.535-.021,0,0-.534-.021-.78-.044l-.34-.082c-.646-.155-1.217-.472-1.729-.883l-.884-.213c-1.802-.433-3.571-1.003-5.298-1.597-1.777-.535-3.41-1.072-5.042-1.464-.646-.155-1.224-.294-1.844-.408-5.231-.826-10.182.321-15.395,1.513-.846.228-1.718.414-2.59.6-6.335,2.864-12.947,5.985-14.786,7.053-3.898,2.155-20.834,13.51-23.17,15.897-1.294,1.343-2.087,2.698-2.356,3.965.162.075.324.15.528.199.366.124.774.222,1.182.32,1.02.245,2.022.415,3.024.584,3.755.687,7.352-.066,10.937-2.261,1.181-.723,2.451-.921,3.607-.643,1.496.36,2.761,1.527,3.283,2.947.06.05.103.168.234.524.095.203.122.389.175.617.163,1.118.41,2.185.767,3.241.079.271.217.591.33.87l.182.439c.182.439.398.887.614,1.334.552.996,1.163,2.042,1.859,3.037l.704.96c.394.454.754.901,1.157,1.321.446.539.908,1.009,1.438,1.496l.179.151c.691.418,1.415.844,2.14,1.27,3.016,1.516,6.325,2.708,9.725,3.525,1.224.294,2.422.546,3.67.739,3.847.601,7.285.062,11.465-1.019.084-.052.211-.129.354-.274.303-.215.658-.345,1.015-.332,3.503.087,6.636-.526,9.372-1.738,1.732-.771,3.308-1.794,4.722-3.037,2.515-2.236,4.387-5.382,5.739-9.66.207-.562.703-.981,1.262-1.063.186-.027.398-.012.569.029.272.065.527.199.691.418.102.025.154.109.205.193,1.692,2.384,5.703,7.988,8.151,8.577,3.226.344,5.633-.695,7.146-3.1,2.207-3.497,1.95-9.456-.554-13.547-.336-.549-.316-1.227.061-1.747.403-.479.994-.696,1.572-.557l.476.114c.294-1.224,1.063-2.477,2.423-3.049.616-.32,1.224-.605,1.781-.975l.337-.206c.058-.093.286-.291.471-.462.42-.402.807-.813,1.244-1.283l.284-.435.377-.521c.593-.972,1.169-2.02,1.841-3.62l.373-.953c.241-.554.414-1.123.613-1.651l.528-1.599c.934-2.688,1.885-5.444,3.44-7.876-.246-.023-.458-.038-.696-.095ZM391.12,244.159l-.294.324-.547.48c-.084.052-.143.146-.261.189-.169.103-.379.233-.548.336-.336.35-.851.55-1.283.699,0,0-.034-.008-.042.025-.279.113-.609.141-.915.067-.034-.008-.102-.025-.162-.075-.434-.14-.868-.28-1.335-.429-.136-.033-.34-.082-.434-.14-1.194-.719-2.428-1.267-3.798-1.704-.51-.123-.8-.264-.931-.763-.129-.211-.412-.531-.746-.934-1.063-1.263-2.632-3.114-3.19-4.831-.174-.473-.077-1.025.233-1.418s.8-.635,1.3-.622c1.417.089,2.81.28,4.101.591,2.176.523,4.091,1.379,5.773,2.611,1.375,1.014,2.488,2.216,3.357,3.684.328.582.165,1.406-.28,1.911Z"/>
        <path d="M266.042,213.975c.4-5.55-10.907-18.05-18.436-26.37-2.776-3.113-5.191-5.779-6.676-7.682-1.013-1.322-1.587-2.971-2.023-4.299-.219-.736-.55-1.75-.815-1.994-1.215-1.227-3.472-2.309-6.6-3.061-7.309-1.757-18.053-1.644-24.891-1.023-.499.132-1.008.154-1.474.149-.483.063-.923.101-1.372.173-.178-.007-.322-.006-.526-.055-.34-.082-.715-.316-.922-.653l-.068-.016c-.324-.149-.613-.291-.945-.407-1.474-.75-2.816-1.9-4.043-3.525-1.176-1.542-1.87-3.291-1.918-4.885-.032-.763.003-1.51.175-2.223-2.476,1.023-4.591,2.492-5.201,3.533-2.571,4.56-1.798,7.479-.874,11.261.57,2.115,1.177,4.526,1.161,7.435-.007.178-.048.348-.123.51-.074.306-.241.554-.536.734-.641.421-1.36.572-2.04.408-1.224-.294-2.175-1.422-3.099-3.263-.89-1.832-1.778-4.419-2.85-7.59-.862-2.545-1.839-5.513-2.692-7.049-.05.06-.177.137-.303.215-.135.111-.312.249-.412.368-.058.094-.319.427-.319.427-.151.179-.268.367-.385.554-.234.375-.434.759-.642,1.176l-.299.647-.24.697c-1.162,4.683-1.432,9.545-.868,15.722.724,1.325,1.533,2.599,2.341,3.872.275.354.312.795.214,1.202s-.4.767-.814.991c-4.558,2.356-6.24,6.806-5.82,10.144.331,2.813,1.977,4.79,4.56,5.412,1.292.311,2.852.255,4.57-.16,1.455-.369,2.684-2.339,3.879-4.317.46-.716.928-1.467,1.422-2.176.871-1.229,1.853-2.323,3.102-3.03.371-.198.778-.244,1.118-.163.17.041.306.074.426.174.469.293.771.832.75,1.367l-.014.356c.011.255-.021.535-.01.789.115,1.467.322,2.847.682,4.192.175.617.35,1.235.636,1.843.009.11.053.229.054.373.262,1.753.957,3.647,1.923,5.461,1.984,2.814,5.095,5.432,9.05,7.678,1.765,1.035,3.732,1.976,5.8,2.797.34.082.672.198.961.339l.17.041c.084-.052.194-.061.305-.071.271-.078.525-.089.763-.032s.46.183.631.367c.453.361.896.611,1.304.709l.178.007c2.743.408,5.109.437,7.566.093.593-.073,1.236-.206,1.88-.339,2.311-.487,4.652-1.399,6.828-2.674.287-.147.54-.302.793-.457,4.841-2.935,8.457-7.352,10.487-12.654.274-.689,1.161-1.087,1.908-.908.85.204,1.575.63,2.242,1.295l.47.437c3.877,3.917,8.284,8.321,13.723,9.629.578.139,1.156.278,1.758.315,1.537.19,2.695-.143,3.739-1.043l.346-.241c.165-.535.253-1.054.334-1.538ZM203.875,204.061c-.11.01-.364.02-.509.022-.467-.004-.907.034-1.416.055-.102-.025-.246-.023-.382-.056-.238-.057-.468-.148-.621-.257-.154-.109-.239-.202-.359-.302-.189-.261-.428-.463-.625-.69-.171-.185-.377-.378-.514-.555-.086-.093-.163-.219-.249-.312-.103-.168-.233-.379-.336-.548l-.276-.498c-.285-.608-.148-1.33.357-1.784,1.211-1.147,2.653-2.059,4.233-2.65,3.034-1.104,6.511-1.204,10.36-.314.51.123.895.467,1.111.915.166.507.111,1.034-.207,1.46-1.004,1.485-3.027,2.868-4.393,3.763-.43.292-.759.465-.793.456-.293.469-.748.719-1.291.733-1.399-.013-2.772.161-4.091.562Z"/>
      </g>
    </g>
    <path d="M214.443,198.547c-1.004,1.485-3.027,2.868-4.393,3.763-.43.292-.759.465-.793.456-.293.469-.748.719-1.291.733-1.399-.013-2.772.161-4.091.562-.11.01-.364.02-.509.022-.467-.004-.907.034-1.416.055-.102-.025-.246-.023-.382-.056-.238-.057-.468-.148-.621-.257-.154-.109-.239-.202-.359-.302-.189-.261-.428-.463-.625-.69-.171-.185-.377-.378-.514-.555-.086-.093-.163-.219-.249-.312-.103-.168-.233-.379-.336-.548l-.276-.498c-.285-.608-.148-1.33.357-1.784,1.211-1.147,2.653-2.059,4.233-2.65,3.034-1.104,6.511-1.204,10.36-.314.51.123.895.467,1.111.915.166.507.111,1.034-.207,1.46Z" fill="#fff"/>
    <path d="M391.12,244.159l-.294.324-.547.48c-.084.052-.143.146-.261.189-.169.103-.379.233-.548.336-.336.35-.851.55-1.283.699,0,0-.034-.008-.042.025-.279.113-.609.141-.915.067-.034-.008-.102-.025-.162-.075-.434-.14-.868-.28-1.335-.429-.136-.033-.34-.082-.434-.14-1.194-.719-2.428-1.267-3.798-1.704-.51-.123-.8-.264-.931-.763-.129-.211-.412-.531-.746-.934-1.063-1.263-2.632-3.114-3.19-4.831-.174-.473-.077-1.025.233-1.418s.8-.635,1.3-.622c1.417.089,2.81.28,4.101.591,2.176.523,4.091,1.379,5.773,2.611,1.375,1.014,2.488,2.216,3.357,3.684.328.582.165,1.406-.28,1.911Z" fill="#fff"/>
  </g>
</svg>